<svg width="50" height="15" viewBox="0 0 50 15" fill="none" xmlns="http://www.w3.org/2000/svg">
<path d="M17.1264 0.283203H0.977051V14.0716H17.1264V0.283203Z" fill="black"/>
<path d="M15.9295 0.283203H0.977051V13.1909H15.9295V0.283203Z" fill="white"/>
<path d="M15.9295 0.283203H15.0317V13.1909H15.9295V0.283203Z" fill="black"/>
<path d="M15.9295 12.0156H0.977051V13.1899H15.9295V12.0156Z" fill="black"/>
<path d="M1.87472 0.283203H0.977051V13.1909H1.87472V0.283203Z" fill="white"/>
<path d="M15.9295 0.283203H0.977051V1.1639H15.9295V0.283203Z" fill="white"/>
<path d="M13.5356 10.2559H4.56787V11.7237H13.5356V10.2559Z" fill="black"/>
<path d="M33.2758 0.283203H17.1265V14.0716H33.2758V0.283203Z" fill="black"/>
<path d="M32.0789 0.283203H17.1265V13.1909H32.0789V0.283203Z" fill="white"/>
<path d="M32.0789 0.283203H31.1812V13.1909H32.0789V0.283203Z" fill="black"/>
<path d="M32.0789 12.0156H17.1265V13.1899H32.0789V12.0156Z" fill="black"/>
<path d="M18.0242 0.283203H17.1265V13.1909H18.0242V0.283203Z" fill="white"/>
<path d="M32.0789 0.283203H17.1265V1.1639H32.0789V0.283203Z" fill="white"/>
<path d="M29.3856 2.92346H19.8193V11.1433H29.3856V2.92346Z" fill="black"/>
<path d="M28.4974 4.09033H20.7173V10.5488H28.4974V4.09033Z" fill="white"/>
<path d="M49.1259 0.283203H32.9766V14.0716H49.1259V0.283203Z" fill="black"/>
<path d="M47.929 0.283203H32.9766V13.1909H47.929V0.283203Z" fill="white"/>
<path d="M47.9289 0.283203H47.0312V13.1909H47.9289V0.283203Z" fill="black"/>
<path d="M47.929 12.0156H32.9766V13.1899H47.929V12.0156Z" fill="black"/>
<path d="M33.8743 0.283203H32.9766V13.1909H33.8743V0.283203Z" fill="white"/>
<path d="M47.929 0.283203H32.9766V1.1639H47.929V0.283203Z" fill="white"/>
<path d="M44.3475 4.09033H36.5674V10.5488H44.3475V4.09033Z" fill="white"/>
<path d="M38.362 3.20898H36.5674V4.08898H38.362V3.20898Z" fill="black"/>
<path d="M39.2596 4.09033H37.4648V4.97033H39.2596V4.09033Z" fill="black"/>
<path d="M40.4575 4.97156H38.6621V6.14582H40.4575V4.97156Z" fill="black"/>
<path d="M41.3542 6.14417H39.5596V7.02416H41.3542V6.14417Z" fill="black"/>
<path d="M44.9358 3.20898H43.1411V4.08898H44.9358V3.20898Z" fill="black"/>
<path d="M44.0383 4.09033H42.2437V4.97033H44.0383V4.09033Z" fill="black"/>
<path d="M42.8515 4.97156H41.0562V6.14582H42.8515V4.97156Z" fill="black"/>
<path d="M41.9529 6.14417H40.1582V7.02416H41.9529V6.14417Z" fill="black"/>
<path d="M44.9358 9.08008H43.1411V9.96007H44.9358V9.08008Z" fill="black"/>
<path d="M44.0383 8.19873H42.2437V9.07873H44.0383V8.19873Z" fill="black"/>
<path d="M42.8515 7.02612H41.0562V8.20038H42.8515V7.02612Z" fill="black"/>
<path d="M41.9529 6.14478H40.1582V7.02477H41.9529V6.14478Z" fill="black"/>
<path d="M38.362 9.08008H36.5674V9.96007H38.362V9.08008Z" fill="black"/>
<path d="M39.2596 8.19873H37.4648V9.07873H39.2596V8.19873Z" fill="black"/>
<path d="M40.4575 7.02612H38.6621V8.20038H40.4575V7.02612Z" fill="black"/>
<path d="M41.3542 6.14478H39.5596V7.02477H41.3542V6.14478Z" fill="black"/>
</svg>
