<svg width="60" height="60" viewBox="0 0 60 60" fill="none" xmlns="http://www.w3.org/2000/svg">
<path d="M31.24 43.2237H33.7133V35.8931H26.2865V43.2237H31.24ZM28.7629 38.3366H31.24V40.7802H28.7629V38.3366Z" fill="white"/>
<path d="M51.0465 35.8897V38.3333H53.5217V40.7806H51.0465V43.2241H53.5217V45.6677V48.1112H6.47329V45.6677V33.4462H4V45.6677V55.4456H6.47329V50.5585H8.95035V53.0021H11.4274V50.5585H13.9045V55.4456H46.0918V50.5585H48.5688V53.0021H51.0459V50.5585H53.5229V55.4456H56V33.4468H53.5229V35.8903H51.0478L51.0465 35.8897ZM43.6179 53.0014H16.3803V50.5579H43.6179V53.0014Z" fill="white"/>
<path d="M48.5697 35.8899H46.0927V38.3334H48.5697V35.8899Z" fill="white"/>
<path d="M13.9066 35.8899H11.4295V38.3334H13.9066V35.8899Z" fill="white"/>
<path d="M8.95191 35.8899H6.47485V38.3334H8.95191V35.8899Z" fill="white"/>
<path d="M8.95191 40.7797H6.47485V43.2232H8.95191V40.7797Z" fill="white"/>
<path d="M48.5682 55.4453H46.0912V57.8889H48.5682H51.0447H53.5217V55.4453H51.0447H48.5682Z" fill="white"/>
<path d="M8.95039 55.4453H6.47333V57.8889H8.95039H11.4268H13.9039V55.4453H11.4268H8.95039Z" fill="white"/>
<path d="M53.5217 21.2213V26.1122H6.47329V21.2213H4V30.9993H6.47329V28.5557H26.2872V30.9993H6.47329V33.4466H8.9516V35.8901H11.4287V33.4466H21.3306V43.2245H23.8077V33.4466H36.1879V43.2245H38.665V33.4466H48.5701V35.8901H51.0471V33.4466H53.5223V30.9993H33.7153V28.5557H53.5223V30.9993H55.9994V21.2213H53.5223H53.5217ZM31.2376 30.9986H28.7605V28.5551H31.2376V30.9986Z" fill="white"/>
<path d="M51.0449 21.2214H53.5219V18.7779V16.3344H51.0449V18.7779V21.2214Z" fill="white"/>
<path d="M48.5682 16.3346H51.0447V13.8873H48.5682H46.0912V16.3346H48.5682Z" fill="white"/>
<path d="M43.618 13.8871H46.0913V11.4436H43.618H41.141V13.8871H43.618Z" fill="white"/>
<path d="M36.1881 43.2231H33.711V45.6667H36.1881V43.2231Z" fill="white"/>
<path d="M31.2369 43.2231H28.7598V45.6667H31.2369V43.2231Z" fill="white"/>
<path d="M26.2838 43.2231H23.8067V45.6667H26.2838V43.2231Z" fill="white"/>
<path d="M23.8075 11.4435H26.2845H28.761H31.238H33.7113H36.1878H38.6648H41.1412V9H38.6648H36.1878H33.7113H31.238H28.761H26.2845H23.8075H21.3311H18.854V11.4435H21.3311H23.8075Z" fill="white"/>
<path d="M18.853 13.8871V11.4436H16.3797H13.9033V13.8871H16.3797H18.853Z" fill="white"/>
<path d="M46.0914 16.3344H43.6144V18.7817H46.0914V16.3344Z" fill="white"/>
<path d="M16.3804 16.3344H13.9033V18.7817H16.3804V16.3344Z" fill="white"/>
<path d="M13.9037 16.3346V13.8873H11.4266H8.9502V16.3346H11.4266H13.9037Z" fill="white"/>
<path d="M8.95039 18.7779V16.3344H6.47333V18.7779V21.2214H8.95039V18.7779Z" fill="white"/>
</svg>
