<svg width="124" height="80" viewBox="0 0 124 80" fill="none" xmlns="http://www.w3.org/2000/svg">
<g clip-path="url(#clip0_1359_39750)">
<path d="M79.1902 43.7409C79.9461 45.4616 81.5234 46.8512 81.3365 48.8649C81.0688 51.7569 78.8388 53.169 76.1367 53.169V58.3955H84.1049L81.6532 58.293H81.7553C82.5726 58.293 83.6176 58.4621 84.4114 58.2264C87.1369 57.4199 88.9726 55.3108 89.9584 52.8052L89.8256 53.2715H89.9278L90.0146 52.6587C90.2536 52.0254 90.4396 51.3685 90.5724 50.7023L90.5407 51.4269H90.6428C90.8032 50.1059 91.408 48.0994 90.7542 46.8338C90.743 46.7241 90.7297 46.6155 90.7154 46.5079C90.6071 45.7301 90.3272 45.0045 89.9778 44.3025L89.8256 43.8434L89.8879 44.1232C89.0206 42.4446 87.7958 40.8838 87.5976 39.0269C87.4014 37.2212 89.0543 36.5151 90.5407 36.5489V36.5674L91.5622 36.7723V30.931L91.5122 29.6838C91.5316 29.3508 91.5357 29.0003 91.4744 28.7236L91.4601 28.3701V28.6631C91.4243 28.532 91.3722 28.4203 91.2966 28.3403C90.8982 27.9212 89.9799 27.8423 89.1585 27.8392C88.3995 27.5584 87.0133 27.6773 86.2512 27.8587V27.9612L86.6516 27.9468C85.1224 28.1466 83.6299 28.6826 82.3274 29.5147C81.7287 29.7535 81.1322 30.2147 80.7521 30.7599C80.4978 31.0079 80.2577 31.2702 80.0319 31.5469H79.9175L79.798 31.8462C79.3547 32.4405 78.9797 33.0933 78.6917 33.8025C78.6181 33.9859 78.5497 34.1704 78.4874 34.3559V34.1089L78.4026 34.6192C78.0685 35.7004 77.9143 36.8195 77.9143 37.9406L77.8744 37.1833V39.1304H77.9694C78.1165 40.7168 78.5507 42.2847 79.1912 43.742L79.1902 43.7409Z" fill="white"/>
<path d="M93.9128 23.1426V23.1016C94.584 23.6202 95.629 24.0793 96.3646 24.1674H96.1603L94.7301 25.8071L94.2193 26.3195L96.2624 25.2947L96.671 25.1922H96.4667L98.7141 24.0649V23.7575C98.1993 23.57 96.1296 22.8413 96.1347 22.2203C96.1408 21.4005 97.4607 20.5827 97.7947 19.8633C96.5985 20.1799 95.2184 21.503 94.1182 22.4242L94.2193 22.3228L93.6064 22.8352C93.6227 22.8516 93.6411 22.868 93.6585 22.8854L93.5042 23.0401L93.9128 23.1426Z" fill="white"/>
<path d="M78.0787 40.7686L78.181 41.281H78.2832L78.0787 40.7686Z" fill="white"/>
<path d="M8 63.1088H8.10223L8 62.1865V63.1088Z" fill="white"/>
<path d="M102.8 28.1641V28.2665L103.414 28.1641H102.8Z" fill="white"/>
<path d="M41.0637 49.7869H42.8514C42.3079 49.7244 41.6664 49.747 41.0637 49.7869Z" fill="white"/>
<path d="M49.5774 19.4092C49.5089 20.3407 49.5344 21.3143 49.5774 22.2817V19.4092Z" fill="white"/>
<path d="M29.5548 47.4293C29.5548 50.6061 29.5977 53.8588 32.2109 56.1093C32.6236 56.4649 33.069 56.7662 33.5389 57.0224V57.0623L33.8219 57.1689C34.159 57.336 34.5083 57.4805 34.8669 57.6065V57.6782H35.0784C35.8558 57.9314 36.6781 58.0974 37.523 58.2019V58.2931H38.4434C40.0104 58.411 41.6296 58.3587 43.1793 58.2931H46.4115L44.6963 58.2296C45.2878 58.207 45.8629 58.1906 46.4115 58.1906V54.5014C46.4115 54.0392 46.5443 53.328 46.3502 52.9007C46.0887 52.3257 45.2163 52.0419 44.8291 51.5295C44.5329 51.1534 44.3776 50.5672 44.0517 50.1973H44.0619V49.7873H42.8524C43.0138 49.8058 43.165 49.8324 43.305 49.8673C43.0373 49.855 42.7492 49.8898 42.5296 49.8898C41.8584 49.8898 40.7603 50.0056 39.8061 49.8785C40.1586 49.8591 40.5999 49.8181 41.0647 49.7873H39.4649V49.8201C38.7519 49.6695 38.1727 49.3405 38.0031 48.6601H38.0348L37.9592 48.0524C37.9939 47.667 38.1461 47.376 38.379 47.1577C38.3657 47.1792 38.3535 47.2018 38.3412 47.2254L39.2606 46.8154C39.1891 46.7898 39.1197 46.7755 39.0532 46.7703C39.183 46.7242 39.3209 46.6863 39.4649 46.6556V46.713H44.2662C44.1794 46.6771 44.0875 46.6474 43.9925 46.6197C44.1161 46.6002 44.2305 46.5664 44.3286 46.508C45.2551 45.9157 45.6474 45.019 45.7986 44.0157V44.8683H45.9007V40.0518H39.8736V40.0846C39.8398 40.0754 39.8051 40.0682 39.7714 40.0579C38.8929 39.8007 38.2237 38.7944 38.6671 37.9233L38.6477 38.0032H38.7498V37.7839C39.1799 37.1424 40.1872 36.9877 40.8951 36.9784C42.7329 36.9569 44.5727 36.9784 46.4115 36.9784V28.5751L43.5512 28.4727H37.1154V28.5751H39.1585C37.1154 28.5751 34.917 28.5823 33.1742 29.8387C32.1475 30.5786 31.3068 31.4712 30.6755 32.5124L30.7807 32.2654H30.5764L30.3721 32.9828H30.4078C30.1872 33.404 29.9982 33.8487 29.8439 34.315C29.5947 35.0693 29.5037 35.9034 29.4823 36.7561C29.4721 36.7284 29.4639 36.6987 29.4527 36.672V50.6092H29.5548V47.4324V47.4293ZM45.7976 40.1533C44.0905 40.1533 41.8738 40.5181 40.1576 40.1533H45.7976ZM40.8849 46.5336C40.4793 46.5633 40.0911 46.5931 39.7448 46.6043C40.1085 46.55 40.4988 46.5326 40.8849 46.5336Z" fill="white"/>
<path d="M8.40891 51.9392L8.30669 51.5293V51.9392H8.40891Z" fill="white"/>
<path d="M8.91961 53.5786L8.61293 52.7588L8.81738 53.5786H8.91961Z" fill="white"/>
<path d="M75.5248 45.8623V45.893L75.5739 45.9033C75.5576 45.89 75.5402 45.8767 75.5248 45.8623Z" fill="white"/>
<path d="M8.10222 40.6664V47.2251C8.10222 50.5588 8.17066 53.959 10.9626 56.2792C12.3723 57.4444 14.159 57.9906 16.0704 58.2242V58.2939H16.7436C18.4312 58.4374 20.1903 58.3698 21.8564 58.2939H24.9579L23.2713 58.2314C23.8556 58.2078 24.4206 58.1914 24.9579 58.1914H25.06V52.3501L24.9579 49.7881H19.0329C18.5486 49.7881 18.046 49.7963 17.6027 49.6682V49.5832L17.05 49.3987C16.909 49.2932 16.7824 49.1579 16.672 48.9867L16.5249 47.881C16.6639 47.384 17.0367 46.931 17.4903 46.7138H24.4471V40.0526L18.1135 39.9501V39.987C17.3146 39.5136 16.7691 38.6025 17.3667 37.713C17.5005 37.508 17.6599 37.3533 17.8376 37.2365C17.7907 37.2816 17.7457 37.3307 17.7059 37.3871C20.0248 36.7128 22.5429 36.9772 24.9589 36.9772H25.0611V31.1359L24.9589 28.5739V31.1359L24.8568 28.5739H24.9589C24.0804 28.2039 22.642 28.4714 21.6899 28.4714C18.9593 28.4714 15.9028 28.084 13.3132 29.0863V29.1724C13.0271 29.2605 12.7472 29.3661 12.4735 29.4921C11.5193 29.3015 9.96145 31.0816 9.63557 31.8532L9.67337 31.8215C9.13399 32.5081 8.70698 33.2777 8.50165 34.1078H8.30755L8.10324 35.9524H8.19109C8.03479 37.5121 8.10324 39.0913 8.10324 40.6664H8.10222ZM17.5097 49.6385C17.3606 49.5873 17.2196 49.5196 17.0899 49.4274L17.5097 49.6385ZM20.2587 40.2565H20.3609C19.797 40.2565 19.0615 40.3795 18.5221 40.1817C18.4322 40.1479 18.3433 40.109 18.2565 40.0649L20.2587 40.2565ZM24.2428 46.5078L17.7978 46.6041C19.7245 46.0815 22.2722 46.5078 24.2428 46.5078ZM16.5617 48.7797C16.4524 48.5143 16.4432 48.2284 16.5066 47.9517L16.5617 48.7797ZM16.479 28.5913H16.7528C16.5699 28.6057 16.387 28.6241 16.2052 28.6436L16.48 28.5913H16.479Z" fill="white"/>
<path d="M104.639 37.5913L105.253 36.7715L104.537 37.5913H104.639Z" fill="white"/>
<path d="M56.719 31.5747C57.4402 31.3759 57.7498 30.7539 58.3627 30.4177C58.423 29.7239 58.6569 29.0855 58.5456 28.3681C58.284 26.7029 56.0979 26.1136 54.7873 26.8433C53.8035 27.4007 53.5491 28.2349 53.5614 29.2905C53.5614 29.8172 53.686 30.2128 53.9956 30.6401C54.2765 31.0459 54.633 31.297 55.0937 31.4856C55.5831 31.6854 56.2072 31.7161 56.719 31.5757V31.5747Z" fill="white"/>
<path d="M53.4592 29.5988H53.5615L53.4592 28.1641V29.5988Z" fill="white"/>
<path d="M66.8416 61.7773H57.8519V63.417H66.8416V61.7773Z" fill="white"/>
<path d="M54.9916 52.246V52.5432C54.962 52.4397 54.9282 52.3403 54.8894 52.246V64.7485C54.8894 66.5306 54.4808 68.8836 54.9916 70.5898H55.0937C55.0815 70.5242 55.0713 70.4587 55.061 70.3931C55.152 70.6954 55.341 70.9444 55.7067 70.9803C56.3748 71.0469 56.6914 70.5622 56.8304 69.8868V70.1799H56.9325V52.1436H54.9916V52.246ZM54.9916 66.5931C54.9916 67.6487 54.9466 68.7093 54.9844 69.7618C54.8731 68.4829 54.9916 67.1373 54.9916 65.8758V66.5931Z" fill="white"/>
<path d="M56.5729 39.9717C56.668 39.9358 56.7743 39.9348 56.8929 39.9861C56.8316 39.9369 56.7682 39.8897 56.7017 39.8467C56.6598 39.8887 56.6169 39.9297 56.574 39.9717H56.5729Z" fill="white"/>
<path d="M69.1912 51.1189C71.3732 51.1189 74.016 51.5288 76.1378 51.0164V50.9139C76.0509 50.9252 75.9641 50.9344 75.8762 50.9436C76.2491 50.8289 76.5454 50.5716 76.767 50.2416L76.7507 50.299H76.8528L77.1593 49.5817H77.0868C77.1542 49.3829 77.2032 49.1769 77.2329 48.9709L77.2615 49.1718H77.3636C77.3636 48.4298 77.4842 47.61 76.955 47.0197L76.9611 47.0597C76.8355 46.784 76.6679 46.5339 76.4432 46.3597C76.2818 46.2368 76.0611 46.1609 75.8589 46.0677L75.4237 45.9949V20.3751L75.2194 17.5056L75.2224 18.3275C75.1683 17.8438 75.0917 17.3642 74.9803 16.8908H75.0151L74.8475 16.3876C74.7842 16.1693 74.7117 15.9531 74.632 15.7379L74.6064 15.661L74.6136 15.6887C74.6105 15.6795 74.6064 15.6702 74.6034 15.661H74.6064L74.1978 14.6362L74.2928 14.9539C74.2305 14.8279 74.1662 14.7018 74.0957 14.5778C74.0875 14.5635 74.0793 14.5491 74.0701 14.5348H73.9935L73.5849 13.8174L73.9639 14.3503C72.9301 12.601 71.4018 11.3456 69.6509 10.4766L69.2933 10.3331V10.3065C69.0543 10.1968 68.8122 10.0943 68.567 9.998L68.2718 9.92422V9.8863C67.573 9.62908 66.8539 9.42309 66.1265 9.26323C66.0591 9.24888 65.9906 9.23453 65.9222 9.22019L66.6373 9.31037L65.82 9.10541V9.19969C65.4451 9.12386 65.059 9.05724 64.6667 9.00293H60.7603C60.2352 9.06852 59.7122 9.13103 59.1932 9.20789H58.4638V9.31037L58.8428 9.26323C57.807 9.43437 56.7895 9.68442 55.8078 10.1691C55.3328 10.4038 54.8812 10.6662 54.4532 10.9552C54.5278 10.9418 54.6044 10.9398 54.6841 10.9511L53.7647 11.4635C53.7647 11.4635 53.7718 11.4542 53.7749 11.4491C53.3172 11.8098 52.8933 12.2023 52.503 12.6235L51.0065 14.7428H50.9676C50.4916 15.5985 50.1279 16.5239 49.8828 17.5026V17.2023L49.8051 17.8274C49.7683 17.9934 49.7346 18.1605 49.706 18.3296C49.6621 18.5796 49.6294 18.8358 49.6039 19.0951L49.6795 20.994V43.5395C49.6795 44.1206 49.7929 44.8523 49.6795 45.4446V45.8965H49.5773V45.7387C49.5242 45.8176 49.4517 45.8811 49.3679 45.9365C49.4353 45.9488 49.5038 45.9683 49.5773 45.999L48.9828 46.1312C48.8326 46.1978 48.6834 46.2654 48.5619 46.3546L48.6579 46.204C48.1768 46.4397 47.9694 46.8209 47.8407 47.3312H47.9173C47.811 47.611 47.7375 47.9164 47.7017 48.2259L47.6364 47.6387L47.6813 48.4585C47.668 48.7147 47.6813 48.9709 47.7232 49.2138L47.7385 49.4833H47.7845C47.8601 49.7518 47.9765 49.9977 48.139 50.2007C48.2186 50.299 48.3014 50.3831 48.3872 50.4599C48.3412 50.4425 48.2953 50.4251 48.2493 50.4056C48.7304 51.1506 49.4752 51.123 50.2924 51.123H51.9208C51.5101 51.1035 51.1035 51.0707 50.7031 51.0205C50.7368 51.0205 50.7695 51.0205 50.8032 51.0205H57.6476C56.5872 51.0205 55.4635 51.0861 54.3316 51.123H69.1912V51.1189ZM75.3113 43.3684L75.3185 45.4395C75.1908 44.8092 75.2807 44.0365 75.3113 43.3684ZM48.6579 49.2742V47.8395L48.7601 49.2742H48.6579ZM49.0665 49.8891V49.7866L49.5773 49.8891H49.0665ZM49.6795 49.6842V49.1718L49.7816 49.6842H49.6795ZM48.9644 49.7866C48.901 49.4792 48.7876 49.181 48.7601 48.8643C48.7519 48.6624 48.7519 48.4544 48.7601 48.2494C48.7733 48.0711 48.9031 47.7616 49.0808 47.5721L48.8622 47.6346C49.0481 47.2974 49.2525 47.197 49.5773 47.4296L49.517 47.447C49.5691 47.4768 49.6212 47.5239 49.6723 47.5946C50.1085 48.1941 49.7275 49.762 48.9644 49.7877V49.7866ZM62.5051 42.0863V41.9839L63.0159 42.0863H62.5051ZM69.3495 41.4715H70.0646L69.3495 41.5739V41.4715C69.3403 41.4356 69.3301 41.4018 69.3199 41.369H69.2474C68.6753 40.4713 68.3719 41.6334 68.0215 42.0863L68.5323 40.5491L68.6344 40.6516V40.3442C68.8837 40.3606 69.3311 40.4077 69.6682 40.5123L69.9625 40.5491H69.7755C69.8664 40.584 69.9451 40.624 70.0033 40.6701C70.559 41.1169 69.6856 41.453 69.3495 41.4715ZM71.1321 29.1883L71.2343 30.3156H71.1321V29.1883ZM69.6447 27.2125L69.2566 27.0178C69.3924 27.0731 69.5232 27.1377 69.6447 27.2125ZM66.9438 27.029V26.9337C67.4249 26.7011 68.0675 26.6263 68.5782 26.8313L68.5548 26.8343C68.6681 26.8487 68.7785 26.8712 68.8847 26.8968V26.9337L69.749 27.2801C71.0719 28.1748 71.4846 30.1547 70.6684 31.5166L70.6214 31.7503H70.5192L70.5284 31.7287C70.132 32.2688 69.5181 32.6849 68.663 32.8509C68.4179 32.8991 68.1839 32.9185 67.9612 32.9144L68.8847 32.981H67.4545V32.8786L67.6558 32.8929C67.4402 32.8652 67.2359 32.814 67.0459 32.7412V32.7761L66.7875 32.6275C66.7057 32.5865 66.6281 32.5414 66.5515 32.4922L66.3308 32.3662L66.4279 32.4082C64.6943 31.1477 64.5768 27.9134 66.9438 27.0301V27.029ZM65.3093 31.0329H65.2071L65.0028 29.1883L65.3093 31.0329ZM64.395 38.9833L65.1428 38.3725L65.8395 39.2179L67.2829 42.1447L67.9183 41.9849C68.0838 42.6172 67.3881 42.8191 67.1276 42.2493L66.9989 42.2923C66.575 41.3833 66.1817 40.3924 65.6709 39.5254C65.5708 39.3409 65.4145 39.0673 65.2061 38.971L64.0466 40.2315C63.8444 40.7326 63.6278 41.2142 63.117 41.37L64.394 38.9843L64.395 38.9833ZM59.6907 28.061H59.5886L59.3842 27.1387L59.6907 28.061ZM54.3786 13.5089C54.3735 13.5264 54.3674 13.5438 54.3623 13.5612C54.3541 13.5438 54.3449 13.5274 54.3337 13.511C54.349 13.511 54.3633 13.51 54.3786 13.5089ZM53.8678 13.4065C53.9618 13.4362 54.0333 13.471 54.0854 13.5089H53.8678V13.4065ZM53.3571 13.8164H53.5614L53.5236 13.966C53.6257 13.6842 53.8086 13.5704 54.1079 13.5284C54.3183 13.7129 54.113 13.9711 53.8403 14.1494C53.7299 14.1904 53.6033 14.2161 53.4582 14.2263H53.7095C53.6237 14.2714 53.5369 14.3073 53.4582 14.3288H53.356V13.8164H53.3571ZM51.7083 19.9016C51.0065 20.1783 51.0861 19.1248 51.128 18.7354C51.173 18.3091 51.3415 17.5518 51.6082 16.8785L51.6214 16.7883V16.8467C51.7175 16.6069 51.8268 16.3804 51.9463 16.1826L51.9279 16.2759H52.0301L52.2119 15.8209C52.3161 15.7082 52.4254 15.621 52.5408 15.5678C52.5694 15.5555 52.597 15.5473 52.6246 15.5411L52.5408 15.4571V15.3546C52.9413 15.3853 53.3356 15.538 53.0516 15.9695L52.9852 15.9029C52.9627 16.1191 52.9158 16.3333 52.8545 16.5464L52.8483 16.5844H52.8432C52.6124 17.3601 52.1996 18.1246 52.1159 18.9414C52.0822 19.2621 52.0607 19.7633 51.7103 19.9026L51.7083 19.9016ZM52.5235 30.828C52.4101 30.5953 52.3273 30.3545 52.2691 30.1106H52.2334C52.0239 28.9792 52.0658 27.8643 52.7686 26.9337H52.7441L52.8463 26.5238H53.0506L52.8463 26.9337H52.8095L52.6931 27.2576C52.9474 26.7954 53.2856 26.3824 53.6891 26.0534C53.5818 26.1057 53.4715 26.16 53.3581 26.2164C53.8546 25.3474 55.4891 24.9241 56.4422 25.2623C56.7721 25.3012 57.0837 25.3863 57.3718 25.5093L57.9551 25.704V25.8065L57.8907 25.7849C59.8184 27.0311 60.4436 30.0973 58.852 31.7636L57.8529 32.3651V32.4676L58.8438 31.7718C58.4863 32.1438 58.0184 32.4461 57.429 32.6408L57.8529 32.5701L57.24 32.7751V32.6982C57.2063 32.7074 57.1726 32.7177 57.1378 32.7269C56.7517 32.8263 56.3574 32.8765 55.9702 32.8775H56.8314L54.9926 32.98V32.8775H55.9304C54.5237 32.8683 53.1946 32.2032 52.5255 30.828H52.5235ZM54.8434 41.2665V40.7541L54.9456 41.2665H54.8434ZM55.0477 41.5739V41.4715L55.6607 41.5739H55.0477ZM56.9703 40.0511L56.1714 40.6527H56.0959C56.0284 40.8238 55.9692 41.0011 55.865 41.165C55.6188 41.5258 54.8945 41.5565 54.9895 40.9642C55.0069 40.8494 55.0549 40.7705 55.1192 40.7121L54.9456 40.7562C55.1101 40.5071 55.3205 40.4344 55.5759 40.4907C55.6239 40.4692 55.6709 40.4456 55.7138 40.4169C56.2552 40.049 56.2235 39.4823 56.9887 39.4239H56.5801V39.3214L56.9887 39.4239C56.9693 39.4782 56.9448 39.5264 56.9182 39.5735L56.9887 39.5264C57.8264 40.2048 58.5118 41.5975 58.897 42.6162L59.6907 42.6889C59.9706 41.9777 60.7307 40.2684 61.4846 40.5512C61.412 40.5727 61.3446 40.5953 61.2833 40.6209C61.6879 40.6291 62.1149 41.2757 62.5357 41.4735C62.7748 41.576 63.0833 41.4192 63.3234 41.371C62.8923 42.61 61.8339 41.205 60.9625 41.0718C60.9646 41.1015 60.9677 41.1333 60.9738 41.1661L59.9522 42.9082L59.7867 42.8529C59.5007 43.4288 58.9562 43.3161 58.757 42.7033H58.6242C58.1134 41.826 57.7518 40.7285 56.9713 40.0521L56.9703 40.0511Z" fill="white"/>
<path d="M72.1537 69.0527H76.6485L74.5033 68.9502H70.1433L69.9063 67.823V52.2461H67.9653V68.8477C67.9653 69.3601 67.857 70.0181 68.1257 70.4874C68.2575 70.7077 68.4955 70.8317 68.7826 70.8973H68.5783V70.9998H76.5464L74.0947 70.8973H75.3205C75.8272 70.8973 76.6179 71.0439 77.0132 70.6483C77.4035 70.2568 77.2206 69.6348 77.1593 69.1552L72.1537 69.0527Z" fill="white"/>
<path d="M67.6588 31.955H68.5789L67.6588 31.8525V31.955Z" fill="white"/>
<path d="M116.898 37.489V38.9503C116.862 36.1721 116.593 33.4564 114.984 31.0348C113.975 29.5161 112.128 28.602 110.323 28.1767L110.769 28.2658V28.1634L110.258 28.0609V28.1613C109.807 28.0578 109.36 27.9851 108.93 27.941C108.627 27.9113 108.323 27.8887 108.018 27.8703L108.623 27.8559C107.698 27.4665 105.395 27.571 104.435 27.8559V27.9584L104.776 27.9502C101.69 28.313 98.8347 29.5868 97.0245 32.4849C95.2112 35.3861 95.4441 38.8233 95.4441 42.1006V58.2923H104.23L101.471 58.1898H104.23V53.3733L104.127 51.1187H106.783V45.7898L106.681 43.4328V43.3303C106.121 43.3303 104.709 43.5855 104.291 43.1663C104.268 43.1448 104.248 43.1202 104.23 43.0936V40.5121L104.14 42.904C103.993 42.4398 104.127 41.663 104.127 41.2807C104.127 40.4322 104.032 39.1512 104.31 38.1233L104.23 39.3336V40.5121L104.321 38.0813C104.55 37.2676 105.02 36.62 105.966 36.4867C107.468 36.2746 108.016 37.3875 108.214 38.6726V58.2923H116.999V39.4361L116.897 37.489H116.898ZM108.317 41.2807V39.9628C108.328 40.4558 108.317 40.9169 108.317 41.2807Z" fill="white"/>
<path d="M10.8604 61.7767C10.1862 61.7767 8.49859 61.4703 8.10222 62.0841C8.24728 62.0226 8.40154 61.9734 8.5609 61.9335C8.28712 62.0411 8.10222 62.2399 8.10222 62.5965C8.09814 63.0187 8.34229 63.2227 8.6886 63.3139H8.40869V63.4163H53.7658V61.7767H10.8604ZM10.554 61.8792C10.2291 61.8792 9.72445 61.8105 9.25658 61.8207C10.2914 61.7234 11.4601 61.8792 12.3928 61.8792H10.554Z" fill="white"/>
<path d="M54.3316 51.1191H51.9208C52.7155 51.1571 53.5256 51.1458 54.3316 51.1191Z" fill="white"/>
<path d="M68.7632 40.7822L69.307 41.3274C69.2089 41.0282 69.0709 40.8611 68.7632 40.7822Z" fill="white"/>
<path d="M116.892 62.5972C116.894 62.1678 116.623 61.9669 116.25 61.8798H116.592C115.52 61.4279 113.673 61.7773 112.506 61.7773H70.8267V63.417H112.2L115.108 63.3524C115.451 63.375 115.831 63.3883 116.152 63.3289L116.797 63.3145V63.212L116.505 63.2172C116.733 63.1034 116.886 62.9118 116.892 62.5972Z" fill="white"/>
<path d="M68.663 31.8257C70.8512 31.3563 70.4957 28.5043 68.7693 27.9468C68.8071 27.9509 68.8449 27.955 68.8847 27.9601C68.2493 27.4775 67.1011 27.746 66.6802 28.4039C65.439 29.608 66.5545 32.2796 68.663 31.8257Z" fill="white"/>
</g>
<defs>
<clipPath id="clip0_1359_39750">
<rect width="109" height="62" fill="white" transform="translate(8 9)"/>
</clipPath>
</defs>
</svg>
