<svg width="484" height="80" viewBox="0 0 484 80" fill="none" xmlns="http://www.w3.org/2000/svg">
<path d="M34.9999 10C52.118 10 65.9999 23.8819 65.9999 41C65.9999 58.1181 52.118 72 34.9999 72C17.882 71.9999 4.00001 58.118 3.99994 41C3.99994 23.8819 17.8819 10.0001 34.9999 10ZM34.9755 58.6914C34.1363 58.6916 33.4016 59.5552 32.9335 60.9189C32.7885 60.8867 32.6274 60.8462 32.4824 60.8301C31.2475 60.6767 30.3673 60.9347 29.996 61.5723C29.6329 62.2099 29.8429 63.1059 30.6015 64.0986C30.6982 64.2195 30.8112 64.3323 30.916 64.4531C29.9797 65.5346 29.5842 66.6008 30.0038 67.3271C30.3025 67.8355 30.9406 68.1094 31.8203 68.1094C32.0301 68.1094 32.2561 68.0938 32.4902 68.0615C32.6354 68.0454 32.789 68.0049 32.9423 67.9727C33.4104 69.3364 34.145 70.2002 34.9843 70.2002C35.8235 70.1999 36.5583 69.3364 37.0263 67.9727C37.1714 68.0049 37.3324 68.0454 37.4775 68.0615C37.7114 68.0938 37.9376 68.1094 38.1474 68.1094C39.0351 68.1094 39.6651 67.8436 39.9638 67.3271H39.9472C40.3669 66.6008 39.9713 65.5346 39.0351 64.4531C39.14 64.3321 39.2618 64.2197 39.3505 64.0986C40.1091 63.106 40.3271 62.2098 39.956 61.5723C39.5928 60.9347 38.7045 60.6767 37.4697 60.8301C37.3244 60.8462 37.1708 60.8867 37.0175 60.9189C36.5494 59.555 35.8149 58.6914 34.9755 58.6914ZM34.9755 67.3174C35.4598 67.5353 35.9449 67.7136 36.413 67.8428C36.0337 68.9402 35.4839 69.6016 34.9755 69.6016C34.4672 69.6011 33.9263 68.9318 33.539 67.8428C33.9989 67.7137 34.4833 67.5352 34.9755 67.3174ZM38.6318 64.9043C39.3823 65.784 39.6889 66.5825 39.4306 67.0264C39.1966 67.4379 38.511 67.5917 37.5507 67.4707C37.4377 67.4546 37.3163 67.4217 37.1953 67.3975C37.3162 66.9295 37.4132 66.4213 37.4697 65.8809C37.8973 65.5662 38.2848 65.2432 38.6318 64.9043ZM31.3281 64.9043C31.667 65.2351 32.0625 65.5662 32.4902 65.8809C32.5467 66.4214 32.6436 66.9295 32.7646 67.3975C32.6516 67.4217 32.5221 67.4546 32.4091 67.4707C31.4489 67.5917 30.7633 67.4298 30.5292 67.0264C30.271 66.5825 30.5776 65.784 31.3281 64.9043ZM33.1679 66.3506C33.3373 66.4635 33.5069 66.5768 33.6923 66.6816V66.6904C33.8779 66.7953 34.0643 66.8836 34.2499 66.9805C33.9514 67.0934 33.6527 67.1908 33.3622 67.2715C33.2815 66.989 33.2163 66.6734 33.1679 66.3506ZM36.7919 66.3428C36.7355 66.6735 36.6712 66.9803 36.5986 67.2627C36.3082 67.1901 36.0174 67.0856 35.7109 66.9727V66.9648C35.8965 66.868 36.0819 66.7787 36.2675 66.6738C36.445 66.5689 36.6144 66.4557 36.7919 66.3428ZM34.9755 62.2422C35.3064 62.3955 35.638 62.5644 35.9609 62.75C36.2997 62.9436 36.606 63.146 36.8964 63.3477C36.9287 63.7027 36.9452 64.0658 36.9453 64.4531C36.9453 64.8404 36.9287 65.2036 36.8964 65.5586C36.5979 65.7684 36.2917 65.9707 35.9609 66.1562C35.63 66.3419 35.3064 66.5117 34.9755 66.665C34.6447 66.5117 34.3139 66.3418 33.9911 66.1562C33.6604 65.9707 33.3541 65.7684 33.0556 65.5586C33.0233 65.2036 33.0068 64.8404 33.0068 64.4531C33.0068 64.0658 33.0233 63.7027 33.0556 63.3477C33.3461 63.1459 33.6604 62.9436 33.9911 62.75C34.3219 62.5645 34.6448 62.3955 34.9755 62.2422ZM34.9843 63.0244C34.1934 63.0244 33.5557 63.6622 33.5556 64.4531C33.5556 65.2441 34.1934 65.8818 34.9843 65.8818C35.7751 65.8817 36.413 65.244 36.413 64.4531C36.413 63.6623 35.7751 63.0245 34.9843 63.0244ZM113.674 56.2051C114.045 56.2051 114.376 56.2782 114.626 56.375H116.942V57.3994H115.691C115.942 57.6577 116.119 58.1022 116.119 58.6025C116.119 60.0309 115.038 60.8535 113.666 60.8535C113.367 60.8535 113.036 60.7815 112.754 60.6523C112.536 60.846 112.398 61.032 112.398 61.3467C112.399 61.7419 112.657 61.9921 113.496 61.9922H114.699C116.249 61.9922 117.056 62.4683 117.056 63.582C117.056 64.841 115.724 65.8661 113.626 65.8662C112.052 65.8662 110.914 65.2847 110.914 64.1387V64.123C110.914 63.5743 111.261 63.0656 111.866 62.6943V62.6377C111.535 62.4359 111.268 62.0883 111.268 61.5557C111.269 61.0233 111.64 60.6039 111.995 60.3457V60.2969C111.551 59.9498 111.14 59.3362 111.14 58.5615C111.14 57.0768 112.318 56.2052 113.674 56.2051ZM441.339 56.2051C441.71 56.2051 442.041 56.2782 442.291 56.375H444.607V57.3994H443.356C443.607 57.6577 443.784 58.1022 443.784 58.6025C443.784 60.0308 442.703 60.8535 441.331 60.8535C441.032 60.8535 440.701 60.7815 440.419 60.6523C440.201 60.846 440.063 61.0319 440.063 61.3467C440.064 61.7419 440.322 61.9921 441.161 61.9922H442.364C443.914 61.9922 444.721 62.4683 444.721 63.582C444.721 64.8409 443.389 65.8661 441.291 65.8662C439.717 65.8662 438.579 65.2847 438.579 64.1387V64.123C438.579 63.5742 438.926 63.0656 439.531 62.6943V62.6377C439.2 62.4359 438.934 62.0883 438.934 61.5557C438.934 61.0233 439.305 60.6039 439.66 60.3457V60.2969C439.216 59.9498 438.805 59.3362 438.805 58.5615C438.805 57.0768 439.983 56.2051 441.339 56.2051ZM252.096 59.7236C252.289 60.3047 252.492 60.9591 252.693 61.5645H252.749L253.258 59.7236L254.307 56.3584H255.639L253.233 63.291L253.25 63.2998C252.741 64.704 252.047 65.6396 250.667 65.6396C250.336 65.6396 250.07 65.5914 249.844 65.5107L250.102 64.4375C250.223 64.4698 250.409 64.5341 250.578 64.5342C251.288 64.5342 251.708 64.0097 251.942 63.3076L252.071 62.8555L249.48 56.3584H250.885L252.096 59.7236ZM276.873 56.1973C278.536 56.1973 279.464 57.5207 279.464 59.5303C279.464 61.7818 278.116 63.0652 276.647 63.0654C276.066 63.0654 275.485 62.8072 274.92 62.3311L274.952 63.4531V65.5674H273.597V56.375L273.604 56.3662H274.727L274.831 57.0771H274.863C275.436 56.601 276.147 56.1973 276.873 56.1973ZM37.5419 63.8428C37.7921 64.0445 38.0186 64.2543 38.2285 64.4561V64.4639C38.0186 64.6737 37.7921 64.8754 37.5419 65.0771C37.5581 64.8674 37.5585 64.6658 37.5585 64.4561C37.5585 64.2464 37.55 64.0444 37.5419 63.8428ZM32.4257 63.832C32.4096 64.0337 32.4091 64.2356 32.4091 64.4453C32.4091 64.6552 32.4176 64.8656 32.4257 65.0674C32.1836 64.8656 31.949 64.6639 31.7392 64.4541V64.4453C31.941 64.2435 32.1755 64.0338 32.4257 63.832ZM112.641 62.9688C112.245 63.2512 112.084 63.5901 112.084 63.9209C112.084 64.5665 112.754 64.9463 113.836 64.9463C114.982 64.9461 115.74 64.3884 115.74 63.7832L115.732 63.7754C115.732 63.2269 115.304 63.0655 114.506 63.0654H113.52C113.214 63.0654 112.915 63.0333 112.641 62.9688ZM440.306 62.9688C439.91 63.2512 439.749 63.5901 439.749 63.9209C439.749 64.5665 440.419 64.9462 441.5 64.9463C442.646 64.9463 443.405 64.3885 443.405 63.7832L443.397 63.7754C443.397 63.2267 442.969 63.0654 442.17 63.0654H441.185C440.879 63.0654 440.58 63.0333 440.306 62.9688ZM23.33 55.2529C23.0556 55.1561 22.7653 55.3096 22.6523 55.584C21.7767 57.769 23.7472 60.8494 23.7656 60.8779C20.9812 59.7884 18.5272 61.0481 17.4296 61.7744C17.1234 61.9844 17.1232 62.4523 17.4296 62.6621C21.9573 65.7371 26.5178 64.5909 27.8818 64.1309L27.8652 64.123C28.1073 64.0343 28.2529 63.7834 28.2206 63.5332C27.3894 57.2952 24.452 55.6566 23.33 55.2529ZM47.332 55.5918C47.227 55.3175 46.9286 55.164 46.6542 55.2607C45.5324 55.6643 42.603 57.3033 41.7636 63.542C41.7235 63.8 41.8763 64.0501 42.1181 64.1309C43.4821 64.5909 48.0426 65.7371 52.5703 62.6621L52.5536 62.6699C52.8684 62.4601 52.8684 61.9921 52.5536 61.7822C51.464 61.0478 49.0029 59.7973 46.2187 60.8867C46.2187 60.8867 48.2117 57.787 47.332 55.5918ZM31.8046 61.3945C31.9901 61.3946 32.1917 61.4104 32.4013 61.4346C32.5143 61.4507 32.6357 61.4826 32.7568 61.5068C32.6357 61.9749 32.5389 62.4837 32.4824 63.0244C32.0467 63.3391 31.6591 63.6699 31.3203 64.0088C31.2396 63.912 31.1507 63.8234 31.0781 63.7266C30.489 62.9599 30.2875 62.2825 30.5214 61.8789C30.7071 61.5641 31.159 61.3945 31.8046 61.3945ZM38.1562 61.3945C38.8017 61.3946 39.2538 61.5642 39.4394 61.8789C39.673 62.2824 39.4715 62.9602 38.8828 63.7266C38.8183 63.8233 38.7212 63.9121 38.6406 64.0088C38.3016 63.6779 37.9133 63.3472 37.4775 63.0244C37.421 62.4837 37.3251 61.9749 37.204 61.5068C37.3169 61.4826 37.4458 61.4507 37.5585 61.4346C37.7684 61.4104 37.9706 61.3945 38.1562 61.3945ZM98.3554 60.3115C98.3555 61.4411 98.6785 61.8847 99.4531 61.8848C100.058 61.8848 100.478 61.6023 101.027 60.9082V56.3643H102.392V62.9102H101.269L101.164 61.9258H101.132C100.535 62.6197 99.8969 63.0713 98.9931 63.0713C97.6052 63.0712 96.9922 62.1595 96.9921 60.4893L96.9833 60.4805V56.3643H98.3554V60.3115ZM127.629 60.3115C127.629 61.4412 127.952 61.8848 128.727 61.8848C129.332 61.8846 129.751 61.6021 130.3 60.9082V56.3643H131.664V62.9102H130.542L130.437 61.9258H130.405C129.808 62.6199 129.169 63.0713 128.266 63.0713C126.878 63.0711 126.265 62.1594 126.265 60.4893L126.257 60.4805V56.3643H127.629V60.3115ZM86.0644 53.9873C87.1618 53.9874 88.0171 54.5118 88.5497 55.0928L87.7988 55.9727C87.3468 55.5127 86.798 55.1895 86.0878 55.1895C84.5788 55.1896 83.5302 56.4489 83.5302 58.5068C83.5302 60.5649 84.5063 61.8642 86.0478 61.8643C86.8466 61.8643 87.4598 61.5093 87.9843 60.9365L88.7197 61.8076C88.0175 62.6147 87.1211 63.0664 85.9911 63.0664C83.788 63.0663 82.1017 61.4285 82.1015 58.5557H82.1171C82.1171 55.6986 83.853 53.9873 86.0644 53.9873ZM153.293 53.9873C154.391 53.9873 155.247 54.5117 155.779 55.0928L155.028 55.9727C154.576 55.5127 154.028 55.1895 153.317 55.1895C151.808 55.1896 150.759 56.4489 150.759 58.5068C150.759 60.5649 151.736 61.8643 153.277 61.8643C154.076 61.8642 154.689 61.5093 155.214 60.9365L155.948 61.8076C155.246 62.6146 154.35 63.0664 153.221 63.0664C151.017 63.0664 149.331 61.4286 149.331 58.5557H149.347C149.347 55.6988 151.082 53.9875 153.293 53.9873ZM228.73 56.1973C230.466 56.1973 231.394 57.4484 231.394 59.3047C231.394 59.5628 231.37 59.8369 231.338 59.9902H227.093C227.198 61.2412 227.988 61.9922 229.118 61.9922C229.699 61.9922 230.2 61.8145 230.676 61.5078L231.152 62.3789C230.547 62.7824 229.796 63.0654 228.94 63.0654C227.165 63.0653 225.753 61.8062 225.753 59.6514L225.745 59.6436C225.745 57.5131 227.197 56.1975 228.73 56.1973ZM269.642 56.1973C271.377 56.1973 272.305 57.4484 272.305 59.3047C272.305 59.5628 272.28 59.8369 272.248 59.9902H268.003C268.108 61.2412 268.899 61.9922 270.029 61.9922C270.61 61.9921 271.111 61.8144 271.587 61.5078L272.062 62.3789C271.457 62.7824 270.707 63.0654 269.852 63.0654C268.076 63.0654 266.663 61.8063 266.663 59.6514L266.655 59.6436C266.655 57.5129 268.108 56.1973 269.642 56.1973ZM309.874 56.1973C311.609 56.1973 312.538 57.4484 312.538 59.3047C312.538 59.5627 312.514 59.8369 312.481 59.9902H308.236C308.341 61.2412 309.132 61.9922 310.262 61.9922C310.843 61.9922 311.343 61.8145 311.819 61.5078L312.296 62.3789C311.691 62.7824 310.939 63.0654 310.084 63.0654C308.308 63.0654 306.896 61.8062 306.896 59.6514L306.888 59.6436C306.888 57.513 308.341 56.1974 309.874 56.1973ZM448.014 56.1973C449.749 56.1973 450.677 57.4485 450.677 59.3047C450.677 59.5628 450.652 59.8369 450.62 59.9902H446.375C446.48 61.2412 447.271 61.9922 448.401 61.9922C448.982 61.9921 449.483 61.8144 449.959 61.5078L450.435 62.3789C449.829 62.7824 449.079 63.0654 448.224 63.0654C446.448 63.0654 445.035 61.8063 445.035 59.6514L445.027 59.6436C445.027 57.5129 446.48 56.1973 448.014 56.1973ZM465.463 56.1973C467.198 56.1975 468.126 57.4486 468.126 59.3047C468.126 59.5628 468.102 59.8369 468.069 59.9902H463.824C463.929 61.2411 464.72 61.9921 465.85 61.9922C466.431 61.9922 466.931 61.8144 467.407 61.5078L467.884 62.3789C467.278 62.7824 466.527 63.0654 465.672 63.0654C463.896 63.0652 462.484 61.8061 462.484 59.6514L462.477 59.6436C462.477 57.5129 463.929 56.1973 465.463 56.1973ZM136.006 56.1973C137.636 56.1973 138.387 57.2306 138.387 58.9658V62.9043H137.265L137.143 62.1533H137.111C136.514 62.6617 135.812 63.0576 135.029 63.0576C133.899 63.0576 133.101 62.3229 133.101 61.1689C133.101 59.7646 134.287 59.0379 137.015 58.7393C137.006 57.9807 136.732 57.3105 135.764 57.3105C135.078 57.3106 134.432 57.6173 133.875 57.9805L133.367 57.0527C134.045 56.625 134.965 56.1973 136.006 56.1973ZM174.076 56.1973C174.955 56.1974 175.673 56.5522 176.206 56.9717L175.56 57.8193C175.109 57.4885 174.64 57.2461 174.1 57.2461C173.39 57.2462 173.051 57.6018 173.051 58.0537C173.051 58.6103 173.728 58.8287 174.438 59.0869C175.358 59.434 176.368 59.8374 176.368 61.0723C176.368 62.1697 175.496 63.0576 173.882 63.0576C172.978 63.0576 172.05 62.6778 171.421 62.1533L172.066 61.2734C172.647 61.7415 173.221 62.0244 173.923 62.0244C174.705 62.0243 175.076 61.6448 175.076 61.1445C175.076 60.5474 174.342 60.289 173.624 60.0146C172.752 59.6838 171.76 59.2157 171.76 58.1104C171.76 57.0047 172.64 56.1973 174.076 56.1973ZM187.489 56.1973C189.119 56.1973 189.87 57.2306 189.87 58.9658V62.9043H188.748L188.627 62.1533H188.595C187.997 62.6617 187.295 63.0576 186.513 63.0576C185.383 63.0576 184.584 62.3229 184.584 61.1689C184.584 59.7646 185.77 59.0379 188.498 58.7393C188.49 57.9807 188.215 57.3105 187.247 57.3105C186.561 57.3106 185.915 57.6173 185.358 57.9805L184.851 57.0527C185.528 56.625 186.448 56.1973 187.489 56.1973ZM239.215 56.1973C240.094 56.1973 240.813 56.552 241.346 56.9717L240.7 57.8193C240.248 57.4885 239.78 57.2462 239.239 57.2461C238.529 57.2461 238.189 57.6017 238.189 58.0537C238.19 58.6104 238.868 58.8287 239.578 59.0869C240.498 59.4339 241.507 59.8376 241.507 61.0723C241.507 62.1696 240.635 63.0575 239.021 63.0576C238.118 63.0576 237.189 62.6779 236.56 62.1533L237.205 61.2734C237.786 61.7415 238.359 62.0244 239.061 62.0244C239.844 62.0244 240.216 61.6449 240.216 61.1445C240.216 60.5473 239.481 60.2891 238.763 60.0146C237.891 59.6838 236.899 59.2157 236.898 58.1104C236.898 57.0047 237.778 56.1973 239.215 56.1973ZM283.209 56.1973C284.839 56.1974 285.59 57.2308 285.59 58.9658V62.9043H284.468L284.347 62.1533H284.314C283.717 62.6617 283.015 63.0575 282.232 63.0576C281.103 63.0576 280.303 62.3229 280.303 61.1689C280.303 59.7646 281.49 59.0379 284.218 58.7393C284.21 57.9808 283.935 57.3107 282.967 57.3105C282.281 57.3105 281.635 57.6174 281.078 57.9805L280.569 57.0527C281.247 56.625 282.168 56.1973 283.209 56.1973ZM330.552 56.1973C332.174 56.1973 333.635 57.4564 333.635 59.6436C333.635 61.8306 332.174 63.0576 330.552 63.0576C328.93 63.0576 327.469 61.8064 327.469 59.6436C327.469 57.4564 328.929 56.1973 330.552 56.1973ZM358.242 56.1973C359.864 56.1973 361.325 57.4564 361.325 59.6436C361.325 61.8306 359.864 63.0576 358.242 63.0576C356.62 63.0575 355.159 61.8063 355.159 59.6436C355.159 57.4565 356.62 56.1974 358.242 56.1973ZM380.809 56.1973C382.439 56.1974 383.189 57.2308 383.189 58.9658V62.9043H382.067L381.946 62.1533H381.914C381.317 62.6617 380.615 63.0575 379.832 63.0576C378.702 63.0576 377.902 62.3229 377.902 61.1689C377.902 59.7646 379.089 59.0379 381.817 58.7393C381.809 57.9808 381.534 57.3107 380.566 57.3105C379.88 57.3105 379.234 57.6174 378.678 57.9805L378.169 57.0527C378.847 56.625 379.767 56.1973 380.809 56.1973ZM394.956 56.1973C396.578 56.1973 398.039 57.4564 398.039 59.6436C398.039 61.8306 396.578 63.0576 394.956 63.0576C393.334 63.0575 391.873 61.8063 391.873 59.6436C391.873 57.4565 393.334 56.1974 394.956 56.1973ZM421.186 56.1973C422.817 56.1974 423.567 57.2307 423.567 58.9658V62.9043H422.445L422.324 62.1533H422.292C421.695 62.6617 420.993 63.0575 420.21 63.0576C419.08 63.0576 418.281 62.3229 418.281 61.1689C418.281 59.7646 419.467 59.0379 422.195 58.7393C422.187 57.9807 421.913 57.3106 420.944 57.3105C420.258 57.3105 419.612 57.6173 419.056 57.9805L418.547 57.0527C419.225 56.625 420.145 56.1973 421.186 56.1973ZM434.971 56.1973C436.601 56.1973 437.352 57.2306 437.352 58.9658V62.9043H436.23L436.109 62.1533H436.077C435.48 62.6618 434.777 63.0576 433.994 63.0576C432.864 63.0574 432.065 62.3228 432.065 61.1689C432.065 59.7647 433.252 59.0379 435.979 58.7393C435.971 57.9808 435.697 57.3108 434.729 57.3105C434.044 57.3105 433.398 57.6174 432.841 57.9805L432.332 57.0527C433.01 56.625 433.93 56.1974 434.971 56.1973ZM202.646 59.2393C202.646 61.2164 203.429 61.8544 204.526 61.8545C205.624 61.8545 206.439 61.2085 206.439 59.2393V54.1465H207.771V59.1426C207.771 61.9995 206.463 63.0566 204.526 63.0566C202.589 63.0565 201.266 61.9994 201.266 59.1426V54.1465H202.646V59.2393ZM178.893 56.3564H180.597V57.4541H178.893V60.7705C178.893 61.5532 179.168 61.9568 179.846 61.957C180.072 61.957 180.355 61.8844 180.549 61.8037L180.799 62.8125C180.428 62.9335 179.992 63.0468 179.516 63.0469C178.131 63.0469 177.597 62.2452 177.536 61.0078L177.53 60.7627V57.4541H176.577V56.4287L177.586 56.3564L177.739 54.5479H178.893V56.3564ZM247.479 56.3564H249.183V57.4541H247.479V60.7705C247.479 61.5534 247.754 61.957 248.432 61.957C248.658 61.957 248.94 61.8844 249.134 61.8037L249.384 62.8125C249.012 62.9336 248.577 63.0469 248.101 63.0469C246.716 63.0468 246.182 62.2452 246.121 61.0078L246.115 60.7627V57.4541H245.163V56.4287L246.172 56.3564L246.325 54.5479H247.479V56.3564ZM293.49 56.3564H295.193V57.4541H293.49V60.7705C293.49 61.5534 293.765 61.957 294.443 61.957C294.669 61.957 294.952 61.8844 295.145 61.8037L295.395 62.8125C295.024 62.9335 294.588 63.0468 294.112 63.0469C292.728 63.0469 292.194 62.2452 292.133 61.0078L292.127 60.7627V57.4541H291.175V56.4287L292.184 56.3564L292.337 54.5479H293.49V56.3564ZM322.602 56.3564H324.305V57.4541H322.602V60.7705C322.602 61.5532 322.876 61.9569 323.554 61.957C323.78 61.957 324.062 61.8844 324.256 61.8037L324.507 62.8125C324.136 62.9335 323.7 63.0468 323.224 63.0469C321.839 63.0469 321.305 62.2452 321.244 61.0078L321.238 60.7627V57.4541H320.285V56.4287L321.294 56.3564L321.447 54.5479H322.602V56.3564ZM386.264 56.3564H387.967V57.4541H386.264V60.7705C386.264 61.5532 386.538 61.9568 387.216 61.957C387.442 61.957 387.725 61.8844 387.919 61.8037L388.169 62.8125C387.798 62.9335 387.362 63.0468 386.886 63.0469C385.501 63.0469 384.967 62.2452 384.906 61.0078L384.9 60.7627V57.4541H383.947V56.4287L384.956 56.3564L385.109 54.5479H386.264V56.3564ZM478.182 56.3564H479.885V57.4541H478.182V60.7705C478.182 61.5534 478.457 61.957 479.135 61.957C479.361 61.9569 479.643 61.8844 479.837 61.8037L480.087 62.8125C479.716 62.9335 479.28 63.0468 478.804 63.0469C477.419 63.0469 476.885 62.2452 476.824 61.0078L476.818 60.7627V57.4541H475.865V56.4287L476.874 56.3564L477.027 54.5479H478.182V56.3564ZM303.603 56.2051C304.975 56.2052 305.613 57.1334 305.613 58.7959V62.9121H304.241V58.9658C304.241 57.8361 303.886 57.3839 303.143 57.3838C302.692 57.3838 302.215 57.6821 301.666 58.2793V62.9199H300.294V58.9736C300.294 57.8437 299.947 57.3916 299.196 57.3916C298.752 57.3918 298.268 57.6902 297.72 58.2871V62.9277H296.364V56.3828L296.38 56.3662H297.502L297.606 57.2871H297.639C298.195 56.6899 298.85 56.2051 299.665 56.2051C300.641 56.2052 301.19 56.6577 301.473 57.4082C302.118 56.7141 302.78 56.2051 303.603 56.2051ZM374.545 56.2051C375.917 56.2051 376.555 57.1333 376.555 58.7959V62.9121H375.183V58.9658C375.183 57.8359 374.827 57.3838 374.085 57.3838C373.633 57.3839 373.157 57.6823 372.608 58.2793V62.9199H371.236V58.9736C371.236 57.8437 370.889 57.3916 370.139 57.3916C369.695 57.3916 369.211 57.6901 368.662 58.2871V62.9277H367.306V56.3828L367.322 56.3662H368.443L368.549 57.2871H368.581C369.138 56.6899 369.791 56.2052 370.606 56.2051C371.583 56.2051 372.133 56.6576 372.415 57.4082C373.061 56.7142 373.722 56.2052 374.545 56.2051ZM459.191 56.2051C460.563 56.2051 461.201 57.1333 461.201 58.7959V62.9121H459.829V58.9658C459.829 57.8359 459.474 57.3838 458.731 57.3838C458.279 57.3838 457.804 57.6822 457.255 58.2793V62.9199H455.883V58.9736C455.883 57.8439 455.535 57.3917 454.785 57.3916C454.341 57.3916 453.856 57.6899 453.308 58.2871V62.9277H451.952V56.3828L451.968 56.3662H453.09L453.195 57.2871H453.227C453.784 56.6899 454.438 56.2051 455.253 56.2051C456.229 56.2051 456.778 56.6576 457.06 57.4082C457.706 56.7141 458.368 56.2051 459.191 56.2051ZM107.629 56.1973C109.017 56.1973 109.639 57.1255 109.639 58.7881V62.9043H108.267V58.957C108.266 57.8274 107.936 57.375 107.161 57.375C106.556 57.375 106.136 57.6823 105.555 58.2715V62.9121H104.199V56.3662H105.329L105.434 57.2705H105.466C106.071 56.6895 106.741 56.1973 107.629 56.1973ZM143.504 56.1973C144.892 56.1974 145.514 57.1256 145.514 58.7881V62.9043H144.142V58.957C144.141 57.8273 143.81 57.375 143.035 57.375C142.43 57.3751 142.011 57.6825 141.43 58.2715V62.9121H140.073V56.3662H141.203L141.309 57.2705H141.341C141.946 56.6895 142.616 56.1973 143.504 56.1973ZM167.417 56.1973C167.74 56.1973 167.95 56.246 168.151 56.3428L167.901 57.5293C167.675 57.4567 167.506 57.4239 167.248 57.4238C166.715 57.4238 166.069 57.7951 165.649 58.8281V62.9121H164.294V56.3662H165.424L165.528 57.5449H165.56C166.02 56.6976 166.715 56.1974 167.417 56.1973ZM194.987 56.1973C196.375 56.1974 196.997 57.1256 196.997 58.7881V62.9043H195.625V58.957C195.625 57.8273 195.293 57.375 194.518 57.375C193.913 57.3751 193.494 57.6825 192.913 58.2715V62.9121H191.557V56.3662H192.686L192.792 57.2705H192.824C193.429 56.6895 194.1 56.1973 194.987 56.1973ZM213.098 56.1973C214.486 56.1973 215.107 57.1255 215.107 58.7881V62.9043H213.735V58.957C213.735 57.8275 213.404 57.3751 212.63 57.375C212.025 57.375 211.604 57.6823 211.023 58.2715V62.9121H209.668V56.3662H210.798L210.902 57.2705H210.935C211.54 56.6894 212.21 56.1973 213.098 56.1973ZM235.809 56.1973C236.131 56.1973 236.341 56.246 236.543 56.3428L236.293 57.5293C236.067 57.4567 235.898 57.4238 235.64 57.4238C235.107 57.4238 234.461 57.7951 234.041 58.8281V62.9121H232.685V56.3662H233.815L233.921 57.5449H233.953C234.421 56.6978 235.107 56.1975 235.809 56.1973ZM290.399 56.1973C290.722 56.1973 290.932 56.2459 291.134 56.3428L290.884 57.5293C290.658 57.4567 290.488 57.4239 290.23 57.4238C289.698 57.4238 289.051 57.7951 288.632 58.8281V62.9121H287.276V56.3662H288.406L288.511 57.5449H288.543C289.011 56.6976 289.697 56.1973 290.399 56.1973ZM317.259 56.1973C318.647 56.1973 319.268 57.1255 319.268 58.7881V62.9043H317.896V58.957C317.896 57.8274 317.566 57.375 316.791 57.375C316.186 57.375 315.766 57.6823 315.185 58.2715V62.9121H313.829V56.3662H314.959L315.063 57.2705H315.096C315.701 56.6895 316.371 56.1974 317.259 56.1973ZM348.13 56.1973C349.518 56.1973 350.14 57.1256 350.14 58.7881V62.9043H348.768V58.957C348.767 57.8273 348.436 57.375 347.661 57.375C347.056 57.3752 346.637 57.6825 346.056 58.2715V62.9121H344.699V56.3662H345.829L345.935 57.2705H345.967C346.572 56.6894 347.242 56.1973 348.13 56.1973ZM365.805 56.1973C366.127 56.1973 366.337 56.2459 366.539 56.3428L366.289 57.5293C366.063 57.4567 365.893 57.4238 365.635 57.4238C365.102 57.424 364.457 57.7954 364.037 58.8281V62.9121H362.682V56.3662H363.811L363.916 57.5449H363.948C364.416 56.6975 365.102 56.1973 365.805 56.1973ZM402.825 56.1973C404.213 56.1973 404.835 57.1255 404.835 58.7881V62.9043H403.463V58.957C403.463 57.8275 403.132 57.3751 402.357 57.375C401.752 57.375 401.332 57.6823 400.751 58.2715V62.9121H399.395V56.3662H400.525L400.63 57.2705H400.662C401.267 56.6894 401.937 56.1973 402.825 56.1973ZM428.684 56.1973C430.072 56.1973 430.693 57.1255 430.693 58.7881V62.9043H429.321V58.957C429.321 57.8273 428.99 57.375 428.216 57.375C427.611 57.375 427.19 57.6824 426.609 58.2715V62.9121H425.254V56.3662H426.384L426.488 57.2705H426.521C427.127 56.6896 427.796 56.1974 428.684 56.1973ZM472.848 56.1973C474.236 56.1974 474.856 57.1256 474.856 58.7881V62.9043H473.485V58.957C473.485 57.8273 473.154 57.375 472.379 57.375C471.774 57.3751 471.354 57.6825 470.773 58.2715V62.9121H469.417V56.3662H470.547L470.652 57.2705H470.685C471.29 56.6895 471.96 56.1973 472.848 56.1973ZM91.2695 55.9297L91.2206 57.2295C91.7937 56.6807 92.4481 56.1963 93.3359 56.1963C94.7239 56.1964 95.3456 57.1246 95.3456 58.7871V62.9033H93.9736V58.957C93.9736 57.8271 93.6419 57.375 92.8671 57.375C92.2621 57.3751 91.8425 57.6816 91.2617 58.2705V62.9111H89.9052V53.4277L89.914 53.4199H91.2695V55.9297ZM158.507 55.9297L158.459 57.2295C159.032 56.6807 159.685 56.1963 160.573 56.1963C161.961 56.1963 162.583 57.1245 162.583 58.7871V62.9033H161.211V58.957C161.211 57.8273 160.88 57.3751 160.105 57.375C159.5 57.375 159.08 57.6814 158.499 58.2705V62.9111H157.143V53.4277L157.151 53.4199H158.507V55.9297ZM170.282 62.9111H168.927V56.3662H170.282V62.9111ZM183.147 62.9111H181.791V56.3662H183.147V62.9111ZM218.215 62.9111H216.858V56.3662H218.215V62.9111ZM244.073 62.9111H242.718V56.3662H244.073V62.9111ZM390.518 62.9111H389.161V56.3662H390.518V62.9111ZM221.677 59.8838C221.854 60.5294 222.056 61.1913 222.25 61.8369H222.299C222.492 61.1914 222.694 60.5293 222.871 59.8838L223.993 56.3643H225.325L223.065 62.9102H221.483L219.167 56.3643H220.556L221.677 59.8838ZM337.259 53.2607C337.694 53.2608 338.114 53.3573 338.412 53.4863L338.138 54.5117V54.5195C337.904 54.4147 337.654 54.3506 337.428 54.3506C336.847 54.3506 336.557 54.7295 336.557 55.5283V56.3594H337.88V57.457H336.557V62.9053H335.192V57.457H334.296V56.4326L335.192 56.3594V55.5361C335.192 54.1885 335.798 53.2607 337.259 53.2607ZM354.183 53.2607C354.626 53.2607 355.038 53.3572 355.337 53.4863L355.062 54.5117V54.5195C354.828 54.4147 354.578 54.3506 354.352 54.3506C353.771 54.3506 353.48 54.7294 353.48 55.5283V56.3594H354.805V57.457H353.48V62.9053H352.116V57.457H351.221V56.4326L352.116 56.3594V55.5361C352.116 54.1886 352.722 53.2608 354.183 53.2607ZM121.882 56.4629C122.156 57.1165 122.406 57.7218 122.705 58.3916H122.754C123.036 57.7218 123.327 57.1165 123.585 56.4629L124.61 54.1465H126.047L123.407 59.5859V62.9033H122.027V59.5859L119.396 54.1465H120.873L121.882 56.4629ZM261.434 54.1465C264.121 54.1465 265.654 55.6315 265.654 58.4883C265.654 61.3453 264.121 62.9033 261.506 62.9033H259.166V54.1465H261.434ZM342.763 62.9033H341.383V54.1465H342.763V62.9033ZM412.333 58.5693C412.535 59.1504 412.712 59.7475 412.914 60.3447H412.97C413.171 59.7475 413.341 59.1585 413.543 58.5693L415.125 54.1465H416.723V62.9033H415.439V58.5693C415.439 57.7865 415.544 56.6564 415.617 55.8574H415.569L414.867 57.875L413.342 62.0479H412.486L410.952 57.875L410.267 55.8574H410.218C410.274 56.6564 410.388 57.7865 410.388 58.5693V62.9033H409.152V54.1465H410.727L412.333 58.5693ZM33.3622 61.6445C33.6527 61.7172 33.9434 61.8216 34.2499 61.9346C34.0643 62.0314 33.8779 62.1207 33.6923 62.2256C33.5068 62.3385 33.3453 62.4515 33.1679 62.5645C33.2244 62.2416 33.2896 61.927 33.3622 61.6445ZM36.5986 61.6445C36.6793 61.9269 36.7435 62.2336 36.7919 62.5645C36.6225 62.4515 36.4531 62.3305 36.2675 62.2256C36.0819 62.1207 35.8965 62.0314 35.7109 61.9346C36.0093 61.8217 36.3082 61.7252 36.5986 61.6445ZM14.1132 61.6045C13.9519 61.8303 13.9999 62.1529 14.2255 62.3145C14.3143 62.379 14.4195 62.4121 14.5244 62.4121C14.6857 62.4121 14.8396 62.3393 14.9365 62.2021H14.9277L16.3408 60.2646C15.9937 60.192 15.638 60.0954 15.291 59.9824L14.1132 61.6045ZM54.7011 59.9824C54.3541 60.0954 53.9983 60.192 53.6513 60.2646L55.0644 62.2021C55.1613 62.3391 55.3224 62.4121 55.4755 62.4121C55.5804 62.4121 55.6856 62.379 55.7744 62.3145H55.7665C55.9922 62.1449 56.0402 61.8303 55.8788 61.6045L54.7011 59.9824ZM137.015 59.6113C135.078 59.8454 134.424 60.3378 134.424 61.0723C134.424 61.7176 134.868 61.9756 135.449 61.9756C136.03 61.9755 136.482 61.701 137.022 61.2168H137.015V59.6113ZM188.498 59.6113C186.561 59.8454 185.907 60.3378 185.907 61.0723C185.907 61.7176 186.352 61.9756 186.933 61.9756C187.514 61.9755 187.965 61.701 188.506 61.2168H188.498V59.6113ZM284.218 59.6113C282.281 59.8454 281.627 60.3378 281.627 61.0723C281.627 61.7175 282.07 61.9755 282.651 61.9756C283.232 61.9756 283.685 61.701 284.226 61.2168H284.218V59.6113ZM381.817 59.6113C379.88 59.8454 379.227 60.3378 379.227 61.0723C379.227 61.7175 379.67 61.9755 380.251 61.9756C380.832 61.9756 381.284 61.701 381.825 61.2168H381.817V59.6113ZM422.195 59.6113C420.258 59.8454 419.604 60.3378 419.604 61.0723C419.605 61.7175 420.048 61.9755 420.629 61.9756C421.21 61.9756 421.662 61.701 422.203 61.2168H422.195V59.6113ZM435.979 59.6113C434.043 59.8454 433.39 60.3379 433.39 61.0723C433.39 61.7176 433.833 61.9755 434.414 61.9756C434.995 61.9756 435.447 61.701 435.988 61.2168H435.979V59.6113ZM276.518 57.3428C276.009 57.3429 275.517 57.602 274.96 58.1426V61.3467C275.468 61.7825 275.985 61.9433 276.389 61.9434C277.341 61.9434 278.052 61.0959 278.052 59.5625V59.5547C278.052 58.1827 277.615 57.3428 276.518 57.3428ZM330.552 57.3271C329.519 57.3271 328.889 58.2554 328.889 59.6436C328.889 61.0316 329.535 61.9355 330.552 61.9355C331.569 61.9355 332.23 61.0235 332.23 59.6436C332.23 58.2554 331.585 57.3272 330.552 57.3271ZM358.242 57.3271C357.209 57.3273 356.58 58.2555 356.58 59.6436C356.58 61.0315 357.225 61.9354 358.242 61.9355C359.259 61.9355 359.921 61.0235 359.921 59.6436C359.921 58.2554 359.275 57.3271 358.242 57.3271ZM394.956 57.3271C393.923 57.3273 393.294 58.2555 393.294 59.6436C393.294 61.0315 393.939 61.9354 394.956 61.9355C395.973 61.9355 396.635 61.0235 396.635 59.6436C396.635 58.2554 395.989 57.3271 394.956 57.3271ZM260.538 61.7734H261.337C263.217 61.7734 264.226 60.6673 264.226 58.4883C264.225 56.3095 263.217 55.2686 261.337 55.2686H260.538V61.7734ZM34.9843 59.3037C35.4927 59.3039 36.0335 59.9732 36.4208 61.0625C35.9609 61.1916 35.4765 61.3691 34.9843 61.5869C34.5001 61.369 34.0158 61.1916 33.5478 61.0625C33.9271 59.9651 34.4759 59.3037 34.9843 59.3037ZM19.6982 51.3789C19.4238 51.161 19.0277 51.2093 18.8017 51.4756C17.4955 53.0237 17.7845 56.2556 17.7851 56.2617C14.8474 54.8171 12.6118 54.9701 11.498 55.2041C11.0783 55.2929 10.8843 55.7938 11.1103 56.165H11.1191C13.7662 60.6034 19.3179 60.1277 21.0292 59.8613C21.3279 59.8129 21.5544 59.5625 21.5624 59.2559C21.7722 53.8086 20.4488 51.9763 19.6982 51.3789ZM51.206 51.4756C50.98 51.2094 50.5848 51.1611 50.3105 51.3789C49.5518 51.9761 48.2364 53.8082 48.4462 59.2559C48.4543 59.5544 48.6799 59.8128 48.9785 59.8613C50.6814 60.1277 56.2343 60.6039 58.8896 56.165H58.8974C59.1234 55.7938 58.9375 55.2929 58.5097 55.2041C57.3958 54.9701 55.1599 54.8173 52.2226 56.2617C52.2226 56.2617 52.5135 53.0252 51.206 51.4756ZM113.674 57.166C112.988 57.1661 112.439 57.6661 112.439 58.5537C112.439 59.4414 112.996 59.9579 113.674 59.958C114.352 59.958 114.909 59.4254 114.909 58.5537C114.909 57.6741 114.36 57.166 113.674 57.166ZM441.339 57.166C440.653 57.1661 440.104 57.666 440.104 58.5537C440.104 59.4414 440.661 59.9579 441.339 59.958C442.017 59.958 442.574 59.4254 442.574 58.5537C442.574 57.6741 442.025 57.166 441.339 57.166ZM228.755 57.2705C227.932 57.2706 227.205 57.9 227.076 59.0537H230.216C230.216 57.9241 229.707 57.2705 228.755 57.2705ZM269.666 57.2705C268.843 57.2705 268.117 57.8999 267.987 59.0537H271.127C271.127 57.9242 270.618 57.2706 269.666 57.2705ZM309.898 57.2705C309.075 57.2705 308.349 57.8999 308.22 59.0537H311.359C311.359 57.9241 310.851 57.2705 309.898 57.2705ZM448.038 57.2705C447.215 57.2705 446.489 57.8999 446.359 59.0537H449.498C449.498 57.9243 448.99 57.2707 448.038 57.2705ZM465.486 57.2705C464.663 57.2707 463.937 57.9 463.808 59.0537H466.947C466.947 57.9241 466.438 57.2705 465.486 57.2705ZM26.7519 49.0703C26.7519 53.0169 29.5203 56.3099 33.2167 57.125V44.8574H27.1552V41.29H33.2167V36.4395H26.7519V49.0703ZM36.7841 41.29H42.8447V44.8574H36.7841V57.125C40.4803 56.3097 43.248 53.0168 43.248 49.0703V36.4395H36.7841V41.29ZM169.612 53.5166C170.113 53.5166 170.492 53.84 170.492 54.3242C170.492 54.8083 170.113 55.1309 169.612 55.1309C169.112 55.1308 168.741 54.8002 168.741 54.3242C168.741 53.84 169.112 53.5167 169.612 53.5166ZM182.47 53.5166C182.97 53.5168 183.349 53.8401 183.349 54.3242C183.348 54.8082 182.97 55.1307 182.47 55.1309C181.969 55.1309 181.598 54.8003 181.598 54.3242C181.598 53.84 181.969 53.5166 182.47 53.5166ZM217.537 53.5166C218.037 53.5168 218.416 53.8401 218.416 54.3242C218.416 54.8082 218.037 55.1307 217.537 55.1309C217.037 55.1309 216.665 54.8003 216.665 54.3242C216.665 53.84 217.037 53.5166 217.537 53.5166ZM243.403 53.5166C243.904 53.5166 244.283 53.84 244.283 54.3242C244.283 54.8083 243.904 55.1309 243.403 55.1309C242.903 55.1308 242.532 54.8002 242.532 54.3242C242.532 53.84 242.903 53.5167 243.403 53.5166ZM389.84 53.5166C390.34 53.5168 390.719 53.8401 390.719 54.3242C390.719 54.8082 390.34 55.1307 389.84 55.1309C389.339 55.1309 388.968 54.8003 388.968 54.3242C388.968 53.84 389.339 53.5166 389.84 53.5166ZM53.2324 46.7871C53.0225 46.6741 52.7558 46.7465 52.6347 46.9482C51.1499 49.5227 52.7475 53.5336 53.248 54.6475C53.3286 54.8249 53.5222 54.93 53.7158 54.9141L53.7079 54.9219C60.6401 54.2198 61.6497 50.4676 61.787 49.0791C61.8193 48.7966 61.5849 48.562 61.3105 48.5781C57.7111 48.8123 55.6288 51 55.6288 51C55.4675 48.3131 53.9509 47.1829 53.2324 46.7871ZM17.3652 46.9404C17.2442 46.7388 16.9783 46.6656 16.7685 46.7783C16.0502 47.1738 14.5325 48.3119 14.371 50.9912C14.3463 50.9652 12.2753 48.803 8.68939 48.5703C8.41511 48.5542 8.18886 48.7961 8.21283 49.0703L8.20502 49.0625C8.34222 50.4507 9.35133 54.2122 16.2841 54.9062C16.4777 54.9223 16.6712 54.817 16.7519 54.6396C17.2442 53.5259 18.85 49.515 17.3652 46.9404ZM43.7812 44.3975L48.7451 51.1611L48.4785 51.5811L43.7812 45.2373V46.6094L48.5585 53.1064C48.9459 52.033 49.4306 51.4193 49.8261 51.0723L43.7812 42.8477V44.3975ZM20.1826 51.0645C20.5779 51.4115 21.0619 52.0248 21.4492 53.0977L26.2275 46.6006V45.2285L21.5302 51.5723L21.2636 51.1533L26.2275 44.3896V42.8398L20.1826 51.0645ZM61.6816 41.2344C61.7058 40.8874 61.343 40.6446 61.0283 40.7979C60.1728 41.2095 58.655 42.2351 57.3798 44.624C57.3798 44.624 56.3308 42.8477 54.079 41.7178C53.7563 41.5487 53.3768 41.7913 53.4091 42.1543C53.5222 43.4942 54.0876 46.4235 56.7265 49.2158C56.8555 49.361 57.0734 49.4018 57.2509 49.3213C58.2436 48.8693 61.3103 47.0285 61.6816 41.2256V41.2344ZM8.97162 40.7822C8.65688 40.629 8.29409 40.8708 8.3183 41.2178C8.68954 47.0204 11.7561 48.8604 12.749 49.3125C12.9264 49.3932 13.1362 49.3531 13.2734 49.208C15.9125 46.4155 16.4778 43.4853 16.5908 42.1455C16.6227 41.7907 16.2435 41.5487 15.9208 41.71C13.6875 42.8306 12.6371 44.5866 12.6201 44.6152C11.3449 42.2345 9.83517 41.2097 8.97162 40.79V40.7822ZM193.954 31.9619C194.254 31.6641 196.287 32.4875 197.037 32.5439C199.063 32.6973 200.984 32.2292 202.985 33.0928C203.179 34.303 201.96 34.82 201.299 35.627L201.29 35.6104C201.274 36.482 206.432 37.1112 207.497 37.0225C208.248 39.7262 205.204 38.734 203.275 38.1367C202.428 37.8784 201.5 36.8935 201.008 37.0225C200.088 37.2727 200.249 39.0809 199.87 39.8477C199.733 40.1221 195.915 43.9556 195.648 44.0928C194.744 44.5526 190.863 44.5371 189.709 44.3838C187.699 44.1094 188.377 42.0108 188.312 40.4209C189.983 40.2514 191.613 42.2445 193.074 42.1396C195.076 41.9944 199.385 39.6297 198.466 37.0391L191.129 38.1689V35.917C192.17 35.7233 197.045 36.1833 197.344 35.917C197.44 35.8277 197.279 34.6748 197.344 34.2227C195.867 34.9973 192.687 33.2128 193.954 31.9619ZM222.428 20.249V44.1797H221.62V20.249H222.428ZM255.534 39.7031H251.04C253.697 40.5799 256.545 41.6615 258.294 42.5117L256.123 43.835C254.541 42.9795 251.821 41.817 249.158 40.9131L250.659 39.6943H242.919L245.066 40.6797C242.968 41.9468 239.731 43.1896 237.141 43.916C236.729 43.4237 235.874 42.5432 235.357 42.1074C237.996 41.5909 241.031 40.7119 242.814 39.7031H238.65V29.291H255.534V39.7031ZM305.282 35.9092H292.49V37.4346H306.662V43.8594H304.281V43.1084H292.498V43.9072H290.06V30.4941H305.282V35.9092ZM281.537 25.0859C281.429 33.3532 281.537 40.7703 282.603 41.0811C282.757 41.1272 282.942 39.4498 283.015 37.7158C283.378 38.3131 283.976 39.1925 284.339 39.5557C284.032 43.2278 282.966 44.0591 281.618 43.4941C279.108 42.6137 279.157 33.9374 279.182 23.793H275.348V31.0977H278.374V33.3252H275.348V43.8896H273.096V33.3252H269.884V31.0977H273.096V23.793H270.198V21.5176H281.595L281.537 25.0859ZM355.337 33.6797C353.836 34.85 351.818 35.956 349.849 36.8115V37.0215H359.921V38.9902H349.849V41.4766C349.849 42.6145 349.59 43.1875 348.686 43.4941C347.75 43.8331 346.435 43.833 344.417 43.833C344.288 43.2116 343.949 42.3559 343.643 41.791C345.071 41.8394 346.573 41.8398 346.96 41.8398C347.371 41.8398 347.5 41.7344 347.5 41.3955V38.9902H336.888V37.0215H347.5V36.085C348.638 35.6169 349.906 34.996 350.995 34.3262H341.722V32.5664H353.448L353.965 32.4375L355.337 33.6797ZM380.97 21.9473C378.871 22.827 376.313 23.6338 373.56 24.3037L375.086 25.2646C373.504 26.4832 371.825 27.5964 370.114 28.5244L375.627 28.2666C376.587 27.6209 377.54 26.919 378.452 26.2168L380.292 27.7988C377.136 30.0748 373.819 31.9955 370.502 33.5693L379.8 32.9473C379.13 32.1484 378.379 31.3661 377.726 30.6963L379.694 29.7109C381.583 31.4704 383.762 33.8515 384.844 35.4092L382.802 36.6758C382.463 36.1835 382.003 35.5379 381.454 34.8682L375.191 35.3369H375.199V41.1641C375.199 42.4067 374.916 43.0763 373.956 43.4395C373.02 43.8026 371.648 43.8271 369.76 43.8271C369.631 43.1574 369.243 42.1164 368.855 41.4707C370.308 41.5514 371.784 41.5508 372.221 41.5186C372.632 41.4944 372.737 41.3897 372.737 41.1074V35.5381C366.241 36.0546 365.175 36.2158 364.376 36.5225C364.271 36.0541 363.908 34.917 363.65 34.2715C364.554 34.1423 365.644 33.7544 367.169 33.0039C368.105 32.5923 369.994 31.6557 372.165 30.3887C367.089 30.7276 366.233 30.8568 365.643 31.0908C365.538 30.5983 365.199 29.437 364.917 28.8398C365.563 28.7349 366.184 28.4525 367.04 27.9844C367.871 27.5969 370.196 26.2485 372.165 24.6426C369.397 25.264 366.442 25.8051 363.698 26.249C363.617 25.6277 363.254 24.7239 363.028 24.1992C368.855 23.2388 375.433 21.7373 379.21 20.0586L380.97 21.9473ZM268.988 42.3799H263.524V43.542H261.636V34.7939H268.988V42.3799ZM90.7451 23.1094C89.9945 20.4137 94.5384 19.0009 95.1357 21.0186C95.5715 22.4793 94.885 23.343 94.7236 24.4648C94.4736 26.1757 98.3802 25.9422 99.4374 25.7646C100.363 25.6117 100.766 24.6971 101.56 24.7314C102.24 24.7722 105.216 25.3853 105.353 26.0469C105.24 27.4995 103.771 28.4278 103.344 29.6787C103.029 30.5987 103.142 31.5994 102.835 32.5518C101.786 35.804 98.9451 33.2941 96.5966 33.6328C94.3611 33.9556 95.7084 35.3925 95.7812 36.7402C95.8538 38.0558 95.9988 41.2926 95.7001 42.3418C95.3688 43.4875 92.5686 43.4637 92.3749 43.2539C91.689 42.5114 93.4888 35.797 92.9404 34.2227C92.779 34.0451 88.8562 34.6989 88.2509 34.8926C87.1129 35.2562 85.2649 38.4027 83.6025 35.9414C82.3757 34.1255 84.6112 32.2285 84.4902 30.582C84.3284 28.4759 81.5201 27.6042 82.2138 25.1914H91.8105C92.1333 24.1343 90.9552 23.8596 90.7451 23.1094ZM128.218 37.0381C130.647 36.6833 130.485 42.9142 130.186 43.2451C130.07 43.3653 128.476 43.1566 127.935 43.2451C128.549 41.0983 126.305 38.6038 128.218 37.0381ZM333.877 32.9316H328.47V35.5947H334.216V37.7744H328.47V40.8574H335.039V43.0605H318.494V40.8574H326V37.7744H320.383V35.5947H326V32.9316H320.616V21.2773H333.877V32.9316ZM370.276 37.459C368.751 39.4525 366.466 41.5748 364.529 42.8984C364.061 42.4303 363.076 41.6561 362.455 41.293C364.448 40.155 366.547 38.3145 367.839 36.6035L370.276 37.459ZM379.033 36.3213C381.026 37.7417 383.592 39.8157 384.884 41.2119L382.786 42.665C381.624 41.2689 379.105 39.0898 377.088 37.5645L379.033 36.3213ZM10.0126 33.5986C9.7866 33.3731 9.39183 33.5025 9.3515 33.8252H9.35931C8.64124 39.8529 11.61 42.016 12.3935 42.4766C12.5065 42.5411 12.6445 42.5418 12.7656 42.4854C16.6475 40.5645 17.8014 37.6502 18.1161 36.4961C18.1885 36.246 17.9944 35.9878 17.7363 36.0039C14.8149 36.1494 13.0634 38.3369 13.0634 38.3369C12.4985 36.295 10.8762 34.4622 10.0126 33.5986ZM60.6572 33.8252C60.6168 33.5024 60.2211 33.3728 59.9951 33.5986C59.1315 34.4703 57.5092 36.3031 56.9443 38.3369C56.9443 38.3369 55.193 36.1492 52.2714 36.0039C52.0133 35.9878 51.8281 36.246 51.8925 36.4961C52.2073 37.6502 53.353 40.5645 57.2431 42.4854C57.3641 42.5418 57.5013 42.5411 57.6142 42.4766C58.3971 42.0165 61.3675 39.8538 60.6494 33.8252H60.6572ZM133.012 37.04C134.222 36.8383 134.763 38.2257 135.788 38.4678C136.522 38.6452 138.209 37.9678 139.218 38.7422C140.251 39.5331 138.822 39.7513 138.491 39.9854C133.972 43.2295 132.77 43.3185 133.012 37.04ZM122.858 20.1143C127.216 19.2266 125.724 22.2764 126.248 22.9307C126.434 23.1566 131.284 22.9712 132.188 22.9551C134.117 22.9228 134.859 21.5185 134.706 25.1904C130.025 24.8999 125.724 25.3526 121.172 26.3291L121.18 26.3447C121.624 29.7263 119.888 40.4198 116.289 41.4854C115.466 41.7275 112.81 41.7603 112.124 41.3164C110.486 40.2672 112.528 38.3056 112.714 37.0547C113.408 37.0631 114.376 38.7401 114.683 38.7412C114.844 38.7412 116.701 36.8291 116.919 36.4658C118.404 33.9397 118.524 30.0165 118.371 27.1514C118.306 26.0619 117.508 24.8351 117.807 23.8184C118.444 21.6722 121.317 25.1094 123.439 23.7939C124.908 22.882 122.576 21.349 122.858 20.1143ZM120.034 38.7324C121.834 39.3051 124.933 36.1183 125.143 39.0156C125.4 42.5664 120.349 42.1866 120.034 38.7324ZM160.645 21.8252C161.654 23.9074 160.977 25.344 160.67 27.4424C162.647 27.9751 168.37 25.6506 169.653 26.9258C169.75 27.0256 169.774 29.0609 169.693 29.1367C169.427 29.3869 163.448 28.661 162.357 29.1367C162.204 31.3078 163.665 32.6964 165.352 33.7617C166.313 34.3755 172.607 37.3445 173.478 37.5303C174.721 37.7965 175.738 36.9498 176.174 37.0381L176.198 37.0225C177.538 37.2888 176.513 38.9839 175.899 39.5488C175.487 39.9367 173.181 41.3963 172.736 41.4453C168.572 41.9376 163.527 32.5506 160.395 32.4941C158.749 32.4621 159.177 34.3425 158.701 35.3271C158.604 35.5128 156.876 37.797 156.739 37.8857C156.318 38.1604 151.544 39.217 150.76 39.29C148.823 39.4676 147.45 36.57 147.7 34.7783C151.945 35.9163 157.167 35.9484 157.861 30.541C157.99 29.5325 157.869 29.6777 156.998 29.6777C155.618 29.6777 149.621 31.5016 150.009 28.9189C150.509 25.5701 155.916 28.12 158.418 27.4346C158.708 26.3774 157.604 26.1266 157.386 25.3682C156.514 22.3821 157.765 21.6477 160.645 21.8252ZM319.495 23.9736H316.621V29.1221H319.083V31.3496H316.621V37.2012C317.501 36.9187 318.438 36.628 319.317 36.3213L319.728 38.5977L319.736 38.6055C316.912 39.5901 313.909 40.5991 311.577 41.3496L311.004 38.8877C311.932 38.6294 313.078 38.3151 314.321 37.9277V31.3496H311.529V29.1221H314.321V23.9736H311.263V21.7461H319.495V23.9736ZM292.498 41.2686H304.281V39.251H292.498V41.2686ZM263.524 40.4434H267.075V36.7393H263.524V40.4434ZM240.975 38.1611H253.121V36.6602H240.975V38.1611ZM128.201 26.8613C129.67 26.7564 130.574 27.2083 131.704 27.2891C132.543 27.3536 133.076 26.6111 134.142 27.1357C136.337 28.2172 134.641 29.7506 134.432 30.7998H134.424C134.238 31.6956 134.311 35.7305 134.134 35.917C131.608 36.03 129.025 35.7554 126.499 35.8926C125.579 35.941 124.392 36.6431 123.706 36.4736C122.173 36.0943 123.948 33.8668 123.94 32.8096C123.924 31.5667 122.69 29.388 123.666 27.9756C123.948 27.564 127.361 26.918 128.201 26.8613ZM58.5829 26.8838C58.5183 26.6258 58.2119 26.5132 57.9941 26.6582V26.666C57.187 27.2068 55.572 28.7082 55.4267 32.0576C55.4118 32.0387 53.647 29.8071 50.7538 30.1768C50.5119 30.2092 50.3665 30.4597 50.4472 30.6855C50.875 31.8558 52.3924 35.0598 56.4921 36.2705C56.6374 36.3109 56.8074 36.2705 56.9042 36.1494C57.5741 35.3423 59.9469 32.0248 58.5829 26.8838ZM11.998 26.6582C11.7802 26.5132 11.4738 26.6258 11.4091 26.8838V26.876C10.0452 32.0171 12.418 35.3345 13.0878 36.1416C13.1847 36.2625 13.3467 36.303 13.4999 36.2627C17.5994 35.0521 19.117 31.8482 19.5449 30.6777C19.6255 30.4519 19.4801 30.2014 19.2382 30.1689C16.3327 29.7977 14.5654 32.0498 14.5654 32.0498C14.4201 28.7004 12.8051 27.1989 11.998 26.6582ZM32.2968 34.1475L30.9892 35.9238H32.1269L33.1113 34.584H33.7167L32.7245 35.9238H33.749L34.7333 34.584H35.1288L36.1142 35.9238H37.1464L36.1542 34.584H36.7597L37.7441 35.9238H38.8818L37.5742 34.1475V32.7842H32.2968V34.1475ZM200.733 35.3438C200.999 32.9875 198.062 33.5524 198.481 35.0615C198.82 36.2802 199.846 35.4002 200.733 35.3438ZM240.975 35.1836H253.121V33.7305H240.975V35.1836ZM198.199 20.0898C200.249 19.7913 199.547 20.6636 199.611 22.3584C200.152 22.2858 200.838 22.4714 201.307 22.3584C201.371 22.3415 201.597 21.8573 202.145 21.8008C203.711 21.6394 205.374 21.8976 206.948 21.8008C206.851 23.3019 205.528 23.8511 205.269 25.4814C205.068 26.7485 204.841 28.5161 205.866 29.3877C206.019 29.4765 206.189 29.573 206.375 29.7021C208.263 29.7425 209.668 29.3236 208.086 31.6963C207.779 32.1562 207.029 32.5918 206.649 33.084C204.825 33.3261 207.384 31.4779 205.463 30.8887C201.419 31.2599 195.882 30.1784 192.049 30.7998C191.395 30.9061 190.475 35.1822 188.32 34.2139V28.5723C189.531 28.2494 189.887 29.0083 190.589 29.4199C191.129 29.7342 191.565 29.1695 191.662 28.8145C191.896 27.9185 191.807 25.401 191.598 24.4404C191.355 23.359 189.821 22.1804 190.007 21.5186C190.289 20.5097 193.728 20.4528 194.802 20.0977C195.843 22.0102 194.777 22.3256 193.397 23.2051L195.092 23.4883C195.212 24.634 193.421 25.3198 193.389 25.457C192.864 27.7487 194.656 26.5308 195.092 26.8691C196.407 27.8859 194.067 27.9669 193.994 28.0234C193.712 28.2413 194.05 29.1212 194.518 29.4199C195.447 30.0091 196.94 29.0732 198.199 29.0732C200.047 29.0652 202.445 29.622 204.688 29.6865C203.849 27.4993 202.38 28.2172 200.741 27.9912C199.886 27.8782 198.74 27.4507 198.199 27.4668C197.642 27.4749 196.504 28.2495 196.229 27.9912C195.262 27.0954 197.925 26.28 197.925 26.0137C197.763 24.7952 196.206 23.9156 196.206 22.6406C196.206 22.1887 197.037 22.5192 197.384 22.0029C197.731 21.4783 197.699 20.1625 198.199 20.0898ZM132.446 33.3584C133.132 31.1714 125.806 31.9455 125.11 32.5186C124.787 32.793 125.336 33.9317 126.03 34.1416C127.047 34.4564 132.075 34.5365 132.446 33.3662V33.3584ZM345.007 21.7354C343.893 22.1469 342.497 22.5101 341.197 22.7441L341.277 23.7773H344.829V25.3271H341.358L341.439 26.5215H344.934V28.0469C345.66 27.708 346.435 27.2961 347.104 26.8281C346.564 26.4892 345.967 26.1498 345.418 25.8916L346.58 24.8828C347.153 25.1653 347.799 25.504 348.396 25.8672C348.864 25.4557 349.252 25.0363 349.559 24.6006L351.188 25.1172C350.777 25.6579 350.309 26.1747 349.768 26.6992C350.47 27.1672 351.036 27.6029 351.479 28.0225L350.261 29.1357C349.849 28.7242 349.252 28.2569 348.525 27.7646C347.775 28.3618 346.943 28.8542 346.192 29.29H355.232C355.257 28.9026 355.313 28.5144 355.361 28.0947H351.915V26.5137H355.466L355.571 25.3184H352.052V23.7695H355.676L355.725 22.5986H351.915V21.0166H358.081C357.952 23.6315 357.718 26.9491 357.508 29.2734H359.477V34.2207H357.097V31.0889H339.672V34.2529H337.395V29.3057H339.365L338.896 21.6387C340.398 21.3804 342.626 20.7341 343.974 20.3145L345.007 21.7354ZM292.498 34.126H302.958V32.3096H292.498V34.126ZM268.988 33.1631H261.636V31.2988H268.988V33.1631ZM240.975 32.2861H253.121V30.8086H240.975V32.2861ZM91.8505 28.2578C91.2046 27.8464 88.9853 27.8544 88.2187 28.0723C86.7499 28.4921 86.0967 32.3172 90.4306 31.9863V31.9785C92.8918 31.7927 93.0611 29.0406 91.8505 28.2578ZM34.9843 28.8291C34.1531 28.8291 33.4825 29.4989 33.4824 30.3301C33.4824 31.1614 34.153 31.8311 34.9843 31.8311C35.8154 31.8308 36.4853 31.1612 36.4853 30.3301C36.4852 29.499 35.8153 28.8293 34.9843 28.8291ZM298.043 25.2969C298.454 25.894 298.841 26.6444 299.1 27.2656H308.446V31.6396H306.009V29.1543H289.439V31.6396H287.139V27.2656H296.671C296.437 26.7491 296.178 26.2003 295.92 25.7402L298.043 25.2969ZM23.7167 31.6299H33.1279C32.8696 31.2586 32.7158 30.8143 32.7158 30.3301C32.7158 29.846 32.8697 29.4024 33.1279 29.0312H23.7167V31.6299ZM36.832 29.0312C37.0901 29.4024 37.244 29.846 37.2441 30.3301C37.2441 30.8143 37.0902 31.2586 36.832 31.6299H46.1542V29.0312H36.832ZM100.285 28.0078C99.3974 28.1611 95.4105 27.7981 95.2001 28.0078C95.0307 28.1773 95.3211 30.6951 95.2001 31.3975C98.7028 31.4378 100.527 32.3257 100.285 28.0078ZM328.252 30.8896H331.568V28.041H328.252V30.8896ZM322.82 30.8818H326.21V28.0332H322.82V30.8818ZM132.446 29.1455C132.169 28.9115 125.869 28.6619 125.676 30.2676C127.637 30.2031 129.638 30.3644 131.607 30.2676V30.2754C132.527 30.2269 133.197 29.7831 132.446 29.1455ZM268.964 29.7734H261.636V27.8848H268.964V29.7734ZM15.3642 20.7422C15.1221 20.4436 14.6459 20.5248 14.5087 20.8799V20.8877C13.968 22.3486 13.0637 25.843 15.162 29.3457C15.2508 29.491 15.4047 29.5879 15.5742 29.5879C16.5594 29.612 20.0374 29.434 22.2646 25.835C22.4663 25.5041 22.2562 25.0767 21.8769 25.0605C20.9407 25.0283 19.2621 25.1406 17.3495 26.0605C17.3457 26.0256 16.9777 22.7331 15.3642 20.7422ZM55.4921 20.8799C55.355 20.5168 54.8788 20.4438 54.6367 20.7422V20.7344C53.0144 22.7359 52.6503 26.0527 52.6503 26.0527C50.7377 25.1328 49.0591 25.0195 48.123 25.0518C47.7357 25.068 47.5335 25.5044 47.7353 25.8271C49.9548 29.4267 53.434 29.6043 54.4267 29.5801C54.5959 29.58 54.7491 29.4829 54.8378 29.3379C56.944 25.8437 56.041 22.341 55.4921 20.8799ZM341.617 29.3057H346.048C345.79 28.9668 345.192 28.3697 344.829 28.1113H341.568L341.617 29.3057ZM248.27 20.4785C248.117 20.9142 247.956 21.3338 247.778 21.7695H255.856L256.195 21.665L257.851 22.2051C257.205 23.5771 256.325 25.0786 255.599 26.0391L253.71 25.3613C254.049 24.8932 254.437 24.2228 254.8 23.5771H251.2V23.9971C251.2 24.1826 251.2 24.3842 251.151 24.6182C252.548 26.0386 255.316 26.9191 258.738 27.1289C258.27 27.6212 257.68 28.4762 257.446 29.0977C254.493 28.686 252.136 27.7501 250.506 26.249C249.57 27.4434 247.527 28.5495 243.072 29.1709C242.838 28.6302 242.298 27.8226 241.854 27.3867H235.276V25.498H242.782V27.209C248.399 26.4827 248.997 25.0304 248.997 23.9248V23.585H246.85C246.277 24.5131 245.631 25.3446 244.961 25.9902C244.573 25.6512 243.694 25.0297 243.145 24.7715C244.493 23.6093 245.55 21.8175 246.123 20.0098L248.27 20.4785ZM41.997 19.3057C40.6413 19.3058 39.479 20.1294 38.9706 21.3076C38.8093 21.2834 38.6476 21.2588 38.4863 21.2588C38.3251 21.2588 38.164 21.2834 38.0029 21.3076C37.5025 20.1293 36.3314 19.3057 34.9755 19.3057C33.6198 19.3058 32.4576 20.1294 31.9492 21.3076C31.7878 21.2834 31.6262 21.2588 31.4648 21.2588C31.3035 21.2588 31.1417 21.2834 30.9804 21.3076C30.48 20.1293 29.3099 19.3057 27.954 19.3057C26.1302 19.3058 24.6533 20.7826 24.6533 22.6064C24.6533 24.4304 26.1382 25.9071 27.954 25.9072C28.1154 25.9072 28.2771 25.8836 28.4384 25.8594C28.9388 27.0375 30.1091 27.8602 31.4648 27.8604C32.8205 27.8604 33.9826 27.0375 34.4911 25.8594C34.6525 25.8836 34.8142 25.9072 34.9755 25.9072C35.1369 25.9072 35.2986 25.8836 35.4599 25.8594C35.9603 27.0375 37.1306 27.8602 38.4863 27.8604C39.8421 27.8604 41.0051 27.0377 41.5136 25.8594C41.6747 25.8835 41.8279 25.9072 41.997 25.9072C43.821 25.9072 45.2988 24.4304 45.2988 22.6064C45.2987 20.7825 43.8129 19.3057 41.997 19.3057ZM203.558 23.7705C203.549 22.1644 202.266 23.1408 201.298 22.9229C199.829 23.6979 199.208 26.361 200.733 27.4424L204.123 26.8779C204.446 24.6666 203.824 25.1503 201.863 25.1826C201.282 23.3024 203.557 24.4723 203.558 23.7705ZM302.474 20.4697C302.288 20.9378 302.086 21.3737 301.852 21.8418H309.357V23.7383H304.281C305.161 24.4162 306.145 25.2399 306.638 25.8613L305.032 27.2334C304.459 26.5312 303.216 25.4254 302.264 24.6426L303.377 23.7383H300.714C300.141 24.5372 299.495 25.2395 298.874 25.8125C298.486 25.4251 297.606 24.6993 297.058 24.3604C298.43 23.2708 299.625 21.6406 300.27 19.9297L302.474 20.4697ZM31.7392 22.043C31.7069 22.2204 31.6835 22.406 31.6835 22.5996C31.6835 23.9797 32.5386 25.1581 33.7411 25.6504C33.3295 26.4978 32.4656 27.0869 31.4648 27.0869C30.4642 27.0867 29.6009 26.4977 29.1894 25.6504C30.3919 25.1581 31.247 23.9797 31.247 22.5996C31.247 22.414 31.2226 22.2285 31.1904 22.043C31.279 22.0349 31.3681 22.0186 31.4648 22.0186C31.5615 22.0186 31.6506 22.0349 31.7392 22.043ZM38.7695 22.043C38.7372 22.2205 38.7128 22.406 38.7128 22.5996C38.7128 23.9796 39.5681 25.158 40.7704 25.6504C40.3588 26.4977 39.4957 27.0868 38.4951 27.0869C37.4943 27.0869 36.6303 26.4978 36.2187 25.6504C37.4212 25.1581 38.2773 23.9797 38.2773 22.5996C38.2773 22.4141 38.2529 22.2285 38.2206 22.043C38.3094 22.0349 38.3983 22.0186 38.4951 22.0186C38.5918 22.0186 38.6807 22.0349 38.7695 22.043ZM291.86 20.5186C291.675 20.9542 291.473 21.398 291.239 21.8418H297.43V23.7305H293.079C293.83 24.3519 294.58 25.1028 295.024 25.6436L293.467 26.9912C292.999 26.3213 291.941 25.2557 291.109 24.5293L292.07 23.7305H290.157L290.142 23.7383C289.343 25.0296 288.381 26.1437 287.477 27.0234C287.138 26.6359 286.316 25.8287 285.848 25.4414C287.405 24.0936 288.85 21.9957 289.682 19.8975L291.86 20.5186ZM264.969 19.9834C265.614 21.073 266.389 22.4459 266.752 23.374L265.041 24.4385H269.884V26.3516H260.595V24.4385H264.993C264.606 23.4781 263.879 22.0015 263.233 20.9443L264.969 19.9834ZM322.82 26.1201H326.21V23.3271H322.82V26.1201ZM328.252 26.1201H331.568V23.3271H328.252V26.1201ZM27.954 20.0674C28.9548 20.0674 29.8188 20.6565 30.2304 21.5039C29.0279 21.9963 28.1728 23.1746 28.1728 24.5547C28.1728 24.7402 28.1962 24.9258 28.2285 25.1113C28.1398 25.1194 28.0507 25.1357 27.954 25.1357C26.5581 25.1355 25.4201 23.9975 25.4199 22.6016C25.4199 21.2055 26.558 20.0676 27.954 20.0674ZM34.9843 20.0674C35.985 20.0675 36.8481 20.6565 37.2597 21.5039C36.0574 21.9963 35.2021 23.1747 35.2021 24.5547C35.2021 24.7402 35.2265 24.9258 35.2587 25.1113C35.17 25.1194 35.0811 25.1357 34.9843 25.1357C34.8875 25.1357 34.7986 25.1194 34.7099 25.1113C34.7422 24.9339 34.7665 24.7482 34.7665 24.5547C34.7665 23.1746 33.9105 21.9962 32.7079 21.5039C33.1196 20.6565 33.9835 20.0674 34.9843 20.0674ZM42.0136 20.0674C43.4099 20.0674 44.5478 21.2053 44.5478 22.6016C44.5476 23.9976 43.4097 25.1357 42.0136 25.1357C41.9168 25.1357 41.8279 25.1194 41.7392 25.1113C41.7715 24.9339 41.7958 24.7482 41.7958 24.5547C41.7958 23.1748 40.9405 21.9963 39.7382 21.5039C40.1498 20.6565 41.0129 20.0674 42.0136 20.0674ZM30.456 22.2266C30.4802 22.3476 30.497 22.4686 30.497 22.5977C30.497 23.6387 29.8673 24.5263 28.9716 24.9219C28.9474 24.8009 28.9306 24.6799 28.9306 24.5508C28.9306 23.5098 29.5603 22.6221 30.456 22.2266ZM32.4824 22.2266C33.3781 22.6221 34.0077 23.5098 34.0078 24.5508C34.0078 24.6799 33.9829 24.8009 33.9667 24.9219C33.0711 24.5263 32.4413 23.6386 32.4413 22.5977C32.4413 22.4686 32.4662 22.3476 32.4824 22.2266ZM37.4863 22.2266C37.5105 22.3476 37.5263 22.4686 37.5263 22.5977C37.5263 23.6388 36.8968 24.5264 36.0009 24.9219C35.9767 24.8009 35.9609 24.6798 35.9609 24.5508C35.9609 23.5097 36.5904 22.622 37.4863 22.2266ZM39.5117 22.2266C40.4075 22.622 41.037 23.5097 41.037 24.5508C41.037 24.6798 41.0132 24.8009 40.997 24.9219C40.1012 24.5264 39.4716 23.6388 39.4716 22.5977C39.4716 22.4686 39.4955 22.3476 39.5117 22.2266ZM351.141 20.7744C350.753 21.2909 350.308 21.8075 349.792 22.2998C350.413 22.6872 350.954 23.0753 351.374 23.4385L350.18 24.5273L350.187 24.5361C349.8 24.1488 349.227 23.737 348.582 23.3174C347.856 23.858 347.081 24.3822 346.354 24.7373C346.072 24.479 345.45 23.8823 345.03 23.624C345.757 23.3173 346.508 22.8978 347.153 22.4297C346.637 22.123 346.063 21.8083 345.522 21.5742L346.685 20.5654C347.226 20.8236 347.847 21.138 348.42 21.4688C348.864 21.1056 349.219 20.6942 349.51 20.3311L351.141 20.7744ZM23.4745 18.1436C23.5068 17.724 23.0879 17.4256 22.6845 17.5625C19.1253 18.765 18.2452 22.2438 18.0273 23.9629C17.9711 24.4227 18.4554 24.7535 18.8749 24.5518C22.676 22.7359 23.3696 19.6125 23.4745 18.1436ZM47.3163 17.5625C46.9209 17.4253 46.493 17.7239 46.5253 18.1436C46.6303 19.6125 47.3247 22.744 51.1259 24.5518C51.5454 24.753 52.0287 24.4226 51.9726 23.9629C51.7547 22.2439 50.8672 18.7651 47.3163 17.5625ZM242.161 23.3516H235.817V21.5439H242.161V23.3516Z" fill="white"/>
</svg>
