<svg width="206" height="80" viewBox="0 0 206 80" fill="none" xmlns="http://www.w3.org/2000/svg">
<path d="M15.7889 36.0157C14.1959 36.0157 12.74 35.7217 11.4199 35.1337C10.0998 34.5457 8.95888 33.7184 7.99716 32.6488C7.03544 31.5807 6.2949 30.3264 5.77694 28.8901C5.25898 27.4523 5 25.883 5 24.1835V23.8153C5 22.127 5.25898 20.5661 5.77694 19.134C6.2949 17.7019 7.03264 16.4518 7.98876 15.3822C8.94488 14.3141 10.083 13.4825 11.4031 12.889C12.7246 12.2968 14.1805 12 15.7735 12C17.3666 12 18.8085 12.2968 20.1342 12.8904C21.4599 13.4839 22.6134 14.3141 23.5975 15.3836C24.5802 16.4532 25.339 17.7033 25.8737 19.1354C26.4085 20.5675 26.6758 22.1284 26.6758 23.8167V24.1849C26.6758 25.8844 26.4085 27.4523 25.8737 28.8901C25.339 30.3278 24.583 31.5807 23.6059 32.6488C22.6274 33.7184 21.4767 34.5457 20.151 35.1337C18.8253 35.7217 17.3722 36.0157 15.7903 36.0157H15.7889ZM15.7889 32.0875C17.039 32.0875 18.0945 31.7557 18.9555 31.0935C19.815 30.4314 20.4646 29.5088 20.9027 28.3287C21.3409 27.1472 21.5607 25.7668 21.5607 24.1849V23.7845C21.5607 22.2348 21.3381 20.8727 20.8957 19.6968C20.452 18.5208 19.7996 17.6025 18.9401 16.9389C18.0791 16.2768 17.0236 15.945 15.7735 15.945C14.5234 15.945 13.4329 16.274 12.6 16.9305C11.7657 17.5885 11.1469 18.5012 10.7409 19.6716C10.335 20.8419 10.132 22.2124 10.132 23.7831V24.1835C10.132 25.7654 10.3378 27.15 10.7493 28.3357C11.1609 29.5214 11.7853 30.444 12.6252 31.1005C13.4637 31.7585 14.5192 32.0861 15.7917 32.0861L15.7889 32.0875Z" fill="white"/>
<path d="M28.5502 41.382V39.1001C28.5502 38.8971 28.6986 38.725 28.9002 38.6942L30.4135 38.4674C30.6151 38.438 30.7635 38.2644 30.7635 38.0614V22.0715C30.7635 21.8657 30.6123 21.6921 30.4079 21.6641L28.6496 21.4261C28.4467 21.3981 28.2941 21.2245 28.2941 21.0188V18.7411C28.2941 18.5143 28.4775 18.3309 28.7042 18.3309H35.2109C35.4265 18.3309 35.6057 18.4975 35.6197 18.7131L35.7107 20.0164C35.7177 20.1186 35.8465 20.1522 35.9067 20.0696C36.3616 19.4522 36.8964 18.9665 37.5109 18.6123C38.2053 18.2119 39.0494 18.0117 40.0433 18.0117C41.4222 18.0117 42.6051 18.3911 43.5948 19.1499C44.5832 19.9086 45.3419 20.9698 45.871 22.3319C46.4002 23.694 46.6648 25.2843 46.6648 27.1014V27.4374C46.6648 29.1481 46.4002 30.6488 45.871 31.9423C45.3419 33.2359 44.5775 34.2382 43.578 34.948C42.5785 35.6591 41.3788 36.0147 39.9789 36.0147C39.0816 36.0147 38.2935 35.8509 37.6145 35.5261C37.0224 35.242 36.5016 34.8374 36.0522 34.3124C35.985 34.234 35.8605 34.2774 35.8605 34.3796V38.0628C35.8605 38.2644 36.0074 38.4366 36.2076 38.4688L37.6299 38.6914C37.8301 38.7222 37.9771 38.8943 37.9771 39.0973V41.382C37.9771 41.6088 37.7937 41.7922 37.5669 41.7922H28.9618C28.735 41.7922 28.5516 41.6088 28.5516 41.382H28.5502ZM38.4572 32.1047C39.5688 32.1047 40.3597 31.6876 40.8301 30.8546C41.3004 30.0202 41.5356 28.8821 41.5356 27.4402V27.1042C41.5356 26.0781 41.4292 25.1807 41.215 24.4108C41.0008 23.6408 40.6677 23.043 40.2127 22.6147C39.7577 22.1877 39.1628 21.9735 38.425 21.9735C37.8581 21.9735 37.3569 22.0995 36.9188 22.3501C36.5618 22.5545 36.2622 22.8386 36.0186 23.2012C35.9067 23.3678 35.8605 23.5694 35.8605 23.771V30.4444C35.8605 30.7104 35.9542 30.9694 36.1292 31.1696C36.3518 31.423 36.6178 31.6246 36.9258 31.7771C37.3695 31.9969 37.8791 32.1061 38.4572 32.1061V32.1047Z" fill="white"/>
<path d="M57.1667 36.015C55.4882 36.015 54.024 35.6496 52.7739 34.9174C51.5238 34.1853 50.5536 33.1801 49.8635 31.9034C49.1748 30.6267 48.829 29.1749 48.829 27.551V26.9253C48.829 25.1936 49.144 23.655 49.7753 22.3083C50.4053 20.9616 51.3138 19.9061 52.5009 19.1417C53.6866 18.3773 55.1089 18.0008 56.7649 18.012C58.3356 18.012 59.6613 18.3171 60.7406 18.9261C61.8199 19.5351 62.6403 20.4254 63.2016 21.5958C63.763 22.7661 64.0429 24.1898 64.0429 25.8683V28.1838C64.0429 28.4106 63.8596 28.594 63.6328 28.594H54.4957C54.2969 28.594 54.1374 28.7704 54.1681 28.9663C54.2591 29.5291 54.4383 30.0289 54.6889 30.4461C54.9941 30.9542 55.4154 31.3574 55.9558 31.657C56.4948 31.9566 57.1555 32.1064 57.9352 32.1064C58.715 32.1064 59.4989 32.0098 60.2199 31.818C60.8288 31.6556 61.4434 31.4176 62.0635 31.1026C62.2497 31.0088 62.4765 31.0858 62.5563 31.279L63.5516 33.7037C63.6342 33.9039 63.5712 34.1391 63.392 34.2609C62.7005 34.7326 61.8731 35.1316 60.91 35.4564C59.8041 35.8302 58.5554 36.0178 57.1667 36.0178V36.015ZM58.9124 25.3056C59.1279 25.3056 59.2987 25.1278 59.2959 24.9122C59.2861 24.2318 59.2413 23.7166 59.0664 23.1973C58.9096 22.7325 58.6548 22.3769 58.2964 22.1305C57.938 21.8841 57.4649 21.7624 56.8783 21.7624C56.2918 21.7624 55.7878 21.9121 55.4028 22.2117C55.0179 22.5113 54.7267 22.9229 54.5293 23.4465C54.3683 23.872 54.2409 24.397 54.1583 24.9346C54.129 25.1306 54.2857 25.307 54.4845 25.307H58.9138L58.9124 25.3056Z" fill="white"/>
<path d="M194.107 36.015C192.428 36.015 190.964 35.6496 189.714 34.9174C188.464 34.1853 187.494 33.1801 186.803 31.9034C186.115 30.6267 185.769 29.1749 185.769 27.551V26.9253C185.769 25.1936 186.084 23.655 186.715 22.3083C187.345 20.9616 188.254 19.9061 189.441 19.1417C190.627 18.3773 192.049 18.0008 193.705 18.012C195.276 18.012 196.601 18.3171 197.681 18.9261C198.76 19.5351 199.58 20.4254 200.142 21.5958C200.703 22.7661 200.983 24.1898 200.983 25.8683V28.1838C200.983 28.4106 200.8 28.594 200.573 28.594H191.436C191.237 28.594 191.077 28.7704 191.108 28.9663C191.199 29.5291 191.378 30.0289 191.629 30.4461C191.934 30.9542 192.355 31.3574 192.896 31.657C193.435 31.9566 194.095 32.1064 194.875 32.1064C195.655 32.1064 196.439 32.0098 197.16 31.818C197.769 31.6556 198.383 31.4176 199.003 31.1026C199.19 31.0088 199.416 31.0858 199.496 31.279L200.492 33.7037C200.574 33.9039 200.511 34.1391 200.332 34.2609C199.64 34.7326 198.813 35.1316 197.85 35.4564C196.744 35.8302 195.495 36.0178 194.107 36.0178V36.015ZM195.854 25.3056C196.069 25.3056 196.24 25.1278 196.237 24.9122C196.227 24.2318 196.183 23.7166 196.008 23.1973C195.851 22.7325 195.596 22.3769 195.238 22.1305C194.879 21.8841 194.406 21.7624 193.82 21.7624C193.233 21.7624 192.729 21.9121 192.344 22.2117C191.959 22.5113 191.668 22.9229 191.471 23.4465C191.31 23.872 191.182 24.397 191.1 24.9346C191.07 25.1306 191.227 25.307 191.426 25.307H195.855L195.854 25.3056Z" fill="white"/>
<path d="M65.8867 35.2686V33.0007C65.8867 32.7977 66.035 32.6255 66.2338 32.5947L67.6869 32.3707C67.8871 32.3399 68.0341 32.1677 68.0341 31.9647V22.0701C68.0341 21.8643 67.8829 21.6907 67.6785 21.6641L65.9357 21.4261C65.7327 21.3981 65.5801 21.2245 65.5801 21.0202V18.7425C65.5801 18.5157 65.7635 18.3323 65.9902 18.3323H72.5235C72.7405 18.3323 72.9211 18.5017 72.9337 18.7201L73.0331 20.4742C73.0387 20.5778 73.1689 20.6114 73.2291 20.5274C73.7722 19.7742 74.4232 19.1793 75.1833 18.7411C76.0274 18.2553 76.9892 18.0117 78.0685 18.0117C79.7357 18.0117 81.0502 18.5619 82.012 19.6636C82.9737 20.764 83.4552 22.5013 83.4552 24.8741V31.9661C83.4552 32.1691 83.6022 32.3413 83.8024 32.3721L85.2401 32.5961C85.4403 32.6269 85.5873 32.7991 85.5873 33.0021V35.27C85.5873 35.4967 85.4039 35.6801 85.1771 35.6801H76.8758C76.649 35.6801 76.4656 35.4967 76.4656 35.27V32.9937C76.4656 32.7949 76.6084 32.6255 76.803 32.5891L77.9705 32.3791C78.1665 32.3441 78.3078 32.1733 78.3078 31.9745V24.8741C78.3078 23.827 78.0965 23.0808 77.6751 22.6371C77.2523 22.1933 76.6406 21.9721 75.8399 21.9721C75.2407 21.9721 74.7199 22.0925 74.2762 22.3333C73.9584 22.5055 73.6784 22.7309 73.4348 23.0094C73.2585 23.211 73.1619 23.4714 73.1619 23.7388V31.9829C73.1619 32.1789 73.3005 32.3469 73.4922 32.3861L74.4988 32.5863C74.6905 32.6241 74.8291 32.7935 74.8291 32.9895V35.2728C74.8291 35.4995 74.6457 35.6829 74.419 35.6829H66.294C66.0672 35.6829 65.8839 35.4995 65.8839 35.2728L65.8867 35.2686Z" fill="white"/>
<path d="M98.0141 36.0162C95.7701 36.0162 93.792 35.5542 92.0828 34.6289C90.3721 33.7049 89.0422 32.382 88.0903 30.6615C87.1384 28.941 86.6638 26.8775 86.6638 24.4739V23.5597C86.6638 21.3044 87.1132 19.3081 88.0105 17.5722C88.9078 15.8349 90.1887 14.4728 91.8504 13.4845C93.5121 12.4961 95.4873 12.002 97.7733 12.002C99.3762 12.002 100.891 12.2217 102.319 12.6599C103.642 13.0659 104.853 13.7071 105.951 14.582C106.114 14.7122 106.206 14.9124 106.206 15.121V19.0352C106.206 19.2619 106.023 19.4453 105.796 19.4453H102.639C102.429 19.4453 102.252 19.2857 102.231 19.0758L102.067 17.4518C102.05 17.2867 101.962 17.1369 101.822 17.0487C101.493 16.8401 101.102 16.6217 100.772 16.4733C100.366 16.2913 99.9277 16.1527 99.4574 16.0561C98.987 15.9595 98.4789 15.9119 97.9343 15.9119C96.673 15.9119 95.5825 16.2171 94.6642 16.8261C93.7444 17.435 93.0347 18.3058 92.5321 19.4397C92.0296 20.5723 91.779 21.9358 91.779 23.5275V24.4739C91.779 26.0124 92.038 27.3577 92.5559 28.5056C93.0739 29.655 93.8088 30.5439 94.7608 31.1753C95.7113 31.8066 96.8186 32.1216 98.0799 32.1216C98.742 32.1216 99.4056 32.0488 100.068 31.9046C100.612 31.7856 101.206 31.6037 101.72 31.4119C101.916 31.3391 102.054 31.1655 102.078 30.9569L102.239 29.508C102.263 29.3008 102.438 29.1426 102.646 29.1426H105.813C106.04 29.1426 106.223 29.326 106.223 29.5528V33.3774C106.223 33.6125 106.108 33.8337 105.908 33.9569C105.044 34.4903 103.992 34.9551 102.751 35.3498C101.357 35.7936 99.778 36.0148 98.0141 36.0148V36.0162Z" fill="white"/>
<path d="M128.522 35.269V33.0011C128.522 32.7981 128.67 32.6259 128.87 32.5951L130.337 32.3711C130.538 32.3403 130.686 32.1681 130.686 31.9652V16.293C130.686 16.0872 130.533 15.9137 130.33 15.8857L128.558 15.6491C128.354 15.6225 128.203 15.4475 128.203 15.2417V12.9668C128.203 12.74 128.386 12.5566 128.613 12.5566H135.406C135.633 12.5566 135.816 12.74 135.816 12.9668V31.9666C135.816 32.1695 135.965 32.3417 136.164 32.3725L137.617 32.5965C137.817 32.6273 137.964 32.7995 137.964 33.0025V35.2704C137.964 35.4972 137.781 35.6805 137.554 35.6805H128.932C128.705 35.6805 128.522 35.4972 128.522 35.2704V35.269Z" fill="white"/>
<path d="M158.341 36.0139C156.535 36.0139 155.113 35.4399 154.077 34.2906C153.04 33.1413 152.522 31.3647 152.522 28.9597V22.0539C152.522 21.8551 152.379 21.6843 152.183 21.6493L150.985 21.4365C150.789 21.4015 150.646 21.2307 150.646 21.0319V18.7403C150.646 18.5135 150.829 18.3301 151.056 18.3301H157.241C157.467 18.3301 157.651 18.5135 157.651 18.7403V28.9905C157.651 30.0376 157.848 30.8104 158.244 31.3074C158.639 31.8043 159.244 32.0535 160.056 32.0535C160.612 32.0535 161.127 31.9471 161.603 31.7329C161.926 31.5873 162.217 31.3941 162.475 31.1548C162.695 30.9504 162.814 30.6578 162.814 30.3582V22.0567C162.814 21.8565 162.669 21.6857 162.472 21.6521L161.184 21.4337C160.987 21.4001 160.843 21.2293 160.843 21.0291V18.7403C160.843 18.5135 161.026 18.3301 161.253 18.3301H167.534C167.761 18.3301 167.944 18.5135 167.944 18.7403V31.9639C167.944 32.1669 168.091 32.3391 168.291 32.3699L169.729 32.5939C169.929 32.6247 170.076 32.7969 170.076 32.9999V35.2677C170.076 35.4945 169.893 35.6779 169.666 35.6779H163.728C163.518 35.6779 163.343 35.5197 163.32 35.3111L163.165 33.865C163.154 33.767 163.032 33.7362 162.972 33.8132C162.448 34.4866 161.821 35.0115 161.092 35.3881C160.284 35.8053 159.368 36.0139 158.342 36.0139H158.341Z" fill="white"/>
<path d="M115.504 36.0139C113.698 36.0139 112.276 35.4399 111.24 34.2906C110.203 33.1413 109.685 31.3647 109.685 28.9597V22.0539C109.685 21.8551 109.542 21.6843 109.346 21.6493L108.148 21.4365C107.952 21.4015 107.809 21.2307 107.809 21.0319V18.7403C107.809 18.5135 107.992 18.3301 108.219 18.3301H114.404C114.631 18.3301 114.814 18.5135 114.814 18.7403V28.9905C114.814 30.0376 115.012 30.8104 115.408 31.3074C115.802 31.8043 116.407 32.0535 117.219 32.0535C117.775 32.0535 118.29 31.9471 118.766 31.7329C119.089 31.5873 119.381 31.3941 119.638 31.1548C119.858 30.9504 119.977 30.6578 119.977 30.3582V22.0567C119.977 21.8565 119.833 21.6857 119.635 21.6521L118.347 21.4337C118.15 21.4001 118.006 21.2293 118.006 21.0291V18.7403C118.006 18.5135 118.189 18.3301 118.416 18.3301H124.697C124.924 18.3301 125.107 18.5135 125.107 18.7403V31.9639C125.107 32.1669 125.254 32.3391 125.455 32.3699L126.892 32.5939C127.093 32.6247 127.24 32.7969 127.24 32.9999V35.2677C127.24 35.4945 127.056 35.6779 126.829 35.6779H120.891C120.681 35.6779 120.506 35.5197 120.484 35.3111L120.328 33.865C120.317 33.767 120.195 33.7362 120.135 33.8132C119.612 34.4866 118.984 35.0115 118.255 35.3881C117.447 35.8053 116.532 36.0139 115.506 36.0139H115.504Z" fill="white"/>
<path d="M172.112 35.2672V32.9993C172.112 32.7963 172.259 32.6241 172.459 32.5933L173.896 32.3693C174.097 32.3385 174.244 32.1663 174.244 31.9633V22.0673C174.244 21.8615 174.092 21.6879 173.889 21.6613L172.162 21.4247C171.959 21.3967 171.808 21.2231 171.808 21.0188V18.7411C171.808 18.5143 171.991 18.3309 172.218 18.3309H178.723C178.943 18.3309 179.125 18.5031 179.136 18.7229L179.223 20.428C179.229 20.54 179.381 20.5736 179.429 20.4728C179.8 19.7042 180.241 19.1191 180.753 18.7173C181.352 18.2469 182.089 18.0117 182.965 18.0117C183.221 18.0117 183.512 18.0327 183.838 18.0761C184.037 18.1027 184.229 18.1363 184.415 18.1783C184.615 18.2231 184.744 18.4205 184.72 18.6249L184.274 22.5993C184.25 22.8149 184.062 22.973 183.847 22.9632L181.874 22.8694C181.254 22.8372 180.763 22.9226 180.399 23.1256C180.154 23.2628 179.919 23.449 179.692 23.6828C179.49 23.8914 179.373 24.17 179.373 24.4612V31.9661C179.373 32.1691 179.521 32.3413 179.72 32.3721L181.173 32.5961C181.373 32.6269 181.52 32.7991 181.52 33.0021V35.27C181.52 35.4967 181.337 35.6801 181.11 35.6801H172.52C172.294 35.6801 172.11 35.4967 172.11 35.27L172.112 35.2672Z" fill="white"/>
<path d="M5.27295 67.6612V65.6411L7.88654 65.4171V46.5798L5.27295 46.3558V44.3203H22.8275V49.9312H20.2951L20.1187 46.773H11.0433V54.8533H19.5882V57.3382H11.0433V65.4185L13.6569 65.6425V67.6626H5.27295V67.6612Z" fill="white"/>
<path d="M31.6916 67.9971C30.0887 67.9971 28.707 67.6206 27.5479 66.8674C26.3874 66.1142 25.4929 65.0713 24.8629 63.7414C24.2316 62.41 23.9166 60.8911 23.9166 59.1804V58.8276C23.9166 57.1183 24.2316 55.5966 24.8629 54.2667C25.4929 52.9354 26.3888 51.891 27.5479 51.1323C28.707 50.3735 30.0775 49.9941 31.6594 49.9941C33.2413 49.9941 34.644 50.3735 35.8031 51.1323C36.9622 51.891 37.8581 52.934 38.488 54.2583C39.118 55.584 39.4344 57.1071 39.4344 58.8276V59.1804C39.4344 60.9009 39.1194 62.4268 38.488 63.7582C37.8567 65.0895 36.965 66.1282 35.8115 66.8758C34.6566 67.6234 33.2833 67.9985 31.6916 67.9985V67.9971ZM31.6916 65.5277C32.6953 65.5277 33.538 65.2519 34.217 64.7017C34.8959 64.1515 35.4083 63.3984 35.7555 62.4408C36.1026 61.4847 36.2762 60.397 36.2762 59.179V58.8262C36.2762 57.6083 36.1026 56.5206 35.7555 55.5644C35.4083 54.6083 34.8917 53.8551 34.2086 53.3036C33.524 52.7534 32.6743 52.4776 31.6594 52.4776C30.6445 52.4776 29.8101 52.7534 29.127 53.3036C28.4425 53.8537 27.9301 54.6083 27.5885 55.5644C27.247 56.5206 27.0762 57.6083 27.0762 58.8262V59.179C27.0762 60.397 27.247 61.4847 27.5885 62.4408C27.9301 63.397 28.4467 64.1515 29.1354 64.7017C29.8241 65.2519 30.6767 65.5277 31.693 65.5277H31.6916Z" fill="white"/>
<path d="M49.5038 67.9978C47.6224 67.9978 46.1539 67.3945 45.0956 66.1863C44.0373 64.9782 43.5081 63.0981 43.5081 60.5433V52.5749L41.5203 52.3509V50.3154H46.6662V60.5755C46.6662 62.4248 46.9392 63.6959 47.4838 64.3916C48.0283 65.086 48.8781 65.4332 50.033 65.4332C51.1879 65.4332 52.0824 65.2064 52.8146 64.7514C53.5467 64.2978 54.0996 63.6539 54.4734 62.8195V52.5749L52.1482 52.3509V50.3154H57.6316V65.4178L59.6194 65.6418V67.6619H54.6904L54.5868 65.0972C54.0423 66.0267 53.3381 66.7435 52.4786 67.2461C51.6176 67.7487 50.6265 67.9992 49.5052 67.9992L49.5038 67.9978Z" fill="white"/>
<path d="M61.8314 67.6617V65.6416L64.445 65.4176V52.5761L61.8314 52.3522V50.3167H67.3778L67.4898 52.8981C68.0665 51.9798 68.7903 51.2658 69.6624 50.7577C70.5331 50.2495 71.5242 49.9961 72.6357 49.9961C74.506 49.9961 75.9549 50.5435 76.9796 51.6396C78.0057 52.7357 78.5181 54.4268 78.5181 56.7143V65.419L81.1317 65.643V67.6631H72.7477V65.643L75.3613 65.419V56.7773C75.3613 55.2486 75.0589 54.1637 74.4556 53.5225C73.8522 52.8813 72.9297 52.5608 71.6908 52.5608C70.7823 52.5608 69.9774 52.7805 69.2774 53.2187C68.5775 53.6569 68.0189 54.2561 67.6018 55.0148V65.419L70.2153 65.643V67.6631H61.8314V67.6617Z" fill="white"/>
<path d="M161.05 67.6617V65.6416L163.663 65.4176V52.5761L161.05 52.3522V50.3167H166.596L166.708 52.8981C167.285 51.9798 168.008 51.2658 168.881 50.7577C169.751 50.2495 170.742 49.9961 171.854 49.9961C173.724 49.9961 175.173 50.5435 176.198 51.6396C177.224 52.7357 177.736 54.4268 177.736 56.7143V65.419L180.35 65.643V67.6631H171.966V65.643L174.579 65.419V56.7773C174.579 55.2486 174.277 54.1637 173.674 53.5225C173.07 52.8813 172.148 52.5608 170.909 52.5608C170 52.5608 169.196 52.7805 168.496 53.2187C167.796 53.6569 167.237 54.2561 166.82 55.0148V65.419L169.433 65.643V67.6631H161.05V67.6617Z" fill="white"/>
<path d="M90.0153 67.9958C88.6042 67.9958 87.3947 67.6458 86.384 66.9458C85.3746 66.2459 84.6019 65.2701 84.0671 64.02C83.5324 62.7699 83.265 61.3112 83.265 59.6439V59.3079C83.265 57.4488 83.5324 55.8179 84.0671 54.4179C84.6019 53.018 85.376 51.9303 86.3924 51.1561C87.4073 50.382 88.6266 49.9942 90.0475 49.9942C91.0736 49.9942 91.9793 50.1846 92.7646 50.564C93.55 50.9433 94.2205 51.4907 94.7763 52.2075V46.5798L92.1627 46.3558V44.3203H97.9344V65.4185L100.548 65.6425V67.6626H95.0647L94.9359 65.5949C94.3689 66.3859 93.6774 66.985 92.8598 67.391C92.0423 67.797 91.0932 68 90.0139 68L90.0153 67.9958ZM90.816 65.4311C91.7567 65.4311 92.5477 65.2169 93.1888 64.79C93.83 64.363 94.3591 63.7582 94.7763 62.9785V54.9303C94.3703 54.2038 93.8412 53.627 93.1888 53.1986C92.5365 52.7716 91.7567 52.5575 90.8482 52.5575C89.8431 52.5575 89.0143 52.843 88.3634 53.4156C87.7111 53.9882 87.2253 54.7777 86.9047 55.7885C86.5841 56.7978 86.4232 57.9709 86.4232 59.3079V59.6439C86.4232 61.3868 86.7815 62.7867 87.4969 63.8436C88.2122 64.902 89.3195 65.4311 90.816 65.4311Z" fill="white"/>
<path d="M108.338 67.997C106.532 67.997 105.159 67.556 104.218 66.6741C103.278 65.7921 102.807 64.5504 102.807 62.9461C102.807 61.8457 103.11 60.8854 103.713 60.0678C104.316 59.2503 105.19 58.6147 106.334 58.1598C107.477 57.7062 108.845 57.478 110.438 57.478H113.532V55.7785C113.532 54.7313 113.214 53.9194 112.578 53.3412C111.943 52.7645 111.047 52.4761 109.893 52.4761C109.167 52.4761 108.536 52.5643 108.002 52.7407C107.467 52.917 106.826 53.2278 106.376 53.5904L106.208 55.8905H103.77V51.9147C104.55 51.2847 105.459 50.806 106.496 50.4798C107.532 50.1536 108.681 49.9912 109.942 49.9912C112.048 49.9912 113.7 50.4938 114.897 51.4975C116.094 52.5027 116.693 53.9404 116.693 55.8107V64.1626C116.693 64.3866 116.696 64.6064 116.701 64.8206C116.707 65.0348 116.726 65.312 116.747 65.5261L118.424 65.6381V67.6582H113.719C113.719 67.6582 113.579 66.4039 113.551 65.27C112.942 66.0497 112.181 66.6993 111.267 67.2172C110.353 67.7352 109.377 67.9942 108.341 67.9942L108.338 67.997ZM108.803 65.3512C109.85 65.3512 110.806 65.1006 111.673 64.598C112.538 64.0954 113.158 63.4921 113.532 62.7865V59.6437H110.326C108.873 59.6437 107.782 59.9908 107.056 60.6852C106.329 61.3796 105.965 62.1551 105.965 63.0105C105.965 63.7692 106.201 64.3488 106.671 64.7506C107.141 65.151 107.851 65.3512 108.803 65.3512Z" fill="white"/>
<path d="M126.999 67.9339C125.716 67.9339 124.699 67.5573 123.944 66.8041C123.191 66.051 122.814 64.8456 122.814 63.1895V52.6565H120.073V50.3159H122.814V45.9873H125.973V50.3159H129.74V52.6565H125.973V63.1895C125.973 64.0239 126.138 64.6385 126.47 65.0332C126.8 65.428 127.245 65.6268 127.801 65.6268C128.175 65.6268 128.564 65.6086 129.051 65.5764C129.514 65.547 129.835 65.5078 130.125 65.4602L130.521 67.5811C130.049 67.6959 129.541 67.7869 128.868 67.8457C128.091 67.9129 127.577 67.9353 127 67.9353L126.999 67.9339Z" fill="white"/>
<path d="M132.465 67.6607V65.6406L135.079 65.4166V52.5751L132.465 52.3511V50.3156H138.237V65.418L140.851 65.642V67.6621H132.467L132.465 67.6607ZM134.919 47.7006V44.3184H138.238V47.7006H134.919Z" fill="white"/>
<path d="M150.87 67.9971C149.267 67.9971 147.885 67.6206 146.726 66.8674C145.565 66.1142 144.671 65.0713 144.041 63.7414C143.41 62.41 143.095 60.8911 143.095 59.1804V58.8276C143.095 57.1183 143.41 55.5966 144.041 54.2667C144.671 52.9354 145.567 51.891 146.726 51.1323C147.885 50.3735 149.256 49.9941 150.837 49.9941C152.419 49.9941 153.822 50.3735 154.981 51.1323C156.14 51.891 157.036 52.934 157.666 54.2583C158.296 55.584 158.612 57.1071 158.612 58.8276V59.1804C158.612 60.9009 158.297 62.4268 157.666 63.7582C157.035 65.0895 156.143 66.1282 154.989 66.8758C153.835 67.6234 152.461 67.9985 150.87 67.9985V67.9971ZM150.87 65.5277C151.873 65.5277 152.716 65.2519 153.395 64.7017C154.074 64.1515 154.586 63.3984 154.933 62.4408C155.281 61.4847 155.454 60.397 155.454 59.179V58.8262C155.454 57.6083 155.281 56.5206 154.933 55.5644C154.586 54.6083 154.07 53.8551 153.387 53.3036C152.702 52.7534 151.852 52.4776 150.837 52.4776C149.822 52.4776 148.988 52.7534 148.305 53.3036C147.62 53.8537 147.108 54.6083 146.767 55.5644C146.425 56.5206 146.254 57.6083 146.254 58.8262V59.179C146.254 60.397 146.425 61.4847 146.767 62.4408C147.108 63.397 147.625 64.1515 148.313 64.7017C149.002 65.2519 149.855 65.5277 150.871 65.5277H150.87Z" fill="white"/>
<path d="M183.518 65.416V67.6601H200.631V65.416H183.518Z" fill="white"/>
<path d="M146.3 36.0298C144.59 36.0298 143.281 35.5678 142.372 34.6425C141.464 33.7185 141.01 32.2514 141.01 30.2411V22.3147C141.01 22.088 140.827 21.9046 140.6 21.9046H139.144C138.917 21.9046 138.734 21.7212 138.734 21.4944V18.7407C138.734 18.514 138.917 18.3306 139.144 18.3306H140.6C140.827 18.3306 141.01 18.1472 141.01 17.9204V14.4766C141.01 14.2498 141.194 14.0664 141.42 14.0664H145.697C145.924 14.0664 146.107 14.2498 146.107 14.4766V17.9204C146.107 18.1472 146.291 18.3306 146.517 18.3306H148.726C148.953 18.3306 149.137 18.514 149.137 18.7407V21.4944C149.137 21.7212 148.953 21.9046 148.726 21.9046H146.517C146.291 21.9046 146.107 22.088 146.107 22.3147V30.2243C146.107 30.8445 146.243 31.2854 146.516 31.5472C146.789 31.809 147.16 31.9406 147.63 31.9406C147.917 31.9406 148.28 31.9126 148.641 31.8706C148.852 31.8454 149.044 31.9994 149.065 32.2122L149.368 35.1716C149.393 35.4124 149.24 35.6378 149.006 35.698C148.649 35.7904 148.278 35.8688 147.895 35.922C147.363 35.9962 146.834 36.0298 146.3 36.0298Z" fill="white"/>
</svg>
