<svg width="189" height="80" viewBox="0 0 189 80" fill="none" xmlns="http://www.w3.org/2000/svg">
<path d="M26.3052 37.29C25.768 32.6053 22.8139 30.3076 17.3904 30.3076C12.6085 30.3076 9.54991 32.2472 9.54991 35.2013C9.54991 37.7003 11.4298 39.1774 15.9954 40.1397L21.7993 41.3631C26.0441 42.2807 28.1926 43.146 29.9084 44.6231C31.7883 46.2046 32.8103 48.4947 32.8103 51.143C32.8103 57.5659 27.3346 61.5345 18.6288 61.5345C9.33357 61.5345 3.746 57.0512 3 48.8976H8.31901C8.85613 54.2985 12.616 57.3048 18.7929 57.3048C23.9478 57.3048 27.6032 54.9102 27.6032 51.4936C27.6032 48.9423 25.6711 47.2639 21.9112 46.3985L13.8544 44.5634C7.29698 43.0863 4.34281 40.3337 4.34281 35.7458C4.34281 29.7854 9.54991 26.0107 17.7709 26.0107C25.9918 26.0107 30.3933 29.6288 31.5197 37.2677H26.3052V37.29Z" fill="white"/>
<path d="M44.6196 60.781H39.517V26.7939H44.6196V60.7736V60.781Z" fill="white"/>
<path d="M65.9403 60.781H60.8376V31.0237H49.6625V26.7939H77.1154V31.0237H65.9403V60.781Z" fill="white"/>
<path d="M105.747 37.4481C104.673 32.9647 101.077 30.2643 96.1311 30.2643C89.253 30.2643 84.7396 35.5608 84.7396 43.5652C84.7396 51.5696 89.253 57.3211 95.967 57.3211C101.555 57.3211 105.419 53.7553 106.225 47.8471H111.379C110.947 51.2115 110.141 53.3525 108.321 55.7471C105.367 59.6188 101.234 61.5583 95.8626 61.5583C90.4913 61.5583 86.2988 59.6188 83.2924 55.7471C80.7112 52.4349 79.3684 48.3096 79.3684 43.6696C79.3684 33.3303 86.2988 26.042 96.1311 26.042C103.755 26.042 109.186 30.1151 110.738 36.9931L105.74 37.4556L105.747 37.4481Z" fill="white"/>
<path d="M180.832 60.781L166.166 39.3339C164.39 36.6857 163.316 35.0072 162.458 33.478C162.563 35.0072 162.622 38.215 162.622 39.9009V60.7885H157.788V26.7939H162.995L177.073 47.4801C178.415 49.4197 180.243 52.4707 181.317 54.5147C181.213 52.6274 181.153 50.5386 181.153 48.144V27.0028H185.987V60.781H180.832Z" fill="white"/>
<path d="M140.369 11.6149C143.398 9.30231 146.994 10.1527 146.994 10.1527C146.994 10.1527 146.397 14.4496 143.368 16.7622C140.339 19.0747 136.035 18.5301 136.035 18.5301C136.035 18.5301 136.975 17.1128 137.907 15.2627C138.452 14.1885 139.25 12.4578 140.369 11.6074V11.6149Z" fill="white"/>
<path d="M133.103 15.1214C131.693 14.0397 130.015 14.4425 130.015 14.4425C130.015 14.4425 130.298 16.4492 131.708 17.5309C133.118 18.6126 135.132 18.359 135.132 18.359C135.132 18.359 134.692 17.695 134.259 16.8372C134.006 16.3299 133.633 15.5317 133.11 15.1289L133.103 15.1214Z" fill="white"/>
<path d="M133.446 25.3621C133.856 25.3621 134.274 25.377 134.684 25.4069C134.319 23.2062 134.386 20.916 135.52 18.9541C133.543 20.5505 132.581 22.9824 132.081 25.4218C132.536 25.392 132.991 25.3696 133.446 25.3696V25.3621Z" fill="white"/>
<path d="M133.446 26.1035C123.532 26.1035 115.497 34.1378 115.497 44.0519C115.497 53.9661 123.532 62.0003 133.446 62.0003C143.361 62.0003 151.395 53.9661 151.395 44.0519C151.395 34.1378 143.361 26.1035 133.446 26.1035ZM140.779 51.3849L133.446 46.3346L126.113 51.3849L131.163 44.0519L126.113 36.7189L133.446 41.7692L140.779 36.7189L135.729 44.0519L140.779 51.3849Z" fill="white"/>
</svg>
