<svg width="392" height="80" viewBox="0 0 392 80" fill="none" xmlns="http://www.w3.org/2000/svg">
<path d="M3.99994 13L29.6607 25.4454L45.1862 13V53.0417L19.5254 40.5963L3.99994 53.0417V13Z" fill="white"/>
<path d="M14.5654 66.9232H11.0967V59.7987H7.51713V66.9232H4.04852V56.3301H14.5654V66.9232Z" fill="white"/>
<path d="M28.086 66.9995H20.7811V63.5309H24.6174V59.7987H21.0378L17.5692 66.9232V56.3301H28.086V66.9995Z" fill="white"/>
<path d="M41.0725 66.9995H31.3812V56.3301H41.0725V59.7987H34.8498V63.5309H41.0725V66.9995Z" fill="white"/>
<path d="M48.5647 63.5312H45.0961V66.9999H48.5647V63.5312Z" fill="white"/>
<path d="M65.7898 48.8657C69.3208 47.0273 72.8172 44.8976 76.1679 42.5598V32.6465H66.5806V29.4415H76.1679V22.4141H79.3729V55.248H76.1679V46.4932C73.6844 48.1512 70.7985 49.8439 67.6282 51.5019L65.7898 48.8726V48.8657ZM86.8373 33.4026C90.7291 30.6971 93.7954 28.283 96.0292 26.1186L98.0479 28.6021C95.2036 31.4117 91.4853 34.3322 86.8373 37.3222V49.83C86.8026 50.9469 86.872 51.9528 88.8214 51.9528H93.3236C94.3365 51.9528 95.051 51.6267 95.4534 51.0856C95.8141 50.4752 95.9598 48.4217 95.9598 44.9947L99.1648 45.5012C99.1995 49.5039 98.9497 52.7852 98.1936 53.7911C97.1807 54.9774 96.5009 55.1578 94.3712 55.1578H87.4478C84.7423 55.1578 83.5213 53.2084 83.6254 50.3642V22.0117H86.8304V33.4026H86.8373Z" fill="white"/>
<path d="M111.242 39.7502V55.6434H108.218V40.7908C107.17 43.1356 105.984 45.189 104.687 47.0273L101.801 45.9104C104.361 42.7054 106.345 39.0634 107.677 34.9566H102.342V31.8903H108.218V26.8816L103.063 27.2077L102.703 24.1414C108.148 23.8501 112.436 23.2396 115.641 22.4141L116.147 25.4387L111.242 26.4862V31.8903H116.327V34.9566H111.242V35.4283C113.331 37.7731 115.315 40.2913 117.188 42.8858L114.774 44.7589L111.242 39.7502ZM128.759 46.7013L115.245 49.0114L114.489 46.0214L128.759 43.6073V22.4141H131.825V43.0662L134.85 42.5251L135.322 45.5497L131.825 46.2018V55.5393H128.759V46.7082V46.7013ZM123.209 41.1862C121.662 39.2021 119.643 37.0794 117.264 34.8803L119.498 32.8615C122.418 35.7821 124.472 37.9465 125.589 39.3131L123.209 41.1862ZM125.152 33.0419C123.383 30.7734 121.26 28.4633 118.769 26.1602L121.038 24.1067C124.173 27.2424 126.338 29.6218 127.559 31.1688L125.145 33.0419H125.152Z" fill="white"/>
<path d="M146.386 39.6732V55.6427H143.466V41.0815C142.855 42.8851 141.877 44.9039 140.622 46.992L137.812 46.1664C140.122 42.7048 141.815 38.9587 142.786 34.8865H138.534V31.9659H143.473V26.9226L139.255 27.4637L138.568 24.5778C143.397 24.0714 147.184 23.3915 149.779 22.5938L150.466 25.438L146.393 26.4092V31.959H150.542V34.8796H146.393V35.6704C148.121 37.5435 149.779 39.4928 151.333 41.5809L149.023 43.4193L146.393 39.6732H146.386ZM159.359 51.966V47.1376H150.244V44.2171H159.359V39.6038L151.936 39.8536L151.395 36.7873C158.964 36.933 165.311 36.4266 169.994 35.164L170.826 38.1193C168.232 38.695 165.311 39.0905 162.321 39.3471V44.2101H171.118V47.1307H162.321V51.959H170.826V54.8796H150.639V51.959H159.359V51.966ZM170.098 33.2563C170.098 33.5476 169.952 33.6864 169.702 33.6864H152.512C152.262 33.6864 152.117 33.5407 152.117 33.2563V23.558C152.117 23.3083 152.262 23.1626 152.512 23.1626H169.702C169.952 23.1626 170.098 23.3083 170.098 23.558V33.2563ZM167.184 25.9444H155.003L154.892 26.0554V30.7797L155.003 30.9254H167.184C167.295 30.9254 167.33 30.8907 167.33 30.7797V26.0554L167.184 25.9444Z" fill="white"/>
<path d="M174.177 51.6761C176.522 51.2044 179.116 50.6702 182.037 49.9071V38.7729H175.44V35.7066H191.513V38.7729H185.242V49.1163C188.808 48.1104 191.513 47.2779 193.317 46.5564L194.434 49.692C191.048 51.135 181.6 53.7295 175.225 54.9158L174.177 51.6692V51.6761ZM206.976 45.3008C206.831 47.3195 206.581 49.2689 206.185 51.1072C205.499 54.673 204.527 55.8315 203.084 55.8315C200.955 55.8315 199.588 53.0913 198.901 51.6483C196.307 46.605 194.357 39.6123 193.171 30.7465H174.718V27.6802H192.741L192.346 22.4149L195.516 22.6646L195.946 27.6733H206.581V30.7395H196.348C198.367 45.0857 202.224 51.7524 202.62 51.7524C203.556 51.7524 203.806 46.0569 203.848 44.5446L206.983 45.3008H206.976ZM203.05 27.0975C201.357 26.2304 199.519 25.5089 197.465 24.9678L198.617 22.1582C201.461 23.1294 203.445 23.9619 204.423 24.4267L203.057 27.0906L203.05 27.0975Z" fill="white"/>
<path d="M210.327 28.1785H223.771V31.0991H210.327V28.1785ZM214.115 53.2635V54.8105H211.194V42.6634C211.194 42.0877 211.52 41.7616 212.096 41.7616H222.044C222.654 41.7616 222.98 42.0877 222.98 42.6634V52.2854C222.98 52.9375 222.654 53.2566 222.009 53.2566H214.115V53.2635ZM211.881 32.7571H222.078V35.532H211.881V32.7571ZM211.881 37.2594H222.078V40.0342H211.881V37.2594ZM212.02 23.5306H222.217V26.4512H212.02V23.5306ZM220.06 45.0082C220.06 44.6822 219.879 44.5365 219.553 44.5365H214.579C214.253 44.5365 214.115 44.6822 214.115 45.0082V50.4886H219.449C219.845 50.4886 220.06 50.2736 220.06 49.8782V45.0152V45.0082ZM230.042 26.0835C229.827 26.0835 229.682 26.2292 229.682 26.4789V27.8109C229.682 31.4182 228.204 34.1931 225.283 36.0315L223.23 33.7977L224.458 32.9652C226.081 31.5986 226.872 29.5798 226.872 26.8743V23.9191L227.052 23.489L227.483 23.3086H237.611L238.041 23.4543L238.256 23.926V31.4251C238.256 32.6114 238.721 32.7224 239.553 32.7571C239.845 32.7571 239.914 32.7224 240.636 32.542C240.816 32.4727 240.927 32.1119 240.962 31.4598L241.031 29.1151L243.695 29.4411L243.445 33.4023C243.265 34.6995 241.752 35.532 240.851 35.532H238.291C236.307 35.4626 235.405 33.985 235.481 32.7571V26.5205C235.447 26.2292 235.301 26.0904 235.009 26.0904H230.035L230.042 26.0835ZM241.94 55.7124C238.263 54.6648 235.273 53.3329 233.005 51.7859C231.097 53.0138 228.572 54.311 225.505 55.6777L223.667 53.0485C226.553 52.0356 228.932 50.9187 230.695 49.7325C228.787 47.8594 226.983 45.369 225.36 42.379L227.92 40.9361C229.328 43.822 231.055 46.2014 233.005 48.0398C235.849 45.6256 237.618 43.0311 238.305 40.2562C238.305 39.7845 237.833 39.7845 237.438 39.8261H225.401V36.9056H240.032L241.69 38.2028C241.038 42.7051 238.915 46.6385 235.419 49.9198C237.403 51.1477 240.101 52.1536 243.494 52.8057L241.947 55.7262L241.94 55.7124Z" fill="white"/>
<path d="M246.518 28.0332H262.772V30.9538H246.518V28.0332ZM250.015 53.694V54.9566H247.094V43.9264C247.094 43.3506 247.42 43.0246 247.996 43.0246H261.732C262.384 43.0246 262.703 43.3506 262.703 43.9264V52.6881C262.703 53.3749 262.377 53.694 261.697 53.694H250.022H250.015ZM248.211 23.3853H261.225V26.3058H248.211V23.3853ZM248.211 32.9725H261.08V35.8931H248.211V32.9725ZM248.211 37.8702H261.08V40.7908H248.211V37.8702ZM259.782 46.2712C259.782 45.9451 259.602 45.7994 259.276 45.7994H250.479C250.153 45.7994 250.015 45.9451 250.015 46.2712V50.9191H259.172C259.567 50.9191 259.782 50.7041 259.782 50.3086V46.2712ZM269.696 34.9566H263.133V31.8903H269.696V22.4141H272.762V31.8903H279.248V34.9566H272.762V55.5393H269.696V34.9566Z" fill="white"/>
<path d="M288.655 53.0493V54.8183H285.589V40.8328L284.944 42.0191L281.954 41.0132C284.583 36.5109 286.276 31.641 286.928 26.5213H282.564V23.4551H295.863V26.5213H289.918C289.522 29.546 288.946 32.1405 288.26 34.3812H294.711C295.398 34.3812 295.717 34.6726 295.717 35.3177V52.0434C295.717 52.6955 295.356 53.0562 294.67 53.0562H288.648L288.655 53.0493ZM292.658 37.7666C292.658 37.4752 292.478 37.2948 292.117 37.2948H289.162C288.835 37.2948 288.655 37.4752 288.655 37.7666V50.1287H292.04C292.436 50.1287 292.651 49.9136 292.651 49.5529V37.7666H292.658ZM309.127 39.0638H304.299C304.299 42.4145 304.299 50.3091 298.783 55.7132L296.078 53.8054C299.609 50.9195 301.232 45.9109 301.232 39.0638H296.654V35.9976H301.232V26.5213H297.916V23.4551H315.003V26.5213H312.193V35.9976H315.689V39.0638H312.193V55.2484H309.127V39.0638ZM309.127 35.9976V26.5213H304.299V35.9976H309.127Z" fill="white"/>
<path d="M318.249 52.4733C320.594 52.293 322.863 51.7519 324.992 50.8847C328.308 49.3377 330.362 46.5975 331.048 42.7057H320.095V39.6395H331.305L331.375 38.4879V35.2829H334.441V38.4879L334.371 39.6395H343.237C343.993 39.6395 344.354 40.0349 344.354 40.7564V50.3089C344.354 51.1761 344.86 51.7865 345.582 51.8975H347.712C348.503 51.8975 348.579 51.1761 348.614 50.7113V45.2656L351.819 45.8067C351.708 49.5181 351.569 51.7172 351.354 52.4733C350.958 54.062 349.585 54.9569 347.927 54.9569H344.5C341.871 54.7418 341.149 52.5774 341.149 51.2801V43.3509C341.149 42.9208 341.038 42.6988 340.858 42.6988H334.045C332.602 51.4952 327.559 54.1244 319.914 55.602L318.256 52.4664L318.249 52.4733ZM337.569 27.6381H331.839C331.264 33.944 328.454 37.2253 320.122 37.8358L318.86 34.7695C324.59 34.5545 328.558 33.3266 328.773 27.6311H322.321C322.141 27.6311 322.03 27.7421 322.03 27.9225V32.3554H318.964V25.1823C318.964 24.7869 319.179 24.5718 319.574 24.5718H333.414V22.2617H336.584V24.5718H348.842L351.617 25.9801C351.437 27.6381 350.896 29.6915 350.07 32.0363L347.115 31.0651L348.017 28.1445C348.052 27.8531 347.948 27.6381 347.587 27.6381H340.629V33.0838C340.629 34.2007 341.281 34.7765 342.356 34.8528H347.115C347.441 34.8528 347.726 34.7418 348.052 34.5267L348.267 34.2007L348.738 31.8906L351.659 32.9381C351.333 35.1719 350.937 36.4692 350.653 36.6842C349.932 37.5167 349.175 37.9121 348.489 37.9121H340.629C339.151 37.8427 337.563 36.5038 337.563 34.8112V27.6381H337.569Z" fill="white"/>
<path d="M368.641 45.8758C367.275 44.0721 365.575 42.1297 363.556 39.9999V55.6434H360.532V42.4488L356.168 46.4169L354.184 43.7876C359.699 39.7849 363.48 35.6433 365.429 31.3908C365.464 31.3215 365.464 31.2451 365.464 31.2105C365.464 30.9954 365.284 30.8844 364.958 30.8844H355.405V27.8182H360.629V22.4141H363.695V27.8182H367.767L369.425 29.1501C368.274 32.3551 366.761 35.1716 364.958 37.5858C367.011 39.4588 369.03 41.5122 370.979 43.642L368.634 45.8758H368.641ZM376.931 51.4602V32.4314H371.021V29.3652H376.931V22.5181H380.102V29.3652H386.803V32.4314H380.102V51.4602H387.781V54.5265H368.891V51.4602H376.931Z" fill="white"/>
</svg>
