<svg width="240" height="80" viewBox="0 0 240 80" fill="none" xmlns="http://www.w3.org/2000/svg">
<path d="M17.4266 36.0731C17.8544 35.9152 18.1189 35.7037 18.2456 35.2272C18.3581 34.8099 18.1752 34.2882 17.7278 34.167C16.4755 33.8343 16.467 36.2423 14.9249 35.8306C14.2326 35.6445 13.8302 34.8465 14.0694 33.9499C14.2298 33.3577 14.68 32.8361 15.226 32.7148L15.3217 33.0729C14.9277 33.166 14.5843 33.3859 14.4465 33.8963C14.3142 34.3897 14.5787 34.7704 14.9896 34.8804C16.0027 35.151 16.1743 32.7825 17.7334 33.1998C18.527 33.4113 18.845 34.3221 18.6311 35.1313C18.4538 35.7855 18.1442 36.262 17.5533 36.4622L17.4238 36.0731H17.4266Z" fill="white"/>
<path d="M19.1292 32.9209L15.0712 31.0458L15.4652 30.1971L17.2465 31.0176L18.0992 29.1679L16.3179 28.3418L16.709 27.4902L20.7642 29.3681L20.3731 30.2169L18.42 29.3146L17.5645 31.1671L19.5176 32.0694L19.1292 32.9209Z" fill="white"/>
<path d="M21.3074 28.5719L17.5392 26.1751L18.0373 25.3828L21.8083 27.7852L21.3074 28.5719Z" fill="white"/>
<path d="M22.3036 26.9371L18.8788 24.0695L19.4754 23.3533L20.9838 24.6165L22.2895 23.0459L20.7812 21.7884L21.3806 21.0693L24.8082 23.9369L24.2116 24.6531L22.5597 23.2743L21.2539 24.8421L22.903 26.2181L22.3036 26.9371Z" fill="white"/>
<path d="M28.0895 16.828C27.5548 16.6983 26.9863 16.6165 26.4544 17.0056C25.4723 17.7134 25.4414 18.7228 26.1955 19.7717C26.7809 20.5894 27.8137 21.0518 28.7395 20.3864C29.3333 19.955 29.6176 19.2698 29.505 18.6269L29.8568 18.5508C29.9806 19.4982 29.5669 20.2229 28.7958 20.7783C27.6589 21.596 26.128 21.3987 25.402 20.3836C24.569 19.2247 24.9376 17.7415 26.1196 16.89C26.7527 16.4332 27.5407 16.3233 28.2133 16.5234L28.0923 16.828H28.0895Z" fill="white"/>
<path d="M30.8219 19.2527L28.8689 15.229L29.7104 14.8202L30.5687 16.5881L32.3979 15.6943L31.5396 13.9235L32.381 13.5146L34.334 17.5383L33.4926 17.9472L32.5555 16.0129L30.7206 16.9039L31.6634 18.841L30.8219 19.2527Z" fill="white"/>
<path d="M35.2684 17.2479L33.805 13.0184L34.6915 12.7139L36.152 16.9434L35.2684 17.2479Z" fill="white"/>
<path d="M37.1398 16.6074L36.107 12.2539L38.9633 11.5771L39.0309 11.8591L37.0891 12.3215L37.4859 13.9992L39.3179 13.5622L39.3855 13.847L37.5506 14.2812L37.984 16.1084L39.9567 15.6403L40.0243 15.9194L37.1398 16.6074Z" fill="white"/>
<path d="M40.6941 15.7934L40.3057 11.3355L41.1331 11.2622L43.9923 14.1045H44.0063L43.7334 11.0338L44.133 11L44.527 15.4551L44.1105 15.4917L40.7954 12.2012L40.7813 12.204L41.0937 15.7568L40.6941 15.7934Z" fill="white"/>
<path d="M49.1731 11.2594L48.7201 14.423C48.6216 15.1082 49.2519 15.4579 49.629 15.5114C50.0596 15.5763 50.8307 15.5453 50.9376 14.7868L51.4019 11.5808L51.7931 11.64L51.3175 14.9475C51.2359 15.5143 50.6618 16.1205 49.418 15.94C48.6047 15.8244 47.6282 15.3958 47.7914 14.268L48.2445 11.124L49.1675 11.2565L49.1731 11.2594Z" fill="white"/>
<path d="M52.0576 16.2591L53.3943 11.9873L54.1907 12.2411L55.747 15.9574L55.761 15.963L56.6813 13.0249L57.0584 13.1434L55.7245 17.4152L55.3305 17.2911L53.5182 12.977L53.5013 12.9714L52.4347 16.3775L52.0576 16.2591Z" fill="white"/>
<path d="M58.4711 13.7758L56.634 17.8545L57.4856 18.2396L59.3227 14.1609L58.4711 13.7758Z" fill="white"/>
<path d="M63.348 16.3649L63.7307 16.5905L59.7177 19.5652L59.7065 19.5539L60.2215 14.5293L61.0601 15.0256L60.7533 18.2738L63.348 16.3649Z" fill="white"/>
<path d="M61.7946 20.7273L64.5609 17.2168L66.86 19.0355L66.6884 19.2639L65.1153 18.026L64.0487 19.3795L65.5289 20.5496L65.346 20.778L63.8686 19.6051L62.7063 21.0797L64.2992 22.3401L64.119 22.5657L61.7946 20.7273Z" fill="white"/>
<path d="M64.6031 23.0096L67.845 19.9277L69.3196 21.487C69.9415 22.1412 69.8543 22.925 69.3337 23.4157C68.8412 23.8894 68.2446 23.6948 67.6733 23.2127L67.0683 25.6094L66.3591 24.8622L67.0852 22.3019L67.1274 22.347C67.6958 22.9476 68.2727 23.1365 68.7596 22.6769C69.1198 22.3329 69.2999 21.7915 68.6724 21.1289L68.3234 20.7595L65.2475 23.692L64.6031 23.0096Z" fill="white"/>
<path d="M68.1771 25.8006C68.0195 26.2292 68.0167 26.5704 68.3009 26.9736C68.5429 27.3261 69.0608 27.5235 69.4378 27.2612C70.4988 26.5168 68.6611 24.9547 69.9754 24.0355C70.5635 23.6267 71.4275 23.8353 71.9593 24.5966C72.3111 25.0957 72.4152 25.7809 72.1619 26.28L71.8242 26.1221C72.0044 25.7583 72.0606 25.3551 71.7595 24.9237C71.4669 24.5036 71.0053 24.4557 70.6564 24.7038C69.7981 25.3072 71.4922 26.9595 70.1695 27.89C69.4969 28.3581 68.5964 28.0169 68.118 27.3345C67.7297 26.7791 67.5664 26.2292 67.7944 25.6512L68.1771 25.8035V25.8006Z" fill="white"/>
<path d="M69.4941 29.285L73.4226 27.1533L73.8673 27.9738L69.9387 30.1055L69.4941 29.285Z" fill="white"/>
<path d="M70.6198 31.5162L74.4695 29.9005L74.0868 28.9897L74.3513 28.877L75.4798 31.5641L75.2125 31.6769L74.8325 30.7661L70.98 32.3846L70.6198 31.5162Z" fill="white"/>
<path d="M76.6196 35.5533L76.7603 36.0975L74.2191 35.0909L72.0297 35.6746L71.7905 34.7695L73.8448 34.2224L75.6712 31.9893L75.9526 33.0495L74.5624 34.7441L76.6196 35.5533Z" fill="white"/>
<path d="M38.1894 55.2554H40.3057C40.4014 55.247 40.4633 55.1962 40.4858 55.0947V55.0439H38.2232L38.1866 55.2554H38.1894Z" fill="white"/>
<path d="M40.3648 54.0586H38.4174L38.3808 54.2701H40.5702C40.5871 54.1291 40.5167 54.0586 40.3648 54.0586Z" fill="white"/>
<path d="M48.9227 52.8675C48.9142 52.8393 48.8945 52.8252 48.8636 52.8252H47.3355C47.3045 52.8252 47.2877 52.8393 47.2877 52.8675V54.4155C47.2877 54.4493 47.3045 54.4662 47.3355 54.4662H48.8636C48.903 54.4578 48.9227 54.4409 48.9227 54.4155V52.8675Z" fill="white"/>
<path d="M73.4902 45.6061C75.477 43.3391 75.6599 40.5505 74.6271 39.4536C72.705 38.5203 69.7896 41.3315 69.4209 42.9669C66.7897 44.2386 65.8301 45.124 65.1181 47.5207C64.7128 47.7914 64.0825 47.8957 63.2495 48.4991C63.151 48.6147 62.8161 47.9577 62.8358 47.9972C62.8527 48.0395 62.954 38.4216 62.954 38.4216H72.1L45.4162 24.7744L18.1583 38.0663L27.0595 38.0748C27.0595 38.0748 27.0144 48.1579 27.0398 48.3187C26.3953 48.5104 25.7875 48.3666 25.326 47.7745C24.3129 44.5798 22.4077 43.7367 21.085 43.2122C20.8458 41.8955 18.7071 38.7431 14.8095 39.8822C13.8527 41.3202 15.5299 43.9848 16.4163 45.2509C15.8535 45.6174 15.3329 45.7415 14.9333 46.0996C14.8404 49.2576 18.7746 51.3752 19.1742 51.316C19.4331 51.8432 20.0128 52.6356 20.8486 53.7663C21.0625 54.0229 20.3702 54.1244 20.3702 54.0792C20.964 56.4111 23.1788 58.4356 26.6964 57.8379C26.7274 57.8943 26.7077 62.324 26.7077 62.324C26.7077 62.324 38.3752 62.3352 38.3555 62.3352C39.0562 62.2647 39.0365 62.386 38.7973 62.871C38.1472 64.0017 37.5422 64.7376 36.47 65.8711C37.7139 66.3025 39.1406 67.9689 39.8132 68.1917C40.241 67.952 41.1724 65.6991 42.1293 64.9801C42.4923 65.028 42.799 65.6878 43.2774 65.9275C44.2371 66.1644 44.6085 65.0985 45.5203 65.8598C46.4602 66.0375 47.1075 65.1521 47.3495 64.6699C49.0858 65.4369 49.6262 67.6672 50.4113 67.8928C51.4244 67.0215 53.1016 66.1869 53.6166 65.6907C53.6166 64.7884 51.188 63.0824 51.4244 62.3606C51.4751 62.3522 62.7683 62.3352 62.7683 62.3352C62.7683 62.3352 62.726 58.8417 62.7176 58.8501C62.7767 58.1452 63.6125 58.3257 63.6125 58.3257C66.1593 58.5428 69.7924 55.9994 69.1479 53.6337C69.8149 52.9457 70.0513 52.4749 70.479 51.4372C74.841 50.4109 75.2321 47.1203 75.2744 46.4605C74.7397 45.9135 73.9376 45.9783 73.4958 45.609L73.4902 45.6061ZM73.6224 40.7196C74.6018 42.6511 72.0718 45.8345 70.4453 46.1588C68.7596 45.4229 71.2839 40.9114 73.6224 40.7196ZM68.1123 44.9604C69.7333 46.4013 67.5748 50.2332 66.4379 50.2952C65.5374 49.0856 66.2747 46.2293 68.1123 44.9604ZM67.4144 37.1556L54.7029 37.164L51.9113 35.8134V41.1849L56.0537 41.1736L56.0706 38.4442L61.8143 38.4216L61.8058 47.6504L46.1535 47.766L46.1085 26.3393L67.4144 37.1584V37.1556ZM23.7951 36.868L44.4115 26.5734L44.2962 32.4157L38.2176 35.7711L44.2371 35.788L44.2258 47.5855L28.3005 47.5771L28.3878 38.1791L34.5142 38.2383L34.4832 41.1116L37.8714 41.2272L37.9305 36.9836L23.7951 36.8623V36.868ZM21.7942 44.9548C23.7669 46.2011 24.341 48.9052 23.7078 50.1768C20.8711 49.173 20.691 44.1455 21.7942 44.9548ZM16.4163 40.8747C17.9951 41.1398 20.2548 42.7047 20.3702 45.843C17.9078 46.3223 15.4426 42.0844 16.4163 40.8747ZM16.6443 47.2359C16.8188 46.8891 19.7089 46.5254 21.3327 49.393C19.934 51.0143 16.6443 47.9831 16.6443 47.2359ZM21.085 51.8376C21.5437 50.6985 24.5633 51.9194 24.9151 53.2756C23.9189 54.1808 21.6563 52.7596 21.085 51.8376ZM25.8072 56.5859C24.372 56.8228 21.9856 55.4778 22.3964 54.725C23.2322 53.504 27.3662 56.4675 25.8072 56.5859ZM25.2049 49.6918C25.7199 49.6918 27.0567 50.2107 27.7405 52.7484C27.6814 54.536 23.9217 50.2671 25.2049 49.6918ZM26.5811 54.7447C27.6476 54.3133 29.6091 55.5934 30.1804 56.8707C29.6766 57.7138 26.5276 56.1348 26.5811 54.7447ZM42.0279 62.9866C41.0683 64.1906 40.3986 65.0957 39.4417 66.06C38.8677 66.0375 38.9099 65.888 38.8986 65.2931C38.9915 64.8814 39.8104 63.7028 41.0036 62.5044C41.482 62.2619 42.7399 62.1999 42.0251 62.9894L42.0279 62.9866ZM42.2475 61.3878C40.9248 61.0185 39.8779 60.6857 39.1069 60.3925L39.3601 59.9216H36.1239L36.3405 60.4122C34.9447 60.9254 33.9232 61.2638 33.2731 61.4273L32.9607 60.494C33.4729 60.3587 34.047 60.1838 34.6802 59.9695C34.728 59.9442 34.7759 59.9272 34.8237 59.9188H33.5011C33.4054 59.9188 33.3575 59.8737 33.3575 59.7863V56.2419C33.3575 56.1602 33.4054 56.1179 33.5011 56.1179H42.0927C42.1968 56.1179 42.2503 56.1602 42.2503 56.2419V59.7863C42.2503 59.8737 42.1968 59.9188 42.0927 59.9188H40.6969C41.6283 60.1923 42.284 60.3784 42.6696 60.4827L42.2475 61.385V61.3878ZM43.1818 55.0436H41.6312L41.558 55.8359C41.5411 55.8895 41.5045 55.9318 41.451 55.9571C41.3638 55.9994 41.2653 56.0164 41.1612 56.0079H33.9063C33.7375 55.9994 33.6136 55.9656 33.532 55.9064C33.4532 55.8444 33.4166 55.7908 33.4251 55.7428L33.5573 55.0436H32.2938V54.271H33.7121L33.881 53.4307C33.8979 53.3828 33.9288 53.349 33.9767 53.3292C34.0639 53.3038 34.1483 53.2869 34.2299 53.2869H41.3863C41.4904 53.2869 41.5833 53.3123 41.6621 53.3602C41.7493 53.4082 41.7916 53.4561 41.7831 53.5012L41.6987 54.271H43.1789V55.0436H43.1818ZM43.4716 52.6074C43.4238 53.0924 43.3337 53.5802 43.2071 54.0708C42.83 53.9947 42.4557 53.9242 42.087 53.8537C42.1658 53.6563 42.2362 53.4335 42.2925 53.1882C42.3094 53.1008 42.2643 53.0557 42.1602 53.0557H33.5208C33.4476 53.0557 33.4138 53.0867 33.4138 53.1488V53.9636H32.2769V52.3846C32.2854 52.269 32.3529 52.2098 32.4795 52.2098H37.1257V51.7276H38.3583V52.2098H43.0607C43.3647 52.2098 43.5026 52.3423 43.4688 52.6074H43.4716ZM28.6213 50.1768L27.6251 48.9615L62.484 48.8572L61.4569 50.3545L28.6185 50.1796L28.6213 50.1768ZM52.2968 53.9947L50.5408 54.1187L50.3353 53.0839L51.7311 52.9824C51.5539 52.6215 51.3794 52.2239 51.2021 51.7953L52.3559 51.4175C52.6035 51.9983 52.8287 52.4861 53.0285 52.8837L54.1232 52.8019C54.0669 52.7681 53.7264 52.6553 53.1016 52.4636L53.5829 51.55C54.0078 51.6515 54.52 51.8291 55.1222 52.0829L54.6776 52.7596L56.7094 52.6046L56.8163 53.6591L53.6757 53.896C53.7799 54.0313 53.8952 54.1667 54.0247 54.2935C54.2639 54.1582 54.534 53.9947 54.8295 53.8114L55.5274 54.6404C55.2939 54.7785 55.0912 54.8998 54.914 55.0097C55.0434 55.1 55.1588 55.1676 55.2629 55.2156C55.4965 55.3255 55.6653 55.3566 55.7695 55.3058C55.8567 55.272 55.9074 55.2212 55.913 55.1535C55.9524 54.99 55.958 54.7729 55.9242 54.5078L57.1512 54.6911C57.1034 55.647 56.8979 56.2194 56.5377 56.4027C56.186 56.5408 55.6597 56.4844 54.9618 56.2391C54.8408 56.1912 54.4327 55.9684 53.7348 55.5737C52.733 55.9769 51.6411 56.2307 50.462 56.3293L50.1974 55.2861C50.3578 55.2635 50.5211 55.255 50.6899 55.255C51.2443 55.1789 51.976 55.0295 52.8906 54.8039C52.8512 54.7616 52.6514 54.4937 52.2884 53.9947H52.2968ZM45.5344 64.622C45.2924 64.622 44.7746 64.4415 44.7746 64.199C44.299 64.6812 43.8093 64.8645 43.5673 64.1426C43.6179 63.1247 44.1554 62.2901 44.9322 62.2732C45.4162 62.448 46.4265 63.7338 45.5344 64.6248V64.622ZM46.2098 61.3089L45.7173 60.3361C45.8693 60.2938 46.0353 60.2543 46.2098 60.212V56.4731H47.3467V59.8849C47.4705 59.837 47.6 59.8004 47.7322 59.7722V55.4863H46.2632C46.1507 55.4863 46.0944 55.4355 46.0944 55.3312V51.9448C46.1028 51.8489 46.1591 51.801 46.2632 51.801H49.9385C50.0595 51.8094 50.1186 51.8545 50.1186 51.9448V55.3227C50.1186 55.4242 50.0595 55.475 49.9413 55.475H48.9254V56.4478H50.158V57.4121H48.9254V59.3887C49.5023 59.1828 49.9526 59.0165 50.2734 58.8868L50.8025 59.8398C50.4338 60.0034 49.8372 60.2233 49.0099 60.4968C47.8758 60.8662 46.9443 61.1369 46.2126 61.3061L46.2098 61.3089ZM50.9291 65.8767C49.9723 64.6812 49.0155 63.5392 47.8195 62.5777C48.0587 62.3381 48.0531 62.0646 48.4808 62.3832C49.1337 62.8794 50.9404 64.0045 51.2865 64.9547C51.7311 65.2592 51.461 65.5017 50.9291 65.8767ZM56.5433 61.1989C56.2394 61.323 55.8651 61.3117 55.4233 61.1679C54.7423 60.9705 54.1851 60.6857 53.7517 60.3192C52.8681 60.776 51.8156 61.1397 50.5886 61.4047L50.0342 60.4009C51.2049 60.2036 52.1786 59.9188 52.9581 59.5522C52.6936 59.2364 52.4178 58.8247 52.1279 58.3116L50.6364 58.4356L50.431 57.3895L51.6327 57.2993C51.5116 57.0399 51.3991 56.772 51.295 56.4985L52.4628 56.1404C52.6148 56.5239 52.7639 56.8707 52.9075 57.1865L53.9909 57.1048C53.687 56.9891 53.3887 56.9215 53.1016 56.8989L53.4872 55.9459C54.2329 56.1235 54.7507 56.256 55.0378 56.3434L54.6888 57.0399L56.7572 56.8651L56.8782 57.9112L55.0265 58.0747L55.8314 58.3821C55.4937 58.9009 55.1419 59.3238 54.7732 59.6537C54.9646 59.7919 55.1391 59.899 55.2911 59.9808C55.5303 60.0964 55.7047 60.1359 55.8089 60.0936C55.8961 60.0513 55.958 59.9865 55.989 59.899C56.0621 59.7073 56.0818 59.4479 56.0481 59.1208L57.2638 59.3464C57.1906 60.3981 56.9514 61.0156 56.5433 61.1989ZM59.8528 57.3162C58.9663 55.9882 62.7683 54.2907 63.2045 54.8011C63.5196 55.5934 61.288 57.4177 59.8528 57.3162ZM62.2927 53.8762C60.9447 53.8762 62.7429 49.4465 65.0308 49.4465C65.8047 51.7276 63.1285 53.7578 62.2927 53.8762ZM63.4211 56.7692C64.4877 54.584 67.0542 54.3753 67.8056 54.6657C67.997 55.3058 65.1772 57.649 63.4211 56.7692ZM64.6847 53.7071C64.1106 52.957 67.6283 50.2022 69.2971 50.9663C69.435 52.0124 65.892 54.6883 64.6847 53.7071ZM68.7427 50.112C68.7427 48.2848 72.9161 45.8627 73.6056 47.1767C73.1272 49.0997 71.0194 50.4842 68.7427 50.112Z" fill="white"/>
<path d="M53.9234 58.8734C54.1232 58.6958 54.3455 58.442 54.5847 58.1064L53.4309 58.1995C53.5829 58.4392 53.7489 58.6647 53.9234 58.8734Z" fill="white"/>
<path d="M41.0543 59.0646V58.918H34.5479V59.0646C34.5395 59.09 34.5508 59.1041 34.5845 59.1097H41.0064C41.0374 59.1041 41.0543 59.0872 41.0543 59.0646Z" fill="white"/>
<path d="M34.9279 55.2554H37.0329L37.0695 55.0439H34.7112C34.6803 55.1652 34.7506 55.2357 34.9279 55.2554Z" fill="white"/>
<path d="M34.8687 54.2278V54.2701H37.227L37.2636 54.0586H35.0742C34.9616 54.0671 34.8941 54.1234 34.8687 54.2306V54.2278Z" fill="white"/>
<path d="M41.0542 56.9739C41.0542 56.9457 41.0374 56.9316 41.0064 56.9316H34.5845C34.5535 56.9316 34.5395 56.9457 34.5479 56.9739V57.1995H41.0542V56.9739Z" fill="white"/>
<path d="M41.0542 57.9346H34.5479V58.1855H41.0542V57.9346Z" fill="white"/>
<path d="M137.048 18.8415C137.096 18.7513 137.124 18.6385 137.197 18.5708C137.49 18.2973 137.768 17.9956 138.1 17.7757C138.832 17.2907 139.583 16.8396 140.34 16.3969C140.65 16.2164 140.991 16.0811 141.32 15.9373C141.686 15.7765 141.798 15.6384 141.778 15.238C141.767 15.004 141.733 14.7643 141.657 14.5444C141.404 13.8112 141.151 13.0781 140.855 12.3619C140.602 11.7501 140.917 11.1523 141.576 11.031C142.142 10.9267 142.583 11.0846 142.952 11.516C143.329 11.9615 143.74 12.376 143.948 12.9428C144.097 13.3545 144.109 13.3516 143.762 13.6392C143.72 13.6731 143.684 13.7125 143.599 13.7943C143.754 13.8733 143.881 13.9466 144.013 14.003C144.156 14.065 144.283 14.034 144.382 13.9015C144.567 13.6477 144.75 13.4926 145.139 13.5546C145.443 13.6026 145.775 13.3826 145.941 13.0527C145.972 12.9907 145.974 12.9174 146 12.8554C146.225 12.2886 146.838 12.1082 147.32 12.4973C147.753 12.8469 148.22 13.0894 148.766 13.2022C149.154 13.2811 149.197 13.4306 148.963 13.7492C148.825 13.9409 148.682 14.1299 148.535 14.3131C148.282 14.6233 147.964 14.8348 147.573 14.9447C147.224 15.0406 146.883 15.1703 146.529 15.2436C145.777 15.3987 145.144 15.816 144.466 16.1375C144.134 16.2954 144.069 16.4617 144.199 16.817C144.601 17.9251 145.02 19.0248 145.423 20.1329C145.806 21.1875 146.256 22.2195 146.442 23.3361C146.461 23.4545 146.523 23.5645 146.563 23.6773C146.816 23.6829 146.909 23.5081 147.007 23.3699C147.401 22.8314 147.787 22.2872 148.161 21.7373C148.496 21.2439 148.803 20.7307 149.132 20.2316C149.312 19.9609 149.444 19.6762 149.489 19.3519C149.551 18.9092 149.776 18.5455 150.03 18.1958C150.213 17.9449 150.353 17.911 150.592 18.0915C151.015 18.4101 151.414 18.7569 151.817 19.0981C151.966 19.225 151.963 19.3942 151.893 19.5577C151.772 19.8369 151.665 20.1273 151.51 20.3867C150.91 21.3849 150.345 22.4112 149.605 23.3192C149.202 23.8126 148.758 24.2722 148.338 24.7572C148.122 25.0081 147.908 25.2647 147.722 25.5382C147.55 25.792 147.587 25.9161 147.812 26.1135C147.874 26.167 147.944 26.215 148.015 26.2601C148.169 26.356 148.231 26.4885 148.237 26.6746C148.254 27.1032 148.4 27.2019 148.822 27.0834C149.008 27.0327 149.191 26.9537 149.365 26.8663C149.979 26.5646 150.635 26.5251 151.288 26.6069C151.907 26.6859 152.374 27.027 152.599 27.6304C152.72 27.9519 152.641 28.1775 152.326 28.3156C152.061 28.4312 151.777 28.5243 151.493 28.5779C151.003 28.6681 150.637 28.9698 150.255 29.2405C150.128 29.3307 150.156 29.4604 150.218 29.5788C150.305 29.7508 150.412 29.9144 150.497 30.092C150.685 30.4924 150.438 30.8561 149.993 30.8364C149.886 30.8308 149.776 30.8026 149.658 30.78C149.633 30.6334 149.61 30.5065 149.591 30.3824C149.543 30.3768 149.503 30.3599 149.489 30.374C149.118 30.687 148.774 30.5855 148.442 30.3119C148.305 30.1963 148.138 30.0977 148.04 29.9539C147.868 29.7029 147.646 29.7057 147.412 29.7819C147.108 29.8805 146.813 30.0046 146.518 30.1259C145.822 30.4106 145.122 30.6841 144.435 30.9887C143.748 31.2932 143.059 31.6005 142.403 31.9615C141.981 32.1955 141.615 32.5282 141.227 32.8215C141.033 32.9681 140.993 33.1542 141.103 33.3741C141.14 33.4474 141.168 33.5292 141.21 33.5997C142.085 35.049 142.952 36.5039 143.841 37.9448C144.089 38.3452 144.401 38.7061 144.683 39.0839C144.708 39.1178 144.731 39.1516 144.761 39.1798C144.942 39.3518 145.096 39.318 145.153 39.0839C145.274 38.5849 145.381 38.0858 145.49 37.5839C145.524 37.4203 145.53 37.2512 145.575 37.0933C145.682 36.7154 145.715 36.3573 145.412 36.0443C145.386 36.0161 145.378 35.9682 145.369 35.9287C145.364 35.9034 145.378 35.8752 145.389 35.7962C146.101 35.6017 146.824 35.4635 147.547 35.8357C147.885 36.0105 148.062 36.3122 148.074 36.6788C148.113 38.1365 148.108 39.5943 147.559 40.9816C147.446 41.2635 147.297 41.5342 147.137 41.788C146.965 42.0587 146.973 42.3068 147.154 42.5578C147.227 42.6593 147.303 42.758 147.387 42.851C148.043 43.57 148.707 44.2834 149.357 45.0081C149.495 45.1603 149.619 45.1998 149.788 45.087C149.81 45.0701 149.833 45.0504 149.858 45.0419C150.311 44.8755 150.716 44.6669 150.801 44.1255C150.806 44.0917 150.854 44.0607 150.885 44.0381C150.916 44.0155 150.955 43.9986 151.023 43.9648C151.074 44.0635 151.13 44.1509 151.169 44.2468C151.687 45.5917 152.174 46.948 152.523 48.3494C152.602 48.6624 152.804 48.9443 152.939 49.246C153.01 49.4068 153.063 49.5788 153.108 49.7479C153.142 49.8833 153.094 50.013 152.948 50.0412C152.762 50.0778 152.754 50.216 152.72 50.3457C152.683 50.4923 152.666 50.6474 152.607 50.7856C152.478 51.0873 152.292 51.1465 152.005 50.9858C151.884 50.9181 151.772 50.8335 151.665 50.7461C149.858 49.2855 148.214 47.6727 146.926 45.7299C146.788 45.5213 146.639 45.3211 146.487 45.1237C146.402 45.0137 146.309 44.9094 146.205 44.8163C145.915 44.5597 145.808 44.5851 145.569 44.8868C145.026 45.572 144.474 46.2544 143.917 46.9283C143.307 47.667 142.558 48.2366 141.697 48.6652C141.337 48.8456 140.974 49.0261 140.625 49.2291C140.385 49.3701 140.163 49.5393 139.952 49.7169C139.626 49.9961 139.389 50.3203 139.426 50.7912C139.44 50.9773 139.375 51.1747 139.313 51.358C139.243 51.5582 139.113 51.6005 138.914 51.5243C138.849 51.4989 138.784 51.4651 138.731 51.4256C138.309 51.1042 137.827 51.0252 137.31 51.0478C136.904 51.0675 136.499 51.0591 136.094 51.0506C135.962 51.0506 135.829 51.014 135.689 50.9942C135.672 50.6812 135.807 50.4754 135.976 50.2921C136.361 49.8664 136.803 49.5083 137.315 49.2404C137.796 48.9894 138.275 48.7357 138.753 48.4763C139.263 48.2028 139.704 47.8447 140.09 47.4189C141.038 46.3643 141.984 45.307 142.927 44.2468C143.43 43.68 143.661 42.9779 143.867 42.273C143.957 41.9628 143.847 41.6583 143.692 41.3961C143.489 41.0521 143.273 40.7053 143.008 40.4035C142.006 39.2616 141.123 38.035 140.287 36.769C140.048 36.4053 139.856 36.0331 139.778 35.5988C139.682 35.0828 139.558 34.5697 139.44 34.0593C139.415 33.955 139.361 33.8563 139.313 33.7322C138.866 33.7773 138.576 34.079 138.261 34.3102C137.943 34.5443 137.566 34.7332 137.405 35.142C136.986 35.2125 136.572 35.142 136.17 35.0434C136.007 35.0039 135.838 34.8855 135.731 34.7557C135.402 34.3554 135.168 33.8986 135.047 33.391C134.932 32.9032 135.134 32.579 135.632 32.4746C135.796 32.4408 135.967 32.4126 136.13 32.4267C136.786 32.4859 137.326 32.1786 137.847 31.8712C138.084 31.7331 138.261 31.4596 138.399 31.2114C138.483 31.062 138.489 30.8308 138.449 30.6559C138.326 30.1456 138.171 29.6409 138.013 29.139C137.788 28.4256 137.535 27.7207 137.321 27.0045C137.228 26.6971 137.099 26.4575 136.806 26.2883C136.479 26.1022 136.502 25.9612 136.823 25.7554C137.4 25.3832 138.033 25.3634 138.68 25.4621C138.964 25.5072 139.24 25.5946 139.555 25.6708C139.381 27.4049 139.758 29.06 139.994 30.7377C140.242 30.7885 140.45 30.6588 140.661 30.5714C141.601 30.1851 142.533 29.7819 143.475 29.4012C143.926 29.2179 144.393 29.0741 144.854 28.9162C145.414 28.7245 145.856 28.372 146.214 27.9152C146.489 27.5656 146.419 26.996 146.079 26.7225C145.963 26.6295 145.845 26.6436 145.738 26.7366C145.654 26.8099 145.583 26.8973 145.493 26.965C145.094 27.2667 144.691 27.5628 144.286 27.8532C144.216 27.904 144.114 27.9152 143.971 27.966C143.99 27.7658 143.993 27.6163 144.019 27.4697C144.061 27.2103 144.123 26.9537 144.165 26.6971C144.196 26.511 144.289 26.3841 144.48 26.3616C144.93 26.3108 145.085 25.9527 145.254 25.6228C145.367 25.4029 145.229 25.1914 145.144 24.9884C144.79 24.1312 144.398 23.2853 144.083 22.4141C143.568 20.9788 143.065 19.538 142.808 18.0295C142.727 17.5529 142.209 17.24 141.739 17.4458C141.255 17.6544 140.768 17.849 140.301 18.1056C139.609 18.4863 138.883 18.8162 138.064 18.8556C137.749 18.8697 137.436 18.9233 137.124 18.9571C137.101 18.9205 137.079 18.8866 137.056 18.85L137.048 18.8415Z" fill="white"/>
<path d="M96.5072 43.3497C96.586 43.4569 96.6535 43.5499 96.721 43.6402C96.5747 43.9193 96.4396 43.9954 96.1779 43.9052C95.9331 43.8206 95.7023 43.7191 95.6685 43.4005C95.6601 43.3074 95.5307 43.2285 95.4659 43.1383C95.3618 42.9973 95.2126 42.8619 95.1789 42.704C95.0888 42.2895 95.0466 41.8609 95.1958 41.4493C95.2717 41.2434 95.238 41.0855 95.1254 40.9107C94.9228 40.5949 94.8553 40.2396 94.92 39.8759C95.1142 38.7875 95.3421 37.7104 95.7473 36.6756C95.9387 36.1934 96.2117 35.7592 96.5522 35.3672C96.7492 35.1417 96.9659 34.9556 97.2726 34.871C97.5653 34.7892 97.6103 34.6962 97.6159 34.3916C97.6159 34.3268 97.6216 34.2619 97.6103 34.1999C97.5203 33.7093 97.7201 33.354 98.1281 33.0889C98.3307 32.9564 98.5249 32.8126 98.7529 32.6575C98.6178 32.4094 98.4911 32.1782 98.3448 31.9075C98.4855 31.8342 98.5896 31.7665 98.7022 31.7214C99.175 31.5325 99.6731 31.4676 100.174 31.4169C100.506 31.383 100.835 31.3154 101.17 31.2787C101.528 31.2421 101.694 31.0419 101.727 30.7035C101.736 30.6161 101.75 30.5287 101.767 30.399C101.643 30.3764 101.536 30.3482 101.426 30.3426C100.219 30.2777 99.0258 30.3877 97.8495 30.6669C97.6356 30.7176 97.4218 30.7655 97.2079 30.805C96.7998 30.8811 96.4087 30.9911 96.04 31.1941C95.4321 31.5297 94.7765 31.7017 94.0785 31.7242C93.9547 31.727 93.8196 31.7693 93.7183 31.837C93.5579 31.9413 93.4088 32.0682 93.2737 32.2036C92.9613 32.5194 92.8319 32.4996 92.6433 32.0992C92.4998 31.7947 92.497 31.5071 92.7193 31.2336C93.0373 30.8445 93.344 30.4497 93.6649 30.0606C94.2333 29.3726 94.7089 28.6254 95.0916 27.8218C95.162 27.678 95.1986 27.506 95.2014 27.3453C95.2042 27.1451 95.1029 27.0746 94.8975 27.0971C94.8215 27.1056 94.7483 27.131 94.6751 27.1592C93.0457 27.788 91.3404 28.1461 89.6491 28.5549C88.9737 28.7185 88.3011 28.9187 87.6172 29.0286C87.1135 29.1104 86.5873 29.0822 86.0723 29.0935C85.9991 29.0935 85.9203 29.0596 85.8528 29.0286C85.4813 28.8482 85.1155 28.6592 84.7412 28.4816C84.5526 28.3914 84.4485 28.2419 84.3753 28.053C84.3106 27.8838 84.35 27.7513 84.4851 27.6442C84.6286 27.5286 84.7637 27.5906 84.8594 27.7034C85.1211 28.0135 85.4335 28.0192 85.7683 27.8669C86.2496 27.6498 86.7674 27.6272 87.2795 27.568C89.0356 27.365 90.7888 27.1282 92.5054 26.6996C93.2146 26.5219 93.9013 26.2484 94.602 26.0285C94.9087 25.9326 95.2211 25.848 95.5363 25.7916C96.0569 25.7014 96.3777 25.4251 96.5578 24.9204C96.9011 23.9701 96.9574 22.9889 96.9771 21.9992C96.9799 21.8385 96.8983 21.6157 97.0897 21.5565C97.2191 21.517 97.4049 21.6129 97.5484 21.6834C98.0099 21.9061 98.266 22.2727 98.3504 22.7887C98.4377 23.3272 98.432 23.8348 98.1422 24.3141C98.0775 24.4241 98.024 24.5425 97.979 24.6638C97.8945 24.895 97.9396 25.0303 98.1844 25.0557C98.9414 25.1375 99.7068 25.2333 100.422 24.8611C100.54 24.7991 100.644 24.6891 100.717 24.5735C100.835 24.3903 100.934 24.1929 101.018 23.9927C101.232 23.4852 101.438 22.972 101.637 22.4588C101.795 22.0499 101.739 21.9428 101.325 21.8074C101.091 21.7313 100.863 21.6439 100.627 21.5819C100.388 21.5198 100.306 21.3422 100.258 21.1364C100.244 21.0772 100.236 20.9813 100.27 20.9503C100.472 20.7642 100.619 20.485 100.939 20.4766C101.598 20.4568 102.259 20.4399 102.909 20.5837C103.165 20.6401 103.399 20.6345 103.655 20.5104C104.114 20.2905 104.615 20.3581 105.104 20.4202C105.155 20.4258 105.206 20.4399 105.254 20.4596C105.867 20.7078 106.537 20.6739 107.164 20.8544C107.603 20.9813 107.845 21.2351 107.882 21.6947C107.899 21.8977 107.871 22.0669 107.736 22.2304C107.465 22.5631 107.457 22.8141 107.696 23.1637C107.741 23.2286 107.834 23.3047 107.904 23.3047C108.265 23.3047 108.622 23.2906 108.923 23.0396C109.514 22.5518 110.6 22.9099 110.792 23.6459C110.831 23.7953 110.772 23.8996 110.651 23.973C110.088 24.3057 109.523 24.5002 108.828 24.097C108.65 23.9927 108.479 23.9532 108.276 23.9814C107.995 24.0237 107.713 24.066 107.429 24.0745C107.128 24.0857 106.959 24.2211 106.86 24.5002C106.666 25.0444 106.458 25.583 106.239 26.1187C105.94 26.8434 105.628 27.5624 105.324 28.2814C105.299 28.3406 105.265 28.397 105.242 28.4562C105.045 28.9328 105.169 29.2147 105.673 29.3698C106.472 29.6179 107.28 29.8435 108.079 30.0945C109.162 30.4328 110.237 30.7881 111.251 31.3154C111.78 31.5917 112.022 32.119 111.794 32.6604C111.644 33.0185 111.372 33.275 111.037 33.4583C110.797 33.588 110.603 33.5429 110.409 33.3427C110.347 33.2779 110.288 33.2074 110.24 33.1312C109.953 32.6519 109.531 32.3276 109.047 32.0626C108.025 31.5043 106.979 31.0109 105.83 30.7684C105.366 30.6697 104.888 30.6302 104.418 30.5484C104.224 30.5146 104.1 30.5879 103.982 30.7261C103.807 30.9319 103.621 31.1293 103.438 31.3295C103.143 31.6566 103.196 32.1923 103.571 32.4404C103.785 32.5814 104.027 32.6801 104.249 32.8098C104.584 33.0044 104.93 33.182 105.237 33.4132C105.92 33.9292 106.202 34.668 106.292 35.4828C106.357 36.0834 106.399 36.684 106.421 37.2874C106.483 38.9821 106.441 40.6767 106.331 42.3713C106.298 42.907 106.306 43.4512 106.343 43.987C106.379 44.5509 106.309 45.0838 106.12 45.6139C105.982 46.0002 105.859 46.3922 105.752 46.7869C105.597 47.3621 105.842 47.7851 106.312 48.1065C106.748 48.4054 107.198 48.6845 107.617 49.0032C107.828 49.1611 108.014 49.3697 108.163 49.5868C108.332 49.8293 108.27 50.0154 108.037 50.179C107.601 50.4835 107.119 50.5004 106.711 50.1592C105.704 49.3161 104.716 48.4477 103.717 47.5905C103.475 47.3819 103.222 47.1845 102.974 46.9815C102.904 46.9251 102.828 46.8743 102.769 46.8066C102.563 46.567 102.597 46.3273 102.862 46.1553C102.957 46.0933 103.067 46.0482 103.174 46.003C103.351 45.9241 103.531 45.8536 103.709 45.7775C104.077 45.6224 104.274 45.3461 104.3 44.9457C104.345 44.19 104.395 43.4343 104.44 42.6758C104.508 41.4831 104.589 40.2904 104.634 39.0977C104.671 38.0967 104.663 37.0957 104.677 36.0947C104.691 35.2178 104.235 34.5608 103.661 33.963C103.579 33.8785 103.436 33.8333 103.315 33.8164C103.092 33.7882 102.887 33.7459 102.71 33.5965C102.648 33.5429 102.541 33.5063 102.459 33.5147C102.079 33.5542 101.68 33.5288 101.339 33.76C101.201 33.8531 101.041 33.9179 100.906 34.0138C100.723 34.1407 100.571 34.1068 100.424 33.9574C100.396 33.9292 100.371 33.9038 100.34 33.8785C100.03 33.6078 99.8813 33.5852 99.5493 33.8192C98.9442 34.245 98.4011 34.7356 97.9593 35.3306C97.7792 35.5731 97.6328 35.8607 97.2754 35.903C97.2445 35.9058 97.1994 35.9453 97.191 35.9763C97.1038 36.2949 97.0109 36.6135 96.9546 36.9406C96.9462 36.9886 97.1094 37.1042 97.2051 37.1211C97.8073 37.231 98.4123 37.2423 99.0146 37.1013C99.3917 37.0139 99.7688 36.9265 100.149 36.8504C100.391 36.8025 100.666 36.7573 100.81 37.0167C100.948 37.2705 100.835 37.4989 100.661 37.7188C100.492 37.936 100.295 38.029 100.03 38.0121C99.1862 37.9585 98.387 38.1813 97.6047 38.4407C97.146 38.5929 96.8139 38.9257 96.7942 39.4614C96.7858 39.7039 96.7604 39.9492 96.7745 40.1917C96.7914 40.4934 96.9152 40.6203 97.2191 40.5949C97.5906 40.5611 97.9564 40.4821 98.3223 40.4088C98.8542 40.3045 99.3804 40.1748 99.9123 40.0789C100.461 39.9774 100.759 40.1127 100.956 40.516C101.077 40.7613 101.103 41.0179 100.937 41.2463C100.782 41.4605 100.517 41.4887 100.301 41.4183C99.8785 41.2773 99.4958 41.3844 99.0905 41.469C98.7416 41.5423 98.3701 41.5113 98.0099 41.5339C97.6497 41.5564 97.2895 41.5733 96.9321 41.6241C96.6028 41.672 96.5634 41.7623 96.6647 42.0696C96.6901 42.1429 96.7267 42.2106 96.7492 42.2839C96.8561 42.6251 96.9265 42.9634 96.5719 43.22C96.5437 43.2398 96.5353 43.2849 96.5015 43.3525L96.5072 43.3497ZM101.848 29.4318C102.302 29.5136 102.71 29.3162 103.019 28.9356C103.253 28.648 103.478 28.3463 103.647 28.0192C104.111 27.1338 104.544 26.2315 104.989 25.3377C105.017 25.2813 105.045 25.2221 105.065 25.1629C105.118 24.9937 105.045 24.8752 104.882 24.8499C104.778 24.833 104.648 24.8499 104.553 24.9006C104.342 25.0078 104.128 25.0529 103.889 25.0585C103.413 25.0698 102.937 25.1262 102.462 25.1572C102.093 25.1826 101.879 25.3969 101.747 25.7155C101.699 25.8339 101.668 25.9608 101.612 26.0736C101.204 26.8575 100.796 27.6413 100.379 28.4224C100.202 28.7579 100.225 28.8848 100.537 29.0963C100.914 29.3501 101.345 29.4206 101.846 29.4347L101.848 29.4318ZM98.4939 29.601C98.7106 29.6687 98.7894 29.5136 98.8485 29.3557C99.2453 28.2617 99.6365 27.1648 100.03 26.068C100.039 26.0426 100.056 26.0172 100.053 25.9947C100.042 25.9101 100.05 25.7945 99.9967 25.755C99.9517 25.7183 99.8307 25.7437 99.7575 25.7747C99.4648 25.9016 99.1806 26.0595 98.8851 26.1751C98.3476 26.3894 97.8045 26.5868 97.2585 26.7813C97.0053 26.8716 96.8336 27.0238 96.7829 27.2861C96.7295 27.5765 96.5606 27.788 96.358 27.9994C96.2032 28.1602 96.0456 28.3632 96.0006 28.5718C95.9359 28.8735 95.9106 29.1696 95.7079 29.429C95.5954 29.5756 95.6714 29.7053 95.8627 29.711C96.0259 29.7166 96.1948 29.6828 96.358 29.663C96.8026 29.6067 97.2473 29.5221 97.6947 29.4967C97.9593 29.4826 98.2266 29.5615 98.4911 29.601H98.4939ZM102.428 24.1337C102.634 24.4128 102.887 24.4523 103.146 24.3649C103.498 24.2465 103.844 24.0998 104.181 23.9476C104.556 23.7784 104.938 23.612 105.287 23.4006C105.501 23.2709 105.681 23.0707 105.842 22.8761C105.909 22.7943 105.932 22.628 105.898 22.5208C105.794 22.1796 105.29 21.8723 104.921 21.8836C104.637 21.8949 104.353 21.9033 104.069 21.9005C103.551 21.8949 103.512 21.9231 103.301 22.3686C103.067 22.8535 102.816 23.3301 102.577 23.8122C102.527 23.9137 102.482 24.0209 102.428 24.1337Z" fill="white"/>
<path d="M162.029 45.3543C162.22 45.2134 162.339 45.1231 162.457 45.0357C164.469 43.5385 166.247 41.8157 167.671 39.746C168.395 38.6943 168.927 37.5551 169.366 36.3624C170.168 34.18 170.905 31.9778 171.451 29.7164C171.479 29.5952 171.501 29.4711 171.532 29.3217C170.517 29.364 169.534 29.4035 168.49 29.4458C167.913 29.9787 167.14 29.9279 166.363 29.88C165.547 29.8292 164.829 29.474 164.097 29.1722C163.684 29.0002 163.385 28.6901 163.211 28.2107C166.177 27.9062 169.093 27.4945 172.014 26.8911C172.07 26.4118 172.157 25.9465 172.171 25.4785C172.219 23.6401 172.253 21.7988 172.275 19.9604C172.281 19.4049 172.14 18.8805 171.834 18.3983C171.561 17.9697 171.33 17.5129 171.088 17.0843C171.639 16.1679 172.574 15.8888 173.488 16.3456C173.604 16.402 173.725 16.4584 173.818 16.5429C174.417 17.0843 175.025 17.6144 175.593 18.1868C175.965 18.559 176.055 19.0722 176.046 19.5769C176.035 20.4059 176.01 21.2377 175.937 22.0639C175.824 23.3102 175.664 24.5508 175.526 25.7943C175.517 25.8817 175.526 25.9691 175.526 26.0763C175.61 26.0763 175.686 26.0904 175.754 26.0763C177.991 25.5659 180.228 25.0499 182.426 24.3816C183.509 24.0517 184.531 23.5724 185.519 23.0169C185.679 22.9267 185.803 22.828 185.865 22.6363C185.952 22.3656 186.104 22.2866 186.374 22.3881C187.098 22.6588 187.725 23.0705 188.144 23.7387C188.288 23.9643 188.325 24.2181 188.26 24.4775C188.195 24.7256 188.111 24.9653 188.037 25.2106C187.978 25.4108 187.804 25.4785 187.638 25.5377C186.757 25.8507 185.887 26.2172 184.984 26.4484C183.394 26.8545 181.782 27.1703 180.183 27.5397C178.559 27.9147 176.941 28.3123 175.317 28.6929C175.112 28.7408 175.073 28.8649 175.042 29.0454C174.721 30.8556 174.361 32.6574 173.826 34.4197C173.55 35.3248 173.204 36.2017 172.788 37.0532C172.264 38.1219 171.78 39.2075 171.257 40.2733C170.97 40.857 170.654 41.4294 170.308 41.982C169.866 42.6841 169.273 43.2537 168.555 43.6795C167.528 44.2885 166.45 44.8045 165.291 45.1147C164.959 45.2049 164.61 45.25 164.266 45.281C163.653 45.3346 163.037 45.3628 162.42 45.3966C162.325 45.4023 162.229 45.3769 162.038 45.3572L162.029 45.3543Z" fill="white"/>
<path d="M213.033 19.3881C213.157 19.5376 213.292 19.687 213.413 19.8505C213.59 20.0874 213.764 20.313 214.063 20.4229C214.271 20.4991 214.361 20.6711 214.375 20.9023C214.389 21.1138 214.462 21.3196 214.51 21.5339C214.696 21.5564 214.854 21.5762 215.07 21.6016C214.991 21.7369 214.955 21.8412 214.884 21.9202C214.676 22.1542 214.6 22.4277 214.595 22.7294C214.592 22.9465 214.575 23.1637 214.595 23.378C214.682 24.3705 214.479 25.3263 214.257 26.285C214.156 26.7193 214.077 27.1563 213.998 27.5962C213.936 27.9402 213.961 28.2616 214.333 28.4816C215.118 28.0981 216.002 28.0304 216.866 27.881C217.125 27.8358 217.392 27.7513 217.623 27.63C218.121 27.3678 218.273 26.9054 218.259 26.3753C218.253 26.1666 218.129 26.051 217.938 26.0002C217.704 25.9382 217.468 25.8818 217.234 25.8141C216.272 25.5378 215.996 25.1966 215.993 24.2041C215.993 23.736 216.066 23.268 216.089 22.7971C216.1 22.5321 216.089 22.2642 216.066 21.9991C216.052 21.8412 215.959 21.7623 215.771 21.7989C215.447 21.861 215.444 21.8497 215.253 21.5057C215.428 21.2068 215.681 21.0151 216.041 20.9812C216.474 20.9389 216.905 20.8797 217.338 20.8684C217.811 20.8572 217.927 21.001 217.921 21.4578C217.918 21.72 217.859 21.9568 217.741 22.1909C217.51 22.6477 217.327 23.1242 217.26 23.6317C217.24 23.7671 217.231 23.9137 217.26 24.0462C217.361 24.5791 217.912 24.8357 218.377 24.5509C218.512 24.4692 218.616 24.2831 218.661 24.1252C218.729 23.8968 218.743 23.6486 218.757 23.409C218.827 22.188 218.897 20.97 218.951 19.749C218.99 18.8185 218.993 17.8881 218.689 16.9914C218.444 16.2667 218.233 16.154 217.524 16.4303C217.158 16.5741 216.801 16.7658 216.486 16.997C215.785 17.5102 215.115 18.0657 214.431 18.6014C214.341 18.6719 214.257 18.7509 214.164 18.8214C213.987 18.9595 213.815 18.9652 213.652 18.765C214.189 17.9022 214.738 17.0534 215.656 16.5177C216.196 16.2019 216.725 15.8663 217.268 15.559C217.884 15.2122 218.551 15.1558 219.241 15.2855C219.849 15.3983 220.209 15.7366 220.254 16.3598C220.299 16.9688 220.285 17.5807 220.268 18.1926C220.24 19.1202 220.155 20.0507 220.15 20.9784C220.144 22.1627 219.956 23.3075 219.578 24.4269C219.539 24.5481 219.5 24.6694 219.469 24.7934C219.435 24.9203 219.427 25.0416 219.548 25.1402C219.699 25.2643 219.657 25.4053 219.567 25.5463C219.511 25.6309 219.472 25.7296 219.404 25.8057C219.038 26.2145 219.075 26.6826 219.184 27.1648C219.199 27.2268 219.221 27.2888 219.227 27.3509C219.241 27.5623 219.317 27.74 219.564 27.864C219.46 27.9627 219.396 28.0586 219.305 28.1094C218.996 28.2898 218.841 28.5633 218.74 28.8932C218.571 29.4543 218.38 30.007 218.197 30.5625C218.076 30.9262 217.811 31.1095 217.443 31.1856C217.243 31.2251 217.074 31.1884 216.961 31.0334C216.821 30.8388 216.694 30.633 216.593 30.4158C216.466 30.1395 216.373 29.8463 216.269 29.5587C216.193 29.3528 216.061 29.2372 215.841 29.1667C215.357 29.0173 214.873 29.0596 214.398 29.1498C213.444 29.3303 212.498 29.5502 211.55 29.7476C210.95 29.8717 210.348 29.9929 209.743 30.0972C209.526 30.1339 209.402 30.2128 209.346 30.4356C209.298 30.6301 209.214 30.8219 209.11 30.9939C208.983 31.2054 208.859 31.2138 208.679 31.0418C208.533 30.9008 208.401 30.7458 208.254 30.5878C208.212 30.6076 208.159 30.6189 208.125 30.6499C207.824 30.9149 207.449 30.9967 207.072 31.0785C206.822 31.132 206.571 31.1856 206.327 31.2477C205.972 31.3379 205.623 31.3492 205.271 31.2279C205.131 31.18 204.97 31.1687 204.821 31.1743C204.635 31.1828 204.5 31.1208 204.385 30.9488C204.413 30.9093 204.447 30.8585 204.481 30.8106C204.579 30.6583 204.799 30.5935 204.77 30.351C204.731 29.9901 204.79 29.6066 204.511 29.3049C204.354 29.1357 204.292 28.9355 204.3 28.7099C204.306 28.4928 204.306 28.2757 204.326 28.0614C204.362 27.6498 204.345 27.2522 204.134 26.8772C203.991 26.6178 204.025 26.3301 204.106 26.0566C204.255 25.5604 204.227 25.0669 204.07 24.5904C203.825 23.8432 203.535 23.1073 203.262 22.3685C203.231 22.2839 203.166 22.205 203.166 22.1204C203.166 22.002 203.175 21.8553 203.245 21.7764C203.293 21.7228 203.459 21.7313 203.555 21.7651C203.845 21.8638 204.126 21.985 204.41 22.1035C204.905 22.3093 205.229 22.673 205.361 23.1834C205.511 23.7614 205.662 24.3423 205.75 24.9316C205.845 25.5829 205.885 26.2456 205.921 26.9054C205.98 27.9853 206.014 29.068 206.062 30.148C206.065 30.2241 206.076 30.2974 206.087 30.4243C206.768 30.2833 207.309 29.928 207.858 29.5446C207.796 29.3444 207.734 29.1639 207.686 28.9835C207.357 27.6639 207.016 26.3471 206.704 25.0218C206.512 24.2041 206.597 23.378 206.707 22.5546C206.861 21.407 207.002 20.2594 207.16 19.1118C207.182 18.9398 207.236 18.7622 207.317 18.6071C207.404 18.4407 207.551 18.4322 207.706 18.5394C208.145 18.8467 208.367 19.5065 208.204 20.0197C207.934 20.8656 207.883 21.7425 207.835 22.6195C207.796 23.3441 207.798 24.0688 207.984 24.7821C208.164 25.4701 208.508 26.0707 208.913 26.6826C209.048 26.5614 209.158 26.4627 209.284 26.3471C209.422 26.5388 209.355 26.7277 209.349 26.9054C209.335 27.4778 209.301 28.0501 209.301 28.6225C209.301 28.896 209.324 29.1808 209.512 29.4515C210.162 29.2964 210.776 29.0709 211.302 28.6254C211.164 28.4111 211.021 28.2193 210.905 28.0107C210.475 27.2212 210.382 26.3696 210.466 25.4927C210.494 25.2023 210.548 24.9119 210.562 24.6214C210.607 23.7135 210.953 22.8958 211.386 22.0922C211.35 22.3685 211.325 22.6448 211.274 22.9183C211.116 23.7924 211.159 24.6694 211.223 25.5463C211.24 25.7662 211.325 26.0031 211.451 26.1835C211.674 26.5078 211.935 26.8095 212.211 27.0915C212.49 27.3762 212.794 27.3142 212.92 26.9392C213.05 26.5557 213.131 26.1553 213.196 25.7549C213.404 24.4917 213.449 23.2229 213.3 21.9484C213.294 21.9117 213.297 21.8722 213.292 21.8328C213.218 21.142 212.616 20.8459 212.011 21.2012C211.825 21.3083 211.637 21.407 211.42 21.5254C211.378 21.4014 211.361 21.3196 211.325 21.2435C211.265 21.1222 211.22 20.9784 211.125 20.8966C210.886 20.688 210.798 20.437 210.753 20.1325C210.573 18.9454 210.731 17.7724 210.863 16.5938C211.004 15.356 211.139 14.1153 211.257 12.8719C211.291 12.5053 211.254 12.1331 211.249 11.7637C211.249 11.6622 211.235 11.5579 211.249 11.4592C211.31 11.0757 211.502 11.0109 211.831 11.2195C212.464 11.6199 212.723 12.1698 212.574 12.9085C212.521 13.1679 212.49 13.4302 212.45 13.6839C212.825 13.8757 213.151 13.8334 213.379 13.5176C213.565 13.261 213.781 13.1115 214.091 13.058C214.24 13.0326 214.375 12.948 214.521 12.9001C214.617 12.869 214.718 12.838 214.817 12.8352C215.076 12.8239 215.321 13.0128 215.357 13.23C215.385 13.4104 215.16 13.7206 214.938 13.7516C214.637 13.7911 214.42 13.9349 214.223 14.1548C214.139 14.2507 213.998 14.3296 213.871 14.355C213.497 14.4311 213.233 14.6539 212.988 14.9274C212.332 15.6577 211.966 16.5064 211.907 17.482C211.879 17.9501 211.837 18.4238 211.879 18.889C211.938 19.5432 212.298 19.7096 212.886 19.4163C212.909 19.405 212.937 19.4079 213.033 19.3909V19.3881Z" fill="white"/>
<path d="M132.449 35.5171C131.971 35.2069 131.417 35.1816 131.071 35.4607C130.919 35.5819 130.772 35.596 130.609 35.5763C130.305 35.5397 130.004 35.4776 129.7 35.4522C129.365 35.424 129.115 35.2661 128.932 35.0067C128.687 34.6543 128.462 34.2877 128.231 33.924C128.113 33.7379 127.992 33.5518 127.888 33.3572C127.831 33.2501 127.789 33.126 127.775 33.0076C127.741 32.7059 127.722 32.4014 127.713 32.0968C127.702 31.719 128.451 30.9408 128.839 30.9323C128.954 30.9323 129.084 30.9859 129.185 31.0479C129.354 31.1466 129.503 31.2735 129.663 31.3835C129.92 31.5555 130.072 31.5696 130.305 31.3722C130.494 31.2143 130.685 31.031 130.803 30.8195C131.729 29.1587 132.669 27.5064 133.536 25.8146C134.068 24.777 134.343 23.635 134.597 22.4959C134.673 22.1519 134.836 21.8784 135.14 21.6951C135.376 21.5541 135.534 21.6133 135.528 21.884C135.52 22.3521 135.483 22.8258 135.41 23.2882C135.289 24.0692 135.089 24.8334 134.799 25.5721C134.293 26.8635 133.767 28.1408 133.159 29.39C132.734 30.2584 132.447 31.1917 132.103 32.0997C131.94 32.5282 132.053 32.8779 132.404 33.1739C132.835 33.532 133.201 33.9494 133.499 34.4259C133.879 35.0293 133.882 35.6158 133.474 36.2136C132.613 37.4739 131.794 38.7682 130.893 40.0004C130.122 41.0521 129.269 42.0446 128.439 43.0541C127.812 43.8154 127.159 44.557 126.529 45.3183C126.298 45.5946 126.123 45.9189 125.895 46.1952C125.631 46.5138 125.372 46.8522 125.048 47.1031C124.412 47.5966 123.472 47.6332 122.887 46.8804C122.555 46.4546 122.254 46.0034 121.981 45.5382C121.784 45.2027 121.801 44.8164 121.913 44.447C122.001 44.1707 122.124 43.9028 122.203 43.6236C122.254 43.4432 122.316 43.2289 122.268 43.0597C122.031 42.2448 122.138 41.4271 122.243 40.6235C122.507 38.6046 122.819 36.5914 123.118 34.5753C123.315 33.2529 123.652 31.9671 124.21 30.749C124.398 30.3374 124.66 29.9539 124.896 29.5648C124.953 29.4717 125.037 29.3928 125.116 29.3166C125.231 29.2039 125.372 29.1221 125.529 29.2151C125.704 29.3195 125.631 29.4802 125.577 29.624C125.417 30.0723 125.358 30.5319 125.33 31.0084C125.293 31.6147 125.166 32.2153 125.107 32.8243C125.051 33.4164 125.02 34.0142 125.006 34.6092C124.978 35.7878 124.995 36.9664 124.939 38.145C124.896 38.9881 124.775 39.8256 124.671 40.6658C124.584 41.3651 124.471 42.0644 124.37 42.7608C124.362 42.8144 124.353 42.8708 124.356 42.9272C124.362 43.1471 124.502 43.243 124.682 43.1189C124.877 42.9864 125.051 42.8229 125.214 42.6537C126.028 41.8134 126.821 40.9562 127.646 40.1273C128.242 39.5267 128.873 38.9543 129.495 38.3762C130.308 37.6177 131.13 36.8677 131.94 36.1036C132.12 35.9344 132.267 35.7342 132.452 35.5227L132.449 35.5171Z" fill="white"/>
<path d="M214.921 43.5385C214.566 43.5695 214.251 43.5921 213.939 43.6287C212.521 43.8007 211.257 44.3759 210.086 45.1513C209.408 45.5997 208.904 46.2341 208.586 46.9954C208.561 47.0546 208.533 47.111 208.494 47.1618C208.474 47.19 208.432 47.1984 208.364 47.2351C208.125 46.9898 207.984 46.6993 208.01 46.3582C208.077 45.4812 208.454 44.7848 209.217 44.297C209.968 43.8148 210.79 43.5047 211.634 43.2481C212.27 43.0563 212.909 42.8787 213.545 42.6898C213.911 42.5798 213.987 42.5234 214.212 42.2358C214.158 42.1484 214.108 42.0469 214.037 41.9623C213.762 41.6268 213.48 41.2969 213.204 40.9641C213.033 40.7583 212.855 40.5553 212.704 40.3353C212.431 39.9434 212.445 39.5487 212.74 39.1708C212.875 39.0016 213.01 38.8296 213.154 38.6689C213.373 38.4208 213.584 38.1586 213.832 37.9386C214.507 37.3352 214.865 36.557 215.112 35.7195C215.149 35.5983 215.141 35.463 215.163 35.2458C214.938 35.3473 214.786 35.3981 214.651 35.4799C213.705 36.0607 212.76 36.6472 211.817 37.2365C211.378 37.51 211.125 37.5213 210.796 37.2704C210.475 37.0251 210.385 36.6839 210.494 36.244C210.537 36.0748 210.646 35.9874 210.77 35.9C211.856 35.1218 213.01 34.4761 214.319 34.1349C215.036 33.9488 215.751 33.7542 216.469 33.5766C216.812 33.492 217.381 33.8022 217.51 34.1321C217.6 34.3576 217.527 34.5578 217.398 34.7439C217.074 35.2007 216.767 35.6744 216.413 36.1087C215.734 36.9376 215.022 37.7412 214.33 38.559C214.167 38.7535 214.006 38.9565 213.877 39.1736C213.795 39.309 213.759 39.481 213.734 39.6389C213.703 39.825 213.787 39.966 213.984 40.0083C214.184 40.0534 214.381 40.0985 214.583 40.1182C214.747 40.1351 214.918 40.1267 215.081 40.107C215.726 40.0308 216.159 40.3438 216.491 40.8429C216.7 41.153 216.846 41.4886 216.905 41.8608C216.961 42.2245 217.051 42.3148 217.42 42.3627C217.583 42.3824 217.752 42.3711 217.918 42.3627C219.021 42.3035 220.119 42.3148 221.216 42.4727C221.622 42.5319 221.942 42.701 222.153 43.0591C222.314 43.3327 222.486 43.6033 222.646 43.8769C222.691 43.953 222.73 44.0348 222.756 44.1193C222.837 44.3788 222.764 44.4915 222.497 44.4859C222.305 44.4831 222.114 44.4549 221.926 44.4182C220.648 44.1673 219.37 43.9079 218.09 43.6569C217.744 43.5892 217.4 43.5949 217.068 43.7218C216.705 43.8628 216.601 44.0658 216.646 44.4521C216.728 45.1654 216.646 45.845 216.235 46.4653C216.033 46.7727 215.861 47.1026 215.681 47.424C215.411 47.9118 215.056 48.3263 214.592 48.6393C214.125 48.9523 213.66 49.2709 213.182 49.5641C212.529 49.9617 211.817 50.0491 211.074 49.8912C210.939 49.863 210.801 49.8179 210.68 49.7502C210.233 49.5049 209.788 49.2511 209.346 48.9946C209.115 48.862 208.952 48.6703 208.871 48.4165C208.778 48.1317 208.626 47.8639 208.631 47.5424C208.843 47.4888 208.938 47.627 209.014 47.7483C209.394 48.3658 210.027 48.6703 210.613 49.0227C210.953 49.2286 211.311 49.1694 211.659 48.9494C213.469 47.8188 214.44 46.1523 214.823 44.1081C214.854 43.9361 214.879 43.7641 214.913 43.5385H214.921Z" fill="white"/>
<path d="M94.1208 17.2148C94.7258 17.0541 95.2577 16.9187 95.7867 16.7749C96.8308 16.493 97.8748 16.211 98.9189 15.9234C99.0146 15.898 99.1103 15.8473 99.1834 15.7824C99.7941 15.2495 100.247 14.5953 100.602 13.8763C100.681 13.7128 100.703 13.5041 100.689 13.3208C100.658 12.9374 100.607 12.5539 100.529 12.1789C100.391 11.5275 100.861 11.3894 101.339 11.5163C101.423 11.5388 101.505 11.5867 101.581 11.6347C101.944 11.8546 102.302 12.0858 102.67 12.3001C102.957 12.4693 103.12 12.7033 103.165 13.0361C103.225 13.4675 103.196 13.8735 102.974 14.2654C102.746 14.6658 102.549 15.0831 102.316 15.5343C102.743 15.4751 103.12 15.4187 103.503 15.3707C105.116 15.1677 106.725 14.9534 108.341 14.7673C109.134 14.6771 109.936 14.6151 110.736 14.5897C111.836 14.5559 112.936 14.6405 113.991 14.9591C114.549 15.1254 115.024 15.4864 115.413 15.9262C115.694 16.2477 115.674 16.5578 115.356 16.8454C114.912 17.2458 114.383 17.4883 113.772 17.4319C113.457 17.4009 113.192 17.477 112.922 17.6152C111.974 18.1058 111.023 18.5964 110.063 19.0673C109.874 19.1604 109.646 19.2083 109.435 19.2055C109.213 19.2055 109.154 19.025 109.312 18.8587C109.441 18.7205 109.599 18.6021 109.759 18.4949C110.091 18.2722 110.432 18.0635 110.769 17.8492C111.405 17.446 111.858 16.8708 112.261 16.2533C112.306 16.1828 112.326 16.0926 112.382 15.9544C112.219 15.9319 112.086 15.8952 111.957 15.898C110.809 15.929 109.655 15.929 108.51 16.0136C107.662 16.0785 106.821 16.2336 105.985 16.3886C105.023 16.5663 104.06 16.758 103.115 17.0005C102.608 17.1302 102.135 17.3812 101.649 17.587C101.128 17.8069 100.61 18.0353 100.092 18.2609C99.9151 18.337 99.7181 18.3878 99.569 18.5006C99.3579 18.6613 99.1384 18.7121 98.8823 18.6951C98.418 18.6613 97.9536 18.6472 97.4921 18.5964C97.2529 18.5683 97.0081 18.5034 96.7858 18.4104C95.9894 18.0776 95.2014 17.728 94.4106 17.3812C94.3346 17.3473 94.2671 17.2994 94.1292 17.2176L94.1208 17.2148Z" fill="white"/>
<path d="M126.045 17.4766C126.239 17.0113 126.444 16.6983 126.872 16.5489C127.384 16.3684 127.877 16.1372 128.377 15.9314C128.923 15.7086 129.371 15.3534 129.68 14.8627C130.013 14.3383 130.432 14.2255 131.034 14.3326C131.659 14.4454 132.101 14.7866 132.506 15.2096C132.599 15.3082 132.638 15.4802 132.655 15.6241C132.692 15.9258 132.717 16.2303 132.714 16.532C132.714 16.6927 132.661 16.8591 132.599 17.0085C132.374 17.5612 132.137 18.1082 131.898 18.6524C131.572 19.3968 131.42 20.1863 131.332 20.9871C131.285 21.4128 131.254 21.8442 131.231 22.2728C131.209 22.7183 131.344 22.8339 131.769 22.755C132.196 22.6732 132.202 22.693 132.36 23.1046C132.585 23.6968 132.464 24.2184 132.092 24.7062C131.873 24.9938 131.597 25.1461 131.22 25.0389C130.95 24.96 130.713 25.0192 130.468 25.1686C129.838 25.5521 129.194 25.913 128.479 26.1217C127.969 26.2711 127.598 26.6461 127.173 26.9309C127.001 27.0465 126.984 27.2242 127.114 27.4046C127.215 27.5484 127.376 27.7035 127.272 27.8896C127.153 28.1011 126.92 28.0165 126.734 28.008C126.27 27.9827 125.876 27.774 125.541 27.4667C124.832 26.8125 124.432 25.9779 124.213 25.0615C124.092 24.5511 124.03 24.0267 124.08 23.4938C124.094 23.333 124.001 23.1498 123.917 22.9975C123.729 22.6648 123.729 22.614 123.954 22.2898C124.142 22.0191 124.393 21.833 124.677 21.6751C124.82 21.5961 124.936 21.5961 125.06 21.692C125.42 21.9739 125.712 22.2616 125.642 22.7945C125.563 23.3866 125.825 23.9364 126.002 24.4863C126.047 24.6301 126.197 24.7541 126.323 24.8557C126.607 25.0784 126.945 25.1602 127.3 25.1743C127.896 25.1968 127.955 25.1686 128.166 24.6188C128.991 22.4956 129.703 20.3414 129.99 18.0715C130.018 17.8544 130.091 17.6401 130.134 17.423C130.159 17.3018 130.193 17.1777 130.179 17.0593C130.131 16.7068 129.939 16.6138 129.624 16.7773C129.205 16.9972 128.797 17.2397 128.375 17.4456C127.623 17.8149 126.866 17.6317 126.045 17.4794V17.4766Z" fill="white"/>
<path d="M183.453 44.8779C183.901 44.5057 184.328 44.142 184.77 43.7924C184.874 43.7078 185.026 43.6824 185.156 43.6288C185.617 43.4314 185.702 43.1326 185.367 42.7716C185.071 42.453 184.751 42.1541 184.416 41.8778C184.008 41.5394 183.501 41.4238 182.989 41.3505C182.012 41.2124 181.03 41.0996 180.054 40.9473C179.44 40.8514 178.883 40.6005 178.317 40.2029C178.452 40.1691 178.526 40.1352 178.602 40.1324C180.543 40.0535 182.485 39.9914 184.424 40.1296C186.65 40.2875 188.769 40.8627 190.807 41.7537C191.029 41.8496 191.237 41.9849 191.454 42.0921C192.205 42.4671 192.428 43.141 192.47 43.8995C192.481 44.08 192.411 44.2802 192.326 44.4437C192.231 44.6326 192.067 44.7003 191.817 44.6806C191.293 44.6354 190.764 44.6693 190.238 44.6552C189.777 44.6411 189.315 44.627 188.854 44.579C188.012 44.4945 187.185 44.548 186.366 44.7482C185.795 44.8892 185.226 45.0528 184.658 45.2078C184.509 45.2473 184.362 45.3037 184.213 45.3234C183.822 45.377 183.69 45.2981 183.45 44.8807L183.453 44.8779Z" fill="white"/>
<path d="M93.4003 49.3558C93.6817 48.9469 93.9462 48.6086 94.3008 48.3435C94.4359 48.2448 94.5794 48.1603 94.7201 48.0672C94.8271 47.9967 94.9706 47.946 95.0325 47.8445C95.2436 47.4976 95.6291 47.4497 95.9387 47.2664C96.4143 46.9816 96.8702 46.6658 97.3204 46.3472C97.3992 46.2908 97.4583 46.1583 97.4611 46.0568C97.4639 45.9102 97.312 45.9102 97.2022 45.882C96.766 45.772 96.327 45.6677 95.8936 45.5436C95.5897 45.4562 95.3252 45.053 95.3421 44.7513C95.3505 44.6047 95.4546 44.5483 95.57 44.5285C95.8993 44.4693 96.2313 44.4298 96.5634 44.3734C97.3908 44.2381 98.2153 44.1028 99.0427 43.9561C99.3325 43.9054 99.6196 43.8236 99.9066 43.7531C100.126 43.6967 100.323 43.7418 100.489 43.8828C100.81 44.1591 101.128 44.4411 101.435 44.7315C101.559 44.85 101.536 44.9599 101.356 45.0727C101.06 45.256 100.754 45.4365 100.391 45.4336C100.121 45.4336 99.9601 45.5408 99.8475 45.7805C99.7772 45.9271 99.6674 46.0652 99.5436 46.1724C99.2734 46.4121 99.0033 46.6574 98.7022 46.8491C98.0211 47.2805 97.4274 47.805 96.8505 48.3633C96.4846 48.7186 96.054 49.0146 95.646 49.3248C95.3027 49.5842 94.9256 49.6885 94.4837 49.6096C94.1432 49.5504 93.7971 49.5306 93.4087 49.353L93.4003 49.3558Z" fill="white"/>
<path d="M222.626 28.1154C222.5 28.1097 222.362 28.1013 222.227 28.0956C221.602 28.0731 220.974 28.0533 220.35 28.0336C220.124 28.0251 219.947 27.9575 219.905 27.6642C220.054 27.5937 220.212 27.5176 220.372 27.4471C221.27 27.0495 222.21 27.0552 223.161 27.1539C223.338 27.1736 223.518 27.1905 223.696 27.2159C224.194 27.2948 224.616 27.5148 224.945 27.8983C225.153 28.1379 225.384 28.3635 225.559 28.6257C225.829 29.0374 225.753 29.3983 225.331 29.6295C223.575 30.591 221.942 31.7753 220.04 32.4718C219.86 32.5366 219.697 32.6409 219.517 32.703C219.272 32.7904 219.145 32.7537 219.049 32.5902C218.94 32.4041 218.971 32.2039 219.148 32.0488C219.877 31.4087 220.62 30.7828 221.329 30.123C221.748 29.7339 222.114 29.2884 222.494 28.8569C222.677 28.6483 222.697 28.465 222.632 28.1125L222.626 28.1154Z" fill="white"/>
<path d="M199.643 31.252C199.756 31.3422 199.862 31.4127 199.95 31.5029C200.09 31.6439 200.226 31.6946 200.363 31.4944C200.572 31.6523 200.67 31.8497 200.738 32.0697C200.831 32.3742 200.921 32.6787 201.028 32.9776C201.354 33.8883 201.258 34.7765 200.909 35.6563C200.774 35.9975 200.558 36.2738 200.271 36.4994C199.77 36.8913 199.198 37.1394 198.576 37.2663C198.084 37.3678 197.848 37.1789 197.817 36.677C197.805 36.4881 197.808 36.2907 197.853 36.1102C198.132 35.0275 198.458 33.9645 199.027 32.9804C199.229 32.6308 199.272 32.1853 199.364 31.7792C199.432 31.4832 199.418 31.4747 199.64 31.252H199.643Z" fill="white"/>
<path d="M87.4287 21.7685C87.4878 21.3427 87.5722 20.8972 87.8762 20.4912C88.5093 19.6481 89.0919 18.7712 89.5449 17.8153C89.6997 17.4911 89.953 17.3698 90.3132 17.4826C90.7747 17.6264 91.1743 17.8886 91.5205 18.2242C91.695 18.3962 91.6696 18.6048 91.6049 18.7994C91.5486 18.9658 91.4501 19.1208 91.3573 19.2759C90.7972 20.1951 90.2344 21.1172 89.666 22.0307C89.5027 22.293 89.317 22.5383 89.1453 22.7949C89.0243 22.9753 88.9118 23.1614 88.7879 23.3391C88.6191 23.5844 88.4305 23.6267 88.2448 23.4321C87.8508 23.0148 87.5891 22.5185 87.4315 21.9687C87.4174 21.9208 87.4315 21.8672 87.4315 21.7685H87.4287Z" fill="white"/>
<path d="M160.566 56.7578V62.7327C160.566 63.0711 160.861 63.8521 161.089 64.1284C161.798 64.9884 163.495 64.8785 164.061 63.9198C164.145 63.7788 164.415 63.0429 164.415 62.916V56.8509L164.514 56.7606H166.374C166.287 58.6047 166.489 60.539 166.374 62.3746C166.231 64.7488 165.13 66.3898 162.355 66.3475C159.629 66.3052 158.666 64.5316 158.537 62.2533C158.435 60.4544 158.618 58.568 158.537 56.7606H160.56L160.566 56.7578Z" fill="white"/>
<path d="M94.1601 56.0303C94.2529 56.0838 94.2501 56.1515 94.2614 56.2389C94.3374 56.8311 94.2839 57.8631 94.2614 58.489C94.2445 58.9204 94.1629 59.4139 94.1291 59.8509L95.2041 59.1827C96.1356 58.7005 97.6721 58.7541 98.3335 59.6113C98.5614 59.9045 98.8935 60.804 98.8935 61.1536V66.0683L98.795 66.1585H96.9686L96.8701 66.0683V61.2749C96.8701 61.2213 96.6506 60.7786 96.5859 60.7194C95.9161 60.0793 94.7398 60.6968 94.2586 61.2749V66.0683L94.1601 66.1585H92.3337L92.2352 66.0683V56.1205L92.3337 56.0303H94.1601Z" fill="white"/>
<path d="M127.803 56.0292L127.77 59.7906C127.857 59.8978 127.862 59.8047 127.933 59.7568C128.991 59.0293 130.283 58.4062 131.546 59.2521C132.081 59.6102 132.503 60.6196 132.503 61.2117V66.0644L132.404 66.1546H130.578L130.48 66.0644V61.333C130.48 61.2992 130.353 60.9918 130.322 60.9354C129.784 59.9908 128.386 60.6112 127.854 61.2569C127.789 62.7456 127.772 64.2683 127.801 65.7627C127.801 65.8783 127.848 65.9798 127.868 66.0926C127.803 66.0785 127.727 66.1546 127.705 66.1546H125.943L125.845 66.0644V56.1166L125.943 56.0264H127.803V56.0292Z" fill="white"/>
<path d="M107.049 56.0292L106.984 59.8498L108.101 59.159C109.542 58.5387 111.172 58.9053 111.585 60.4561C111.639 60.6563 111.749 61.1553 111.749 61.3358V66.0672L111.65 66.1574H109.824L109.725 66.0672V61.395C109.725 61.2089 109.525 60.8311 109.368 60.6957C108.661 60.0867 107.505 60.7268 107.049 61.3358V66.1574H105.09V56.0264H107.049V56.0292Z" fill="white"/>
<path d="M89.9895 65.1047C88.498 66.9459 84.8312 66.5145 83.2327 64.9721L84.319 63.7428C84.5132 63.6948 84.924 64.0924 85.1126 64.1996C85.8977 64.6366 86.984 64.8988 87.862 64.5548C88.6078 64.2644 88.7794 63.3734 88.1547 62.8856C86.8658 61.879 84.2008 61.9636 83.6999 59.9278C82.9204 56.75 87.5918 55.718 89.8769 57.4605C90.0176 57.5677 90.2653 57.7228 90.1781 57.9089C90.1471 57.9765 89.3254 58.9268 89.255 58.938C88.5065 58.3093 86.3705 57.7453 85.7795 58.7378C85.363 59.4343 85.9793 59.8826 86.5759 60.1646C87.9464 60.8188 89.9867 61.0754 90.4679 62.6741C90.7296 63.5482 90.572 64.3828 89.9867 65.1018L89.9895 65.1047Z" fill="white"/>
<path d="M123.228 58.9317C123.107 58.9966 122.558 58.5314 122.366 58.4439C121.787 58.1761 121.179 58.1338 120.56 58.303C117.233 59.2081 118.362 66.1952 122.366 64.4724C122.603 64.3709 123.214 63.8549 123.335 63.8549C123.529 63.8549 124.069 64.7064 124.314 64.8277C124.398 64.9517 124.218 65.135 124.125 65.2309C122.828 66.5449 120.36 66.5956 118.776 65.7272C116.071 64.2412 115.897 59.9609 117.914 57.9138C119.333 56.473 121.812 56.16 123.554 57.2822C123.731 57.3979 124.224 57.6967 124.117 57.9138L123.225 58.9374L123.228 58.9317Z" fill="white"/>
<path d="M146.599 59.0614H148.197L148.459 59.9693C149.247 59.2842 150.063 58.802 151.192 58.8866C152.514 58.9853 153.15 59.944 153.254 61.0944C153.398 62.6875 153.117 64.4272 153.294 66.0344L153.224 66.1585H151.397L151.299 66.0683V61.5173C151.299 61.4779 151.183 61.1169 151.152 61.0464C150.691 59.9327 149.199 60.5868 148.622 61.2748V66.0683L148.524 66.1585H146.697L146.599 66.0683V59.0614Z" fill="white"/>
<path d="M173.294 61.3376C173.263 61.1599 173.061 60.7878 172.906 60.6693C172.202 60.1223 171.158 60.7144 170.669 61.2615C170.604 62.7502 170.587 64.2729 170.615 65.7673C170.615 65.8829 170.663 65.9844 170.683 66.0972C170.618 66.0831 170.542 66.1592 170.519 66.1592H168.758L168.659 66.069V59.0621H170.291L170.424 59.9108C170.669 59.9419 170.77 59.705 170.95 59.5838C171.941 58.9127 173.488 58.4756 174.504 59.3638C175.886 60.5706 175.104 64.2954 175.32 65.9506L175.219 66.1592H173.393L173.294 66.069V61.3376Z" fill="white"/>
<path d="M220.707 59.0615L222.666 64.3399L224.264 59.0615H226.158L223.549 66.1896C223.057 67.3683 222.497 68.6315 221.005 68.9219C220.448 69.0319 219.756 69.0544 219.252 68.8007L219.668 67.4416C220.805 67.7574 221.529 66.9876 221.7 66.0176L218.785 59.0643H220.71L220.707 59.0615Z" fill="white"/>
<path d="M140.205 63.1278C140.343 64.9352 142.549 65.3525 143.959 64.408L144.635 65.5161C144.581 65.7868 143.076 66.2182 142.766 66.2661C139.479 66.7737 137.422 63.9371 138.505 61.1541C139.755 57.9453 144.587 58.106 144.961 61.7095C145.003 62.1184 145.046 62.7782 144.806 63.1278H140.205ZM143.273 61.8533C143.273 59.6963 140.405 59.9106 140.141 61.8533H143.273Z" fill="white"/>
<path d="M190.719 63.1269C190.975 64.9597 193.047 65.3234 194.538 64.407L195.214 65.5236C195.197 65.7182 193.609 66.2229 193.348 66.2652C190.117 66.7897 188.105 64.1223 188.975 61.3533C190.021 58.0205 195.09 58.0036 195.475 61.5874C195.506 61.8693 195.534 62.6617 195.481 62.9126C195.467 62.9803 195.368 63.1269 195.32 63.1269H190.719ZM193.787 61.8524C193.902 59.6954 190.86 59.9153 190.719 61.8524H193.787Z" fill="white"/>
<path d="M182.691 59.0615L184.357 64.7037L184.517 64.5514L186.149 59.0615H188.108L185.499 66.1304C185.387 66.1812 183.67 66.1868 183.439 66.1643C183.346 66.153 183.268 66.1586 183.22 66.0656L180.67 59.0643H182.693L182.691 59.0615Z" fill="white"/>
<path d="M205.063 58.897C206.175 58.7842 207.278 59.1112 208.139 59.757L207.252 60.8143C206.906 60.7128 206.667 60.4816 206.304 60.3773C205.693 60.2025 204.59 60.1489 204.616 60.9722C204.627 61.2937 204.784 61.3895 205.057 61.5362C206.18 62.1424 208.057 62.2552 208.212 63.8201C208.42 65.9179 206.048 66.6144 204.216 66.1999C203.895 66.1266 202.331 65.5739 202.333 65.2779L203.217 64.1613C203.878 64.6688 205.108 65.1989 205.944 64.8098C206.27 64.6575 206.405 64.2741 206.304 63.9554C206.144 63.4535 204.188 62.9714 203.645 62.6048C201.759 61.3303 202.905 59.1141 205.063 58.897Z" fill="white"/>
<path d="M218.064 59.061V60.4257L217.966 60.516H216.269L216.171 60.6062V63.9419C216.171 64.0434 216.322 64.4156 216.404 64.5143C216.753 64.9541 217.451 64.8526 217.935 64.7286L218.23 66.0397C218.166 66.1271 217.521 66.2512 217.369 66.2737C215.656 66.5106 214.367 65.8903 214.212 64.1872C214.108 63.0396 214.293 61.7764 214.201 60.6175L214.102 60.5273C213.885 60.4624 213.182 60.6259 213.109 60.4201L213.128 59.1823L214.265 59.0554C214.299 58.9905 214.324 58.9172 214.333 58.8467C214.395 58.3815 214.384 57.7809 214.471 57.3354C214.485 57.2677 214.583 57.1211 214.631 57.1211H216.066L216.165 57.2113V58.9708L216.263 59.061H218.059H218.064Z" fill="white"/>
<path d="M198.813 59.0611C198.818 59.3233 198.844 59.6109 198.886 59.8703C198.9 59.9605 198.903 60.2904 199.041 60.2735C199.57 59.281 200.822 58.5084 202.015 59.0385L201.751 60.5752C200.957 60.4709 200.31 60.4427 199.73 61.032C199.618 61.1476 199.142 61.8356 199.142 61.94V66.1554H197.183V59.0583H198.816L198.813 59.0611Z" fill="white"/>
<path d="M102.937 59.0615V66.0684L102.839 66.1615H101.013L100.914 66.0684V59.1546L101.013 59.0615H102.937Z" fill="white"/>
<path d="M211.735 59.0615H209.777V66.1586H211.735V59.0615Z" fill="white"/>
<path d="M179.364 59.0615V66.0684L179.266 66.1615H177.504L177.406 66.0684V59.0615H179.364Z" fill="white"/>
<path d="M136.55 59.0615V66.0684L136.451 66.1615H134.69L134.591 66.0684V59.0615H136.55Z" fill="white"/>
<path d="M179.274 57.5871C178.754 58.1284 177.572 57.9846 177.287 57.2628C176.913 56.3069 177.887 55.6443 178.841 55.9404C179.55 56.1603 179.761 57.0824 179.274 57.5871Z" fill="white"/>
<path d="M136.463 57.5872C135.858 58.1991 134.577 57.9143 134.425 57.0655C134.158 55.5796 136.674 55.4978 136.741 56.7977C136.752 57.0345 136.634 57.4095 136.463 57.5872Z" fill="white"/>
<path d="M101.938 55.8692C103.503 55.8635 103.43 57.888 101.992 57.9134C100.402 57.9388 100.348 55.8748 101.938 55.8692Z" fill="white"/>
<path d="M209.864 57.5858C209.681 57.3997 209.566 57.0472 209.585 56.7963C209.678 55.55 211.93 55.5415 211.915 56.909C211.904 57.8565 210.517 58.2456 209.864 57.5858Z" fill="white"/>
</svg>
