<svg width="341" height="80" viewBox="0 0 341 80" fill="none" xmlns="http://www.w3.org/2000/svg">
<path d="M97.6292 51.024C97.3723 49.8954 97.3356 48.7209 97.3631 47.5648C97.3631 47.2712 97.4457 46.7298 97.1888 46.5188C97.042 46.3903 96.9777 46.4821 96.9135 46.2802C96.1244 43.922 97.4365 42.0685 97.5925 39.7379C97.6843 38.435 97.2989 37.1412 97.2163 35.8291C97.1429 34.6637 97.5191 33.5443 97.5466 32.3882C97.565 31.4247 97.0695 30.5347 97.1154 29.5804C97.1154 29.4061 97.1521 29.2225 97.1154 29.0482C96.9594 28.2316 95.0141 27.7177 94.3443 27.4975L93.9681 27.3782C93.8213 27.3323 93.6653 27.2773 93.5093 27.2589C93.39 27.2406 93.2708 27.2406 93.1606 27.2222C92.8762 27.1764 92.6101 27.0387 92.3257 26.9745C91.6742 26.8093 91.0135 26.9928 90.3621 27.0387C89.6464 27.0938 89.417 26.9837 88.8848 26.5891C88.4352 26.2588 87.6919 26.4515 87.1781 26.4331C86.8753 26.4148 86.5633 26.3597 86.2513 26.424C85.9944 26.479 85.7834 26.6533 85.5356 26.7268C85.2512 26.8093 85.086 26.635 84.8199 26.6533C84.1226 26.69 83.4436 26.3414 82.6912 26.3322C81.2689 26.3047 79.8467 26.2863 78.4245 26.2588C78.1125 26.2588 77.7179 26.2955 77.617 26.5983C77.5252 26.8644 77.7455 27.1305 77.9473 27.314C78.9842 28.2499 80.2596 28.9381 81.6176 29.2776C82.4342 29.4886 83.3059 29.5712 84.1318 29.3877C85.0126 29.195 85.866 28.6904 86.7468 28.8555C87.068 28.9106 87.3983 29.0574 87.7011 28.9473C87.8846 28.883 88.0222 28.7271 88.1782 28.6169C89.4078 27.7636 91.821 28.7729 92.4082 30.0117C92.5275 30.2686 92.6101 30.5438 92.6927 30.8191C92.8578 31.3421 93.0414 31.856 93.2341 32.3698C93.2708 32.4799 93.3075 32.5809 93.3533 32.691C93.3992 32.8102 93.4359 32.9204 93.5093 33.0213C93.5919 33.1497 93.7112 33.2507 93.8029 33.3791C94.0048 33.6728 94.0048 34.049 94.0048 34.3976C94.0048 36.7925 93.8213 39.1598 93.8672 41.5363C93.8855 42.4723 93.8855 43.399 93.8947 44.3349C93.9131 46.2068 93.8947 48.0786 93.8029 49.9505C93.7662 50.7855 93.6928 51.6204 93.6286 52.4554C93.5919 52.9326 93.4451 53.529 92.8028 53.3271C92.4908 53.2262 92.2614 52.9693 92.0045 52.7674C91.8669 52.6573 91.7201 52.5564 91.6283 52.4096C91.4998 52.2077 91.4998 51.9416 91.5365 51.703C91.5733 51.4645 91.6283 51.2167 91.5916 50.9781C91.5549 50.7396 91.3897 50.4918 91.1512 50.4643C91.2246 49.6752 90.2428 49.0237 89.9491 48.3722C89.7289 47.8768 89.784 47.2895 89.8115 46.7757C89.8299 46.3903 89.7106 45.5002 90.0684 45.2433C90.1877 45.1516 90.3621 45.1791 90.4722 45.0598C90.5914 44.9405 90.6098 44.7478 90.619 44.5919C90.6373 44.4175 90.619 44.2248 90.6649 44.0505C90.7291 43.8303 90.8851 43.7293 91.0319 43.5642C91.3989 43.1513 91.2705 42.5181 91.2337 42.0043C91.142 40.8665 91.0961 39.7563 91.2337 38.6276C91.2888 38.1413 91.2337 37.811 90.7658 37.5908C90.2703 37.3614 89.9124 37.0311 89.6005 36.5815C89.3252 36.1777 89.105 35.7373 88.8939 35.2969C88.7288 34.9574 88.4535 34.4343 88.7563 34.0948C88.9123 33.9205 89.105 33.8746 89.16 33.6177C89.2151 33.37 89.1509 33.0672 89.1325 32.8194C89.0866 32.2964 89.0041 31.7734 88.8848 31.2504C88.793 30.8466 88.6737 30.3512 88.2241 30.2319C87.646 30.0851 86.6275 30.1585 86.077 30.4154C85.8568 30.5163 85.6641 30.7274 85.6366 30.9659C85.609 31.2412 85.8017 31.5623 85.6366 31.7826C85.5632 31.8743 85.4439 31.9202 85.3246 31.9569C84.5447 32.223 83.9758 32.3423 83.1408 32.3239C82.6269 32.3056 82.1039 32.3239 81.6451 32.5717C81.1863 32.8194 80.8835 33.2599 80.4706 33.5718C80.0669 33.8838 79.5898 34.0673 79.0943 34.205C78.8465 34.2784 78.5529 34.3976 78.3327 34.205C78.2318 34.1132 78.1492 34.0031 78.0207 33.9664C77.9198 33.9389 77.8005 33.9664 77.6996 33.9297C77.5528 33.8838 77.4702 33.7278 77.3876 33.5994C76.7453 32.6084 74.6991 32.3606 74.4606 33.8746C74.433 34.0673 74.5431 34.2784 74.4606 34.4527C74.2679 34.8564 74.1027 34.8289 74.1945 35.3244C74.2679 35.6822 74.5064 36.0217 74.7634 36.2695C75.1396 36.6365 75.58 36.9485 75.9745 37.288C76.3691 37.6275 76.8554 37.8936 76.8554 38.4717C76.8554 39.114 76.4792 39.6186 76.2131 40.1783C76.0296 40.5545 76.0296 41.1785 75.6626 41.4354C75.5708 41.4996 75.4699 41.5363 75.3965 41.6189C75.3231 41.7107 75.3139 41.8391 75.3047 41.9676C75.2864 42.3346 75.3414 42.7842 75.2588 43.1329C75.1946 43.3898 75.0203 43.6101 74.9193 43.8578C74.7634 44.2524 74.8092 44.9864 75.0845 45.3259C75.3231 45.6195 75.791 45.4085 76.0755 45.2984C76.8462 44.9956 77.6445 44.0505 78.5254 44.1422C78.6722 44.7111 78.4153 45.4085 78.0391 45.8398C77.6537 46.2802 77.2958 46.6564 77.0297 47.1886C76.8921 47.4547 76.7453 47.7299 76.6444 48.0236C76.5434 48.3355 76.5893 48.6475 76.5526 48.9778C76.5159 49.2623 76.3599 49.4458 76.2406 49.6935C76.0938 49.9872 76.1397 50.2716 76.2773 50.5652C76.4792 51.0148 76.8462 51.336 76.9013 51.8407C77.7546 52.0058 79.0484 50.4918 79.6724 49.9688C80.6358 49.1705 81.6268 48.3631 82.8013 47.9043C83.0031 47.8217 85.3062 47.0418 85.3246 47.1886C85.4806 48.1429 84.7557 49.2806 84.2969 50.0698C83.7923 50.9323 83.1683 51.7122 82.4434 52.4004C82.0672 52.7582 81.6727 53.1344 81.2322 53.4097C81.0028 53.5565 80.8377 53.5841 80.5807 53.5749C80.3789 53.5749 80.2596 53.5749 80.1311 53.7492C79.9109 54.0428 79.9017 54.3732 79.5347 54.5383C78.6997 54.9054 77.7546 54.6484 76.9655 55.199C76.7178 54.9053 76.2773 54.887 75.892 54.8778C75.1854 54.8686 74.4789 54.419 74.2036 53.7309C74.0201 53.2721 74.121 52.6848 74.121 52.1985C74.121 50.9414 74.1211 49.6844 74.1669 48.4273C74.1945 47.5556 74.2312 46.6931 74.2403 45.8214C74.2403 45.3351 74.433 44.1055 73.9834 43.7569C73.9284 43.711 73.855 43.6743 73.8182 43.6192C73.7724 43.5458 73.7632 43.4632 73.754 43.3715C73.6623 41.2152 74.2312 38.802 73.1851 36.8017C72.9741 36.4071 72.6805 35.9116 72.2584 35.7098C71.9831 35.5813 71.4693 35.4804 71.3959 35.8566C71.2215 36.7466 71.3316 37.7101 71.5519 38.5818C71.662 39.013 72.084 39.6553 72.0473 40.0958C72.029 40.2334 71.9464 40.3527 71.873 40.4811C71.5335 41.1143 71.7904 41.885 71.8363 42.6007C71.8638 43.0962 71.7812 43.5825 71.6987 44.0688C71.4326 45.6012 71.1665 47.1427 70.6343 48.6016C70.1113 50.0147 69.992 51.0699 70.2306 52.5655C70.4141 53.7125 70.5701 54.8962 71.0197 55.9697C71.3592 56.7955 71.9739 57.3553 72.8823 57.447C74.0935 57.5571 75.3047 57.1534 76.4976 57.0433C77.7271 56.9332 78.8374 56.8047 79.9843 56.3276C80.5532 56.089 81.1038 55.9055 81.7277 55.8963C82.7187 55.8688 83.4344 55.6945 84.3887 55.4008C85.0034 55.2173 85.6549 55.1714 86.2789 55.2816C86.6642 55.3458 87.068 55.4559 87.4258 55.3091C87.5359 55.2632 87.6369 55.1898 87.747 55.1439C88.0957 54.9879 88.4994 55.0797 88.8756 55.1623C89.6739 55.355 90.4813 55.4008 91.0778 55.9697C91.6191 56.4927 91.8302 57.3002 92.2247 57.9242C92.3073 58.0526 92.3899 58.1811 92.4633 58.3095C92.7936 58.8326 93.1239 59.3556 93.4267 59.9061C93.5919 60.2181 93.7479 60.5301 94.0048 60.7778C94.2617 61.0256 94.6196 61.1907 94.9591 61.099C95.2435 61.0255 95.4546 60.7962 95.7207 60.6769C95.9042 60.5943 96.1152 60.5576 96.2804 60.4475C96.418 60.3557 96.519 60.2089 96.6107 60.0713C96.7667 59.8419 96.9043 59.6492 97.0328 59.4565C97.2438 59.1262 97.3906 58.7959 97.4457 58.3279C97.5191 57.7315 97.776 57.2176 97.9504 56.6487C98.1339 56.0523 98.1431 55.4284 98.1064 54.8136C98.0329 53.5473 97.9045 52.2536 97.62 51.0149L97.6292 51.024ZM84.3703 43.9771C84.1684 44.2615 84.2786 44.2799 83.9574 44.4817C83.572 44.7203 83.3335 44.8488 83.0123 45.1607C82.9389 45.225 83.0031 45.3259 82.9022 45.381C82.8013 45.4452 82.6361 45.3534 82.5444 45.4085C82.4251 45.4819 82.3792 45.5645 82.2966 45.6195C81.9296 45.8765 81.4341 45.7755 80.9937 45.7296C81.0671 45.2617 81.5442 44.7111 81.8929 44.3716C82.2691 43.9954 82.8839 43.8853 83.2142 43.4632C83.4344 43.1788 83.3243 42.876 83.3335 42.5457C83.3518 41.9768 83.4711 41.6832 82.8288 41.5547C82.6453 41.518 82.4526 41.4721 82.2691 41.4262C81.9112 41.3437 81.5442 41.2611 81.1863 41.1968C80.3238 41.0409 79.4521 40.9858 78.5713 40.9858C78.5162 40.9858 79.131 39.4076 79.2044 39.2699C79.5255 38.7102 79.9935 38.2514 80.4982 37.8569C80.8285 37.5908 81.3699 36.9944 81.8378 37.0678C81.9388 37.0861 82.0397 37.132 82.1314 37.1871C83.2142 37.8294 83.572 39.2975 84.0767 40.3894C84.5722 41.4629 85.1594 42.876 84.3795 43.9679L84.3703 43.9771ZM88.3434 50.7579C88.3342 51.2167 88.3342 51.7122 88.0314 52.0884C87.8387 52.3362 87.591 52.2811 87.3065 52.2903C87.0129 52.2994 86.288 52.4096 86.1045 52.1526C86.0862 52.1343 86.077 52.1068 86.0678 52.0792C85.9669 51.703 86.3798 51.0791 86.6 50.813C86.6918 50.6937 87.3524 49.822 87.4075 49.822H88.0865C88.4168 49.822 88.3526 50.5561 88.3526 50.7488L88.3434 50.7579ZM88.7563 40.1967C88.7104 40.4261 88.4443 40.5545 88.2883 40.7381C87.8112 41.3253 87.0588 41.0225 86.6642 40.5362C86.2789 40.0591 86.0678 39.4718 85.8017 38.9396C85.5081 38.3615 85.187 37.7927 84.9484 37.1871C84.8566 36.9577 84.7741 36.7191 84.7282 36.4805C84.6639 36.141 85.453 35.7189 85.7191 35.618C85.9394 35.5354 86.1412 35.563 86.4073 35.563C86.8202 35.563 87.2331 35.563 87.646 35.563C87.903 35.563 88.0681 35.563 88.2241 35.7924C88.2883 35.8841 88.3434 35.9575 88.426 36.0309C88.5636 36.1502 88.7013 36.1686 88.7563 36.3521C88.8572 36.7099 88.7563 37.1871 88.7563 37.5633C88.7563 37.9395 88.7471 38.8662 88.8205 38.9304C88.8572 38.958 88.8114 39.9122 88.7563 40.2059V40.1967Z" fill="white"/>
<path d="M114.035 31.3608C114.32 31.7003 114.614 32.0306 114.825 32.4252C115.201 33.1134 114.962 33.7465 115.816 33.9575C116.127 34.0309 116.311 34.1777 116.568 34.297C117.495 34.7283 118.807 34.4347 119.779 34.2603C119.844 34.2512 119.899 34.2328 119.954 34.1961C119.954 34.1961 119.963 34.1869 119.972 34.1777C120.532 33.6639 119.44 31.9389 119.027 31.6361C118.651 31.3608 118.22 31.1956 117.862 30.8745C117.44 30.4891 117.219 30.0395 116.605 29.9386C115.439 29.7459 114.412 29.0852 113.265 28.8008C113.173 29.0026 112.953 29.232 112.925 29.4431C112.898 29.6633 113.063 29.9386 113.155 30.1221C113.375 30.5717 113.705 30.9754 114.026 31.3608H114.035Z" fill="white"/>
<path d="M129.166 53.8049C127.092 52.7956 124.743 52.3735 122.45 52.6029C121.936 52.658 121.229 52.6029 121.156 52.0891C121.11 51.7587 121.385 51.4835 121.633 51.2632C123.358 49.685 124.551 47.5287 124.973 45.2256C125.129 44.3906 125.156 43.4547 124.652 42.7757C124.239 42.216 123.523 41.9316 122.835 41.904C122.147 41.8765 121.459 42.06 120.798 42.2802C120.458 42.3903 120.119 42.5188 119.834 42.739C119.458 43.0326 119.21 43.4639 118.944 43.8585C118.045 45.1522 116.733 46.0973 115.448 47.0149C115.045 47.2993 114.623 47.593 114.136 47.6664C113.65 47.7306 113.081 47.492 112.953 47.0149C112.843 46.6203 113.063 46.2166 113.274 45.8588C113.687 45.1614 114.109 44.4732 114.522 43.7759C115.292 42.4913 116.109 41.1608 117.348 40.3258C118.302 39.6835 119.431 39.3807 120.504 38.9586C121.413 38.6008 122.275 38.142 123.092 37.6098C123.33 37.4538 123.578 37.2703 123.642 36.995C123.697 36.784 123.633 36.5821 123.505 36.4078C123.358 36.2151 123.138 36.0499 122.908 35.9582C121.55 35.3984 120.036 36.1233 118.687 36.7014C116.329 37.7107 113.815 38.3163 111.273 38.665C110.677 38.7476 107.245 39.0963 108.007 40.2983C108.135 40.5001 108.346 40.6286 108.567 40.7295C109.695 41.2893 110.98 41.5186 112.228 41.381C112.751 41.326 113.439 41.2893 113.622 41.7756C113.751 42.0967 113.549 42.4454 113.356 42.739C112.76 43.6199 112.108 44.4732 111.411 45.2807C111.053 45.6936 110.686 46.0973 110.31 46.4919C110.035 46.7672 109.759 47.0241 109.484 47.2902C109.466 47.3085 109.438 47.336 109.438 47.3636C109.429 47.4095 109.466 47.4553 109.503 47.492C110.117 48.1619 110.402 48.9877 110.732 49.8135C111.026 50.5384 111.429 51.2541 112.237 51.4926C112.797 51.6578 113.393 51.4743 113.934 51.2632C115.136 50.7769 116.265 50.1071 117.265 49.2721C117.788 48.8317 118.311 48.3178 118.467 47.6572C118.596 47.1342 118.486 46.5836 118.587 46.0514C118.733 45.299 119.348 44.6476 120.101 44.4732C120.238 44.4365 120.403 44.4273 120.513 44.5191C120.651 44.6292 120.651 44.8311 120.633 45.0054C120.357 47.437 118.596 49.4006 116.871 51.144C115.1 52.9332 113.127 54.7592 110.65 55.2363C110.218 55.3189 109.759 55.3648 109.383 55.585C108.998 55.8052 108.723 56.2824 108.879 56.6953C108.98 56.9338 109.2 57.099 109.42 57.2458C110.2 57.7688 111.108 58.2551 112.044 58.1267C112.466 58.0716 112.852 57.8973 113.255 57.7596C114.173 57.466 115.146 57.3926 116.091 57.2366C118.605 56.8146 121.046 55.7135 123.596 55.8695C125.533 55.9887 127.469 56.8421 129.34 56.3649C129.772 56.2548 130.212 56.0438 130.396 55.6401C130.561 55.2547 130.432 54.7959 130.166 54.4747C129.9 54.1536 129.524 53.9426 129.157 53.759L129.166 53.8049Z" fill="white"/>
<path d="M166.887 46.7661C166.832 46.7753 166.768 47.2433 166.208 47.1056C165.144 46.8579 164.162 46.1238 163.171 45.6742C162.657 45.4448 162.024 45.087 161.455 45.0594C160.988 45.0319 160.565 45.3714 160.4 45.3806C160.198 45.3898 158.923 46.2064 158.712 46.7661C158.483 47.3625 158.712 48.5646 158.684 49.2252C158.629 50.6658 158.556 52.1981 158.06 53.5653C157.785 54.3269 157.235 54.9876 157.042 55.9418C155.225 56.5107 153.418 57.0796 151.601 57.6393H151.261V56.6208C151.601 56.5107 151.94 56.3914 152.28 56.2813C152.28 56.162 152.729 55.9327 152.959 55.9327C152.959 55.8225 153.638 55.5932 153.986 55.5932C155.299 55.0426 156.363 54.0975 156.702 52.5376C157.281 51.932 157.235 51.1888 157.18 50.4089C157.161 50.1978 156.748 49.005 156.73 49.0968C156.913 47.8947 155.133 47.491 154.656 46.757L154.317 46.4174C154.785 45.9036 156.638 44.8484 156.014 43.3619C156.014 43.3619 155.436 42.8756 155.326 42.6829C156.354 41.7837 157.363 40.8753 158.382 39.9669C159.024 39.0677 159.152 38.196 160.079 37.5904V36.5719C159.299 36.3425 158.464 36.0122 157.721 35.792C157.115 35.6176 156.446 35.6727 155.84 35.5167C155.06 35.3148 154.372 34.7735 153.555 34.7001C153.298 34.6725 151.289 34.7918 151.243 34.8652C152.041 33.4797 153.941 31.9015 155.317 31.1307C155.271 29.6351 154.913 29.268 153.968 28.7542V26.0382C154.867 25.5886 155.785 25.1298 156.684 24.6802V24.0012C157.06 23.6158 156.831 24.0012 157.024 23.3222C156.234 22.9001 155.418 22.4872 154.308 22.3037C154.298 22.2578 154.014 21.6522 153.674 21.1292C153.124 20.2759 152.647 20.4227 151.867 20.9182C151.61 21.0833 150.454 21.6522 151.27 21.9275C152.069 22.1936 151.417 24.2398 151.004 24.7536C150.747 25.0656 148.178 26.1208 148.178 25.7079V26.7264C149.197 26.8457 150.215 26.9466 151.234 27.0659V29.7819C149.711 29.7819 149.38 30.0021 148.518 30.4609C148.417 30.5159 148.472 31.7547 148.591 31.8831C148.857 32.1767 149.472 32.1584 149.83 32.085C149.848 32.1584 149.958 32.819 149.885 32.8282C148.857 33.0576 148.6 33.443 147.839 33.8467C147.756 37.0032 148.866 37.0491 151.243 36.9022C151.821 36.8655 150.096 38.0951 150.261 37.9666C149.903 38.2327 146.004 40.6918 145.407 41.0864C145.123 41.2699 144.545 41.5084 144.279 41.6553C143.985 41.8112 143.324 42.059 143.021 42.2609C142.196 42.8389 141.177 43.3711 140.443 43.9308C140.122 44.1786 139.929 44.5456 139.608 44.7842C138.993 45.243 138.122 45.6283 137.369 45.7017C137.489 44.8484 136.782 44.6924 137.259 43.6189C137.599 42.8573 138.296 42.0682 139.03 41.6644V41.3249C137.874 41.6094 135.204 42.8664 134.607 43.7014C134.222 44.2612 134.607 44.4722 133.928 45.0594C133.928 47.3167 134.323 48.0966 134.947 49.473C135.204 49.5555 136.892 50.207 136.947 50.1153C137.158 49.7574 137.92 49.6381 138.351 49.317C139.608 48.3627 140.617 47.0781 141.829 46.0779C142.214 45.7568 142.572 45.8577 142.939 45.5458C143.618 44.9677 143.985 44.307 144.682 43.9217C145.325 43.5638 145.949 43.1692 146.499 42.6921C146.939 42.3067 147.958 41.903 148.233 41.3525C148.609 40.6092 151.876 39.242 152.399 38.9576C153.252 38.4988 154.298 38.0309 155.262 38.0033C155.335 38.875 154.363 39.2971 154.032 40.0312C153.17 41.9489 150.463 42.5361 149.545 42.6829C149.472 42.7288 148.316 43.5179 148.866 45.7384C149.545 45.6283 150.224 45.5091 150.903 45.3898C151.014 45.1696 151.133 44.9402 151.243 44.7199C151.582 44.7199 152.261 44.4906 152.261 44.3804H152.61C152.28 45.6467 151.307 45.977 150.234 46.4174V48.115C150.344 48.115 150.573 48.3443 150.573 48.4545C151.142 48.3443 151.711 48.2251 152.271 48.115C153.812 47.803 154.867 50.5098 154.959 50.5373C155.005 51.1888 154.5 52.4826 153.977 52.8771C153.592 53.1616 153.922 52.8313 153.638 53.2075H153.298V52.189C153.408 52.189 154.078 50.6107 152.619 49.473C152.528 49.473 151.133 49.528 151.114 49.4179C151.105 49.3261 150.041 49.473 149.555 49.473C148.765 50.152 147.976 50.831 147.178 51.51C146.793 52.0789 147.178 52.2807 146.499 52.868C146.462 54.9142 146.94 55.584 148.197 56.263C147.71 57.9972 147.389 56.9512 146.16 57.621C146.059 57.6852 145.866 58.1165 145.481 58.3C145.572 59.713 145.93 59.8966 146.16 61.016C147.683 61.016 149.169 60.8784 150.619 60.4196C151.041 60.2819 154.188 59.5295 154.271 59.291C154.766 57.9605 161.547 58.612 161.446 57.621C161.107 54.4554 160.767 51.2806 160.428 48.115C162.657 48.2709 163.208 49.3445 164.841 49.8125C165.63 49.7024 166.429 49.5831 167.218 49.473C167.557 48.6838 167.897 47.8856 168.236 47.0965C167.787 46.9405 167.658 46.6193 166.878 46.757L166.887 46.7661ZM150.5 53.5745C150.224 54.0333 149.876 54.8224 149.243 54.5655C148.545 54.281 148.967 52.8588 149.224 52.345C149.399 51.9871 149.665 51.6476 149.894 51.3265C149.977 51.2072 150.114 50.9227 150.261 50.8768C150.536 50.8126 150.958 51.2072 151.261 51.2072C150.94 51.9688 150.94 52.8588 150.509 53.5837L150.5 53.5745Z" fill="white"/>
<path d="M185.23 40.317C185.349 40.6565 185.459 40.996 185.578 41.3355C185.624 41.464 186.799 41.152 186.946 41.0878C187.414 40.8584 187.478 40.4913 187.496 40.0142C187.496 39.7665 187.496 39.5187 187.524 39.2801C187.56 38.9039 187.79 38.6654 187.927 38.335C187.973 38.2249 187.9 38.0139 188.001 37.9405C188.102 37.8671 188.368 37.9588 188.469 37.9864C188.799 38.0873 189.093 38.2892 189.386 38.4635C189.561 38.5644 190.295 39.2985 190.405 39.2985C190.827 39.3168 191.249 39.3444 191.671 39.3352C191.928 38.3993 192.102 37.8946 191.845 36.8853C191.763 36.555 191.322 35.0043 191.02 34.9033C190.341 34.6739 189.662 34.4445 188.983 34.2243C188.983 34.2243 188.349 34.2794 187.964 33.8848C188.735 33.5637 189.285 33.2792 190.341 33.2058C190.405 32.903 190.341 30.1411 190.341 30.1503C190.341 30.1503 190.909 29.7833 190.68 29.1318C190.451 29.0217 190.23 28.9024 190.001 28.7923V28.1133H191.02V27.0948C189.964 26.7002 188.891 26.636 188.304 25.7368C186.056 25.6542 185.863 25.8836 185.588 27.7738C182.963 28.2601 182.624 28.4161 180.146 28.4528C179.954 28.9942 179.541 30.1687 179.807 31.1688H180.146C180.688 33.1875 178.981 35.5548 178.109 36.2613C178.109 37.2064 177.944 38.5186 178.449 38.9773C178.862 39.3535 178.843 38.7296 179.467 39.6563C181.972 39.5187 181.743 37.3441 181.734 35.4447C181.734 34.8116 182.064 29.8934 181.165 29.8108C182.293 29.9209 183.422 30.0402 184.56 30.1503C184.67 30.7284 185.276 31.6735 184.899 32.5268C184.56 32.7562 184.22 32.9764 183.881 33.2058C183.569 33.5637 183.596 33.9307 183.202 34.2243V34.5638H184.569C184.468 36.7293 183.752 39.0599 185.239 40.3353L185.23 40.317Z" fill="white"/>
<path d="M196.048 29.6264C196.048 29.1125 196.103 28.5987 196.103 28.094C196.103 28.094 195.552 27.6628 195.424 27.415H194.066C193.809 29.8466 193.038 31.8744 193.047 34.5537C194.268 34.5537 195.167 34.4803 195.763 33.8747C196.589 33.6637 196.507 33.5169 197.121 33.1957C197.571 32.9572 196.892 32.0121 196.754 31.7552C196.387 31.1037 196.057 30.4063 196.048 29.6356V29.6264Z" fill="white"/>
<path d="M173.017 35.6276C173.292 36.1048 173.109 36.8847 173.072 37.3986C173.054 37.6922 173.008 37.995 173.072 38.2794C173.109 38.4721 173.347 38.8116 173.347 38.9584C173.347 39.1695 173.347 39.3622 173.393 39.5549C174.063 39.2888 174.916 38.7933 175.347 38.1877C175.568 37.8757 175.779 37.4903 175.898 37.1233C176.072 36.5819 175.926 36.637 175.797 36.1965C175.659 35.7102 175.76 35.5909 175.439 35.1964C175.237 34.9486 174.944 34.6826 174.724 34.4165C174.577 34.2421 173.889 33.1777 173.696 33.1777H172.677C172.292 33.5539 172.677 33.3245 171.989 33.5172C172.154 33.9944 172.255 34.5724 172.494 35.0129C172.641 35.2881 172.898 35.3891 173.026 35.6185L173.017 35.6276Z" fill="white"/>
<path d="M179.944 41.5091C179.807 41.6284 179.697 41.8119 179.605 42.0872C179.348 42.8763 178.935 43.6287 178.375 44.2526C178.036 44.6288 177.641 44.95 177.228 45.2436C177.155 45.2986 176.302 46.0786 176.375 46.0786C175.402 46.0327 174.457 44.115 174.035 43.3717C173.778 42.9221 173.751 41.922 173.356 41.6651H172.677C172.852 42.6927 172.806 43.7388 172.998 44.7573C173.154 45.5831 172.842 46.1153 172.879 46.9044C172.907 47.7119 173.09 48.3542 172.723 49.1066C172.411 49.7489 171.888 50.2994 171.842 51.0426C171.815 51.5565 171.851 52.0795 171.934 52.5842C172.053 53.41 172.384 55.8599 173.677 55.4745C174.788 55.1442 174.338 54.3 174.549 53.4559C174.641 53.098 174.944 52.8503 175.045 52.5016C175.164 52.0703 175.182 51.74 175.402 51.3821C175.861 50.6664 176.201 49.8957 176.641 49.1891C176.852 48.8496 176.852 48.4826 176.999 48.1156C177.173 47.7119 177.348 47.5742 177.706 47.299C178.256 46.8952 178.779 46.0511 179.155 45.4913C179.339 45.2069 179.467 44.8674 179.697 44.6196C179.917 44.3903 180.247 44.2985 180.449 44.0508C180.614 43.8581 180.669 43.5277 180.734 43.28C180.917 42.6469 181.119 41.9862 181.146 41.3347C180.614 41.2705 180.22 41.2522 179.944 41.4907V41.5091Z" fill="white"/>
<path d="M185.624 45.7387C186.643 45.7845 187.138 47.06 188.248 46.748C188.753 46.6104 189.258 46.3351 189.698 46.0506C190.542 45.5093 191.377 44.6651 192.359 44.3898C192.561 43.7108 192.313 44.0962 192.699 43.7108C192.68 42.7382 192.579 42.2611 192.359 41.6738C188.992 41.7931 186.909 43.5181 184.551 44.7385C184.551 44.7385 185.597 45.6377 185.615 45.7387H185.624Z" fill="white"/>
<path d="M194.405 48.1247C192.433 48.1063 189.909 48.1981 188.973 49.1432C187.725 49.0055 187.404 48.6385 186.936 47.7852C186.367 47.8953 185.799 48.0054 185.23 48.1247C185.349 49.0331 185.459 49.9414 185.578 50.8407C185.964 51.1343 185.633 50.7948 185.918 51.1802C186.147 51.4921 187.927 50.4094 188.147 50.2351C188.762 49.7396 189.166 49.8038 189.946 49.7946C189.983 49.1156 192.387 49.5928 192.377 49.813C192.313 50.6663 192.249 51.5105 192.185 52.3547C192.148 52.7767 192.249 53.2355 192.148 53.6576C192.02 54.1715 191.166 55.8139 190.588 55.9974C189.588 56.3094 188.331 56.2819 187.285 56.2635C187.468 57.9243 188.166 58.6767 188.303 60.3375C188.524 60.3375 188.982 60.5577 188.982 60.677C189.249 60.677 191.166 59.8512 191.359 59.6585C191.827 59.5484 192.194 59.3649 192.524 59.0162C193.001 58.5207 193.112 58.2638 193.387 57.6399C193.772 56.7682 194.314 56.0158 194.58 55.0707C194.782 54.3458 194.901 53.5934 195.094 52.8593C195.176 51.5839 195.736 50.1433 195.094 49.4551C194.892 48.6293 194.736 48.7119 194.414 48.0971L194.405 48.1247Z" fill="white"/>
<path d="M230.411 38.279C230.411 38.279 227.732 37.9762 227.539 37.9945C226.548 38.0955 224.823 38.857 224.07 37.8018C223.74 37.3339 223.979 36.6824 223.602 36.1686C223.291 35.7465 222.657 35.6822 222.391 35.2143C222.281 35.0308 222.144 33.8838 222.263 33.8563C224.07 33.526 227.19 32.746 228.034 31.4798C228.144 31.4798 228.374 31.2504 228.374 31.1403C227.768 30.7824 227.355 30.397 227.016 29.7823C223.052 29.9016 221.134 31.8376 217.161 31.8193V32.8378C217.73 32.9479 218.29 33.0672 218.859 33.1773C219.877 34.8748 220.896 36.5723 221.914 38.279C221.703 39.0681 221.694 39.3984 220.923 39.7104C220.822 39.7563 219.336 40.1967 219.391 40.2701C219.152 39.9398 219.244 39.6186 219.189 39.2149C219.106 38.6093 219.033 38.4808 218.822 37.9762C218.767 37.9119 218.703 37.9028 218.62 37.9395C218.455 38.4258 218.005 38.6827 217.822 39.1874C217.592 39.8388 217.473 40.3252 217.189 40.8298C217.134 40.9308 216.776 42.041 216.822 42.0135C216.033 42.6925 215.234 43.3715 214.445 44.0505C214.152 44.3074 213.133 44.0964 213.05 43.7385C212.078 43.8119 213.619 41.9401 213.794 41.7015C214.436 40.8115 214.739 40.1783 214.473 39.114C214.372 38.6919 214.014 37.2513 213.427 37.2513H212.408C211.922 35.774 212.867 35.9208 213.408 34.7372C213.5 34.5353 213.61 32.1588 213.729 32.1771C214.418 32.2505 214.381 30.5622 214.454 30.1126C213.794 30.0667 211.068 29.7456 210.72 29.4336C209.252 29.507 209.573 29.6446 208.683 30.1126C209.27 31.1036 210.078 31.2687 211.399 31.4706C211.371 33.7921 210.812 34.4344 210.041 35.8841H209.022C208.352 35.8841 208.059 34.0214 207.738 33.5994C207.609 33.425 206.334 32.1496 206.187 32.1771C205.701 32.2138 204.664 32.2047 204.269 32.4799C204.407 33.5718 204.737 34.1683 205.288 34.8564C205.517 34.9665 205.737 35.0858 205.976 35.1959C206.205 35.306 206.141 37.8844 206.169 38.2698C206.205 38.8479 205.994 40.4811 206.627 40.6647C207.27 40.8574 206.508 45.3626 206.288 45.3534C205.6 45.3351 205.82 47.317 205.636 47.7667C205.416 48.2897 204.994 48.6934 204.875 49.2715C204.682 50.2349 206.031 52.3086 206.527 53.0794C206.802 53.5107 206.939 54.2447 207.6 54.2264C208.912 54.1713 209.518 52.1526 210.399 51.5287C210.775 51.2626 211.353 51.4002 211.729 51.1525C212.206 50.8405 213.546 49.2806 213.463 48.831C214.72 48.7301 214.225 45.9132 215.61 46.739C215.932 46.9317 216.849 49.1338 216.84 49.1338C218.391 49.0421 218.29 48.6567 219.217 48.1153C219.428 47.9961 219.015 44.3441 218.574 44.3441C218.611 43.6192 218.684 42.665 219.18 42.2062C219.611 41.8024 220.455 41.9493 220.62 41.362C221.134 41.4354 221.712 41.4813 221.978 41.8667C222.456 42.5549 222.024 43.2797 221.978 43.7385C221.786 45.4636 222.336 46.95 222.364 48.6292C222.382 49.9321 222.29 51.2259 222.29 52.5288C222.29 54.1346 222.263 55.3825 221.896 56.924C221.575 58.3095 221.795 60.0438 222.29 61.3651C222.538 62.0257 223.804 60.9705 223.951 60.7044C224.226 60.2181 224.382 59.484 224.428 58.9243C224.511 57.9242 224.337 56.9148 224.245 55.9239C224.162 54.9604 224.025 53.9511 224.135 52.9876C224.217 52.2444 224.63 51.5103 224.658 50.8313C224.722 49.5284 224.364 47.5097 224.997 46.7573V46.4178C225.658 46.8491 226.63 47.4272 227.034 48.1153C228.603 48.1153 229.126 47.8676 230.09 47.4363C230.76 45.8489 232.54 41.2978 231.448 39.2883C231.411 39.2149 230.659 38.646 230.429 38.2698L230.411 38.279ZM208.674 40.3802C208.857 39.9948 210.289 39.1507 210.646 39.3801C210.683 39.4076 210.729 39.4351 210.766 39.4626C210.876 39.5452 211.133 40.2334 211.179 40.4077C211.491 41.6373 210.041 43.2247 209.013 43.6835C208.362 43.1054 208.307 41.1326 208.664 40.3802H208.674ZM210.601 48.6842C210.169 49.0513 209.554 49.1338 208.674 48.8127C208.71 47.0418 208.793 47.4822 209.353 46.427C210.325 46.4454 210.802 46.5463 211.39 46.7665C211.28 47.629 211.041 48.308 210.601 48.6842ZM227.016 45.0782C226.851 45.3443 225.419 44.913 225.153 44.7203C224.382 44.1423 224.566 43.2522 224.667 42.3989C225.116 42.2521 225.107 39.5819 225.658 39.637C226.86 39.7654 228.658 40.3252 228.713 41.7749C228.759 42.9861 227.603 44.1055 227.016 45.0782Z" fill="white"/>
<path d="M246.294 33.0946C246.404 33.1222 246.569 33.1038 246.652 33.1956C246.679 33.2231 247.166 33.5076 247.377 33.5443C247.349 33.7461 247.505 33.9113 247.67 33.9663C248.359 34.2141 249.138 34.0489 249.836 34.003C250.038 33.9939 250.68 33.7645 250.854 33.6727C251.212 33.4708 251.634 33.4433 252.02 33.324C252.212 33.269 252.387 33.1864 252.543 33.0579C252.735 32.8928 253.937 32.5533 254.213 32.3789C254.424 32.2505 254.69 31.5072 254.873 31.4889C255.112 31.4614 257.874 31.0668 257.901 31.1769C258.085 32.0119 262.232 31.443 263.031 31.1494C262.948 30.3419 262.884 30.3052 262.691 29.7914H259.296C259.351 29.7914 259.58 28.3325 259.645 28.0939V28.0755C259.746 27.9746 260.47 28.1489 260.617 28.1306C261.058 28.0755 261.149 27.8186 261.48 27.7452C262.095 27.6076 262.636 28.1398 263.278 28.0113C263.416 27.9838 264.682 27.3415 264.691 27.369C264.673 27.213 264.526 26.4606 264.379 26.4056C263.563 26.1028 262.278 26.0385 260.994 26.0661C260.929 26.0661 260.452 24.5796 260.333 24.3869C260.204 24.1759 260.039 24.0015 259.847 23.8455C259.626 23.6712 259.223 23.5794 259.039 23.3867C258.966 23.3042 258.048 23.3409 257.938 23.35C256.479 23.4326 256.791 23.5611 255.901 24.029C255.763 24.1024 255.901 25.7908 255.901 26.0018C255.901 26.4698 256.085 27.2956 255.828 27.7085C255.662 27.9654 255.36 28.0205 255.231 28.3233C254.956 28.9564 254.451 29.4244 254.176 30.0391C254.029 30.3786 254.029 31.1035 253.524 31.1586C251.377 31.388 249.23 31.6082 247.074 31.8376C247.212 30.7365 247.386 30.8466 247.753 30.1401C247.817 30.0208 248.34 29.9107 248.478 29.8648C248.753 29.773 249.038 29.6905 249.313 29.6079C249.909 29.4427 250.506 29.3143 251.111 29.195C251.717 29.0757 252.332 28.9564 252.946 28.8646C253.258 28.8188 253.451 28.8922 253.534 28.571C253.589 28.3692 253.589 28.0021 253.469 27.8186C253.332 27.5984 253.057 27.6443 252.864 27.5158C252.717 27.4149 252.653 27.1671 252.515 27.0754C252.194 26.8735 251.588 27.0387 251.24 27.0662C250.799 27.0937 250.359 27.1029 249.918 27.0846C249.414 27.0662 249.561 26.9653 249.34 26.6258C249.056 26.2037 248.469 26.0936 248.111 25.7541C247.624 25.3045 246.872 25.3687 246.441 25.8917C246.037 26.3688 246.34 26.9561 246.239 27.5158C246.12 28.204 245.707 28.8371 245.45 29.4794C245.294 29.874 245.092 30.4979 244.844 30.8374C244.486 31.3146 243.991 31.5164 243.661 32.0486C243.569 32.2046 242.963 33.8838 242.991 33.8746C243.807 33.8195 244.523 33.4158 245.312 33.2139C245.615 33.1405 246 33.0396 246.312 33.1038L246.294 33.0946Z" fill="white"/>
<path d="M265.737 47.4461C265.737 47.336 265.517 47.1066 265.398 47.1066C264.499 48.749 263.719 49.9235 263.361 52.2083C263.343 52.3551 261.021 52.5845 260.801 52.5936C259.7 52.6579 258.947 52.2083 257.929 51.8596C257.553 51.7311 257.736 49.8501 257.672 49.4555C257.507 48.5288 257.277 47.5929 257.782 46.7212C257.911 46.501 258.076 46.2807 258.305 46.1615C259.204 45.6935 260.113 45.143 260.911 44.4456C261.269 44.1245 261.774 43.4913 262.03 43.0968C262.361 42.6013 262.462 42.0507 262.81 41.5277C263.26 40.8671 263.902 40.3441 263.82 39.4815C263.783 39.0595 263.645 38.6374 263.489 38.2428C263.416 38.0593 262.81 36.9032 262.682 36.9124C262.15 36.9307 261.59 36.9032 261.076 37.0133C260.911 37.05 260.645 37.05 260.516 37.1693C260.48 37.1968 260.186 37.6556 260.296 37.6281C259.571 37.8207 259.021 37.8574 258.351 38.2245C258.03 38.408 257.626 38.4722 257.332 38.6557C256.828 38.9677 256.965 39.087 256.314 38.9585C256.039 38.9035 255.222 38.6649 255.222 38.2795V37.9309C254.571 37.5363 253.534 37.6189 252.506 37.5914C252.818 36.3618 253.112 36.8665 253.185 35.2148C252.286 35.325 251.377 35.4442 250.469 35.5543V35.8938C250.01 36.0223 249.441 35.9948 249.01 35.8113C248.973 35.7929 248.148 35.2424 248.395 35.224C248.12 35.2424 245.753 35.4167 245.725 35.5635C245.468 36.6554 244.927 37.6189 244.294 38.5273C244 38.9494 243.688 39.3531 243.395 39.766C243.257 39.9587 243.073 40.1606 243.009 40.3808C242.936 40.6377 243.009 40.8396 242.798 41.0689C242.642 41.2433 242.431 41.3075 242.321 41.5369C242.211 41.7479 242.266 41.9957 242.064 42.1517C241.881 42.2985 241.706 42.2985 241.559 42.5095C241.477 42.6288 241.413 42.7756 241.348 42.9041C241.174 43.2619 241.018 43.6198 240.89 43.996C240.734 44.4548 240.651 44.9594 240.578 45.4366C240.541 45.6935 240.44 45.9045 240.578 46.1431C240.688 46.3266 240.908 46.4367 241.027 46.6202C241.238 46.9414 241.202 47.3543 241.413 47.6755C241.605 47.9691 241.936 48.1985 242.266 48.2811C242.587 48.3728 242.908 48.4737 243.239 48.5563C243.486 48.6206 245.734 48.9784 245.744 48.8224C245.716 49.4188 245.56 50.0153 245.202 50.5016C244.413 51.5568 242.844 51.8688 241.752 52.5386C241.367 52.7772 240.642 53.0616 240.642 53.5754C240.642 53.7957 242.651 53.4194 242.771 53.3736C243.404 53.135 244.78 52.8139 245.303 53.658C245.643 54.2086 245.23 54.8692 245.367 55.4656C245.578 56.3557 246.45 58.0073 247.606 57.4751C248.808 56.9246 248.432 55.0436 248.606 54.0342C248.845 52.6395 249.175 50.9512 250.038 49.8042C250.744 48.8683 255.461 47.0056 254.231 45.2531C253.855 44.7209 252.864 45.0971 252.368 44.6016C251.781 44.0327 252.066 43.317 252.497 42.7389C252.919 42.1792 253.589 42.0599 254.204 41.8214C254.525 41.6929 255.314 41.0047 255.589 40.9955C256.874 40.9864 258.158 41.0231 258.993 41.335C259.039 41.3534 259.067 42.7848 259.021 42.8949C258.966 43.0234 258.351 43.8308 258.195 43.9501C257.773 44.2988 257.094 44.1245 256.608 44.3906C256.497 44.4548 256.314 44.886 255.929 45.0696C255.617 45.8128 255.314 46.556 255.185 47.3543C255.075 48.0425 255.378 48.7031 255.387 49.3913C255.387 50.1162 255.176 50.7952 255.479 51.4926C255.901 52.4652 256.085 53.5112 256.929 54.2269C257.874 55.0252 259.204 55.5666 260.434 55.6675C261.764 55.7776 263.067 55.172 264.361 54.9243C265.352 54.7408 265.939 54.0434 266.802 53.5479C267.077 52.1899 267.472 50.0978 266.462 49.1344C266.426 47.9874 266.481 47.8957 265.783 47.4369L265.737 47.4461ZM243.991 40.9955H244.34C244.642 41.1424 243.688 41.6654 243.661 41.6745C243.771 41.4543 243.881 41.2249 244 40.9955H243.991ZM246.312 46.0514C246.239 46.189 246.101 46.2899 245.863 46.3725C245.551 46.4734 244.881 46.3725 244.597 46.189C244.175 45.9229 244.138 45.5834 244.019 45.0971C244.248 45.1154 244.376 44.9686 244.422 44.7668C244.597 44.7759 246.367 45.0053 246.367 45.0696C246.367 45.4825 246.432 45.8128 246.303 46.0514H246.312ZM248.414 48.4646H247.386C247.643 47.5378 247.469 47.6938 248.414 47.4461V48.4646Z" fill="white"/>
<path d="M294.265 48.8133C293.32 48.5931 292.641 48.0425 291.888 47.7948C290.741 47.4094 289.135 47.5287 287.924 47.4186C286.768 47.3085 285.373 47.4186 284.428 46.7763C285.025 45.9505 284.86 44.6934 285.309 43.7942C285.575 43.262 285.52 43.4547 286.071 43.317C286.401 43.2345 286.75 43.0968 286.851 42.7298C287.429 42.8215 287.768 42.1884 288.2 41.9315C288.778 41.5828 289.356 41.2709 290.026 41.1057C290.558 40.9772 291.062 40.9497 291.503 40.5735C291.962 40.1881 292.053 40.0505 292.641 39.8578C292.916 39.766 293.109 39.5366 293.283 39.4265C294.008 38.9861 294.439 38.7017 294.678 37.8667C294.714 37.729 295.072 36.2517 294.962 36.2517C294.586 36.2517 289.181 36.371 289.154 36.2793C288.649 36.1416 287.989 36.2517 287.484 36.2517C287.484 36.2517 287.484 36.0315 286.814 35.9122C286.263 35.8113 286.612 33.1045 286.631 32.7374C286.667 31.9575 286.704 31.1776 286.676 30.3976C286.649 29.6361 286.484 29.3333 286.163 28.7093C286.098 28.59 286.172 28.3698 286.098 28.2505C285.915 27.9294 285.612 27.4339 285.364 27.1494C285.346 27.1219 285.318 27.1036 285.3 27.0852C284.988 26.8191 284.282 26.7182 283.887 26.6081C282.795 26.3053 281.51 26.1034 280.685 27.076C280.171 27.6908 279.969 28.8378 280.217 29.6085C280.382 30.1315 280.501 30.6729 280.666 31.1867C280.831 31.7006 281.226 32.0768 281.41 32.5723C281.556 32.9577 281.566 33.4164 281.602 33.8294C281.666 34.49 281.556 35.7287 282.043 36.2609C282.07 39.3348 281.575 37.9584 279.666 38.6374C279.143 38.8209 278.005 39.0228 277.583 39.344C277.317 39.5458 277.262 41.0139 277.29 41.0139C277.51 41.0139 278.198 41.6929 278.308 41.6929C278.675 42.0967 279.207 42.1884 279.574 42.5646C279.574 42.5646 280.308 43.6565 280.318 43.418C280.281 44.0327 280.079 44.8494 279.776 45.3816C279.556 45.7761 279.272 45.7945 279.015 46.1248C278.877 46.2991 279.033 46.6203 278.895 46.8313C278.73 47.0882 278.409 47.0882 278.235 47.4002C277.868 48.0242 278.088 48.2719 277.537 48.7949C276.987 49.3271 276.216 49.74 275.592 50.1896V51.8871C276.666 51.8229 277.363 51.3825 278.317 51.0155C279.143 50.7035 280.088 50.7952 280.758 50.1346C281.198 49.685 281.419 49.3638 282.043 49.1803C282.043 49.0702 283.327 49.1436 283.437 49.162C284.025 49.2445 284.153 49.6116 284.667 49.8318C285.181 50.052 285.777 49.9419 286.3 50.1621C286.796 50.3732 287.172 50.7952 287.622 51.0889C287.888 51.2724 288.108 51.2081 288.365 51.4651C288.612 51.7128 288.677 52.0707 288.952 52.3001C289.246 52.5386 289.631 52.5386 289.952 52.7221C290.356 52.9515 290.888 53.4745 290.906 53.5663C291.136 53.6489 294.21 54.1077 294.237 53.9058C294.32 53.3736 295.054 53.3461 295.347 52.9791C295.678 52.5753 295.687 52.0982 295.623 51.6119C295.558 51.1531 294.788 48.9601 294.274 48.8408L294.265 48.8133Z" fill="white"/>
<path d="M337.409 32.159H335.363V32.4985H332.986C332.986 32.3884 332.307 32.4985 332.307 32.4985C331.858 32.3884 331.399 32.2691 330.949 32.159C330.766 32.1132 331.316 30.8286 331.61 30.7643C331.656 29.599 331.858 28.4612 332.179 27.3326C332.252 27.0849 332.693 25.0387 332.986 25.0295C333.096 24.5799 333.555 23.6715 333.656 23.6715C334.124 22.442 333.482 21.8547 334.335 20.9555C334.252 20.1572 334.179 20.1205 333.996 19.5975C332.977 19.414 330.711 18.79 329.243 19.258V19.5975C327.655 20.0471 326.068 20.5059 324.489 20.9555C324.333 20.1205 324.159 19.7168 324.15 18.579C324.031 18.579 323.81 18.3496 323.81 18.2395C322.517 18.2303 321.241 18.267 320.415 18.579C320.636 19.937 320.856 21.295 321.085 22.653C320.957 22.6805 319.406 22.9099 319.397 22.9742C319.47 22.4787 318.957 22.6714 318.7 22.4603C318.58 22.3594 318.342 21.6345 318.36 21.6345C316.663 21.4877 316.708 21.3225 314.965 21.6345C315.002 22.7539 315.048 23.1668 315.644 23.6715C315.672 24.7267 315.809 26.1856 315.295 26.727C314.635 27.4335 314.607 25.6076 314.112 25.2497C313.736 24.9836 313.708 24.9102 313.479 24.5248C313.387 24.3689 313.405 24.167 313.249 24.0385C313.075 23.8917 312.882 23.9101 312.708 23.7357C312.515 23.543 312.396 23.2219 312.249 22.9925C312.139 22.9925 311.57 22.7723 311.57 22.653C310.23 22.6897 308.827 22.9283 308.175 23.6715C308.056 23.6715 307.606 24.69 307.487 24.69C308.258 25.6443 309.157 26.5435 309.506 27.7455C309.579 27.9933 309.606 28.3511 309.753 28.5713C309.937 28.8466 310.24 28.8925 310.386 29.2136C310.533 29.544 310.441 30.0119 310.441 30.3606C310.441 30.7368 310.414 31.1038 310.441 31.48C310.478 31.9205 310.882 32.4894 310.891 32.838C310.928 34.6089 311.02 34.1593 311.57 35.2145H313.956C313.956 35.1044 314.176 34.875 314.295 34.875C315.057 33.6822 313.543 32.1223 314.974 30.7919C315.259 30.4157 314.928 30.746 315.305 30.4524C315.947 32.2141 315.69 33.7281 317.011 34.8659C316.892 35.2054 316.782 35.5449 316.672 35.8844C315.369 36.1138 313.726 36.5634 312.598 36.9029H310.561C310.194 36.9671 309.606 37.5819 308.863 37.2424C308.634 36.9029 308.404 36.5634 308.184 36.2239C307.955 36.2239 307.496 35.9945 307.496 35.8844C306.367 36.0037 305.239 36.1138 304.11 36.2239C304.138 37.2974 304.129 37.8388 304.45 38.6004C304.496 38.7105 304.523 38.8114 304.551 38.9307C304.652 39.4721 304.688 40.0318 304.734 40.5823C304.762 40.8943 304.789 41.2063 304.789 41.5183C304.789 41.8669 304.909 42.1147 305 42.4358C305.065 42.6652 305.037 42.913 305.11 43.1424C305.184 43.3534 305.331 43.5369 305.413 43.7388C305.542 44.0599 305.652 44.1517 305.881 44.3811C306.322 44.8215 306.854 44.7114 307.432 44.7022C307.588 44.7022 307.771 44.7389 307.863 44.6196C307.946 44.5095 307.918 44.3168 307.946 44.1884C307.973 43.9865 308.037 43.7847 308.083 43.5828C308.203 43.1148 308.349 42.656 308.478 42.1881C308.606 41.7568 308.726 41.3164 308.854 40.8851C308.891 40.7475 309.129 39.6189 309.221 39.6097C314.204 38.8206 319.186 38.0223 324.168 37.2332C324.168 37.1231 325.068 36.6643 325.526 36.5542C325.526 36.4441 327.453 36.2331 328.242 35.5357C328.701 35.5357 329.6 35.7651 329.6 35.8752C329.71 35.8752 329.94 36.5542 329.94 36.8937C331.812 36.8753 332.638 36.7194 334.023 36.2147C334.023 36.1046 335.381 35.8752 336.06 35.8752C336.06 35.7651 336.51 35.5357 336.739 35.5357C336.849 35.3063 337.758 34.6273 338.097 34.5172V33.1592C337.987 33.1592 337.528 32.4802 337.418 32.1407L337.409 32.159ZM320.764 34.8842H319.067C318.975 32.3242 318.755 29.3237 319.067 26.048H320.085C320.379 26.4334 320.048 26.1031 320.434 26.3875C320.315 27.0665 320.204 27.7455 320.085 28.4245H319.746C318.993 30.5258 320.241 32.838 321.104 33.517C321.03 34.3245 320.966 34.3612 320.764 34.875V34.8842ZM323.48 29.4522C323.141 29.5623 322.801 29.6816 322.462 29.7917C322.48 29.7917 321.535 28.5622 322.122 28.397C322.168 28.2227 322.664 26.6353 322.81 26.727C323.838 27.4244 322.957 27.351 323.489 28.085H323.829C323.746 28.8833 323.682 28.9292 323.489 29.443L323.48 29.4522ZM325.187 33.8657C325.297 32.9573 325.407 32.0581 325.526 31.1497C326.205 30.9387 325.82 31.1956 326.205 30.801C327.178 30.8194 327.655 30.9203 328.242 31.1497C328.196 33.1775 327.086 33.7648 325.187 33.8657ZM329.261 27.718C329.169 27.7455 329.031 27.7822 328.94 27.7639C329.031 28.3511 327.205 28.3878 327.224 28.4245C327.123 28.1125 326.985 27.7914 326.93 27.4702C327.169 27.3968 327.683 26.4059 327.573 26.3783C328.132 26.4976 328.701 26.6077 329.27 26.7178C329.298 26.7178 329.27 27.5895 329.27 27.7088L329.261 27.718ZM329.591 23.6715C328.334 23.8642 328.82 23.8734 327.563 23.6715C327.444 23.332 327.334 22.9925 327.215 22.653C327.435 22.5429 327.664 22.4236 327.903 22.3135C328.068 22.1483 328.187 21.974 328.463 21.9924C328.545 21.9924 329.591 22.809 329.591 22.6714C329.591 22.7539 329.61 23.6623 329.591 23.6715Z" fill="white"/>
<path d="M331.289 46.4274C331.179 46.2072 331.059 45.9778 330.949 45.7484C329.729 45.0327 328.013 46.2714 326.196 45.7484C326.196 45.6383 325.517 45.3997 325.178 45.3997C325.178 45.2896 324.948 45.0694 324.829 45.0694C325.168 42.6562 327.628 43.1608 328.224 40.9862C328.756 40.454 328.921 39.0593 328.903 37.9307C326.976 38.0499 325.049 38.1601 323.122 38.2793C323.012 38.4996 322.333 38.9583 322.104 38.9583C322.104 39.0685 321.645 39.2978 321.425 39.2978C321.425 39.4171 320.296 39.6373 319.727 39.6373C319.617 39.8576 318.709 40.3163 318.369 40.3163C318.259 40.5457 316.672 41.2247 315.993 41.3349C315.084 41.7845 314.176 42.2432 313.277 42.6929C313.488 43.5187 313.635 43.4453 313.956 44.0509H316.672C318.369 43.0324 320.067 42.0139 321.764 40.9953C322.333 41.1146 322.902 41.2247 323.462 41.3349V42.3625C322.223 43.0415 320.966 43.7205 319.727 44.3995C319.727 45.6291 319.672 45.9594 320.415 46.4365C320.305 46.7944 320.168 47.4367 319.746 47.5101C319.48 47.556 319.204 47.5835 318.938 47.6202C318.69 47.6569 318.433 47.6936 318.186 47.7578C317.892 47.8313 317.663 48.0148 317.378 48.0973C317.131 48.1708 316.947 48.2075 316.718 48.3176C316.433 48.4552 316.121 48.4093 315.846 48.5378C315.516 48.6938 315.35 48.9048 314.965 48.9599C314.699 48.9966 314.442 49.0057 314.176 49.0424C313.625 49.125 313.075 49.2168 312.515 49.2994C311.414 49.4737 310.313 49.648 309.212 49.8224C309.249 50.7124 309.35 50.9785 309.551 51.5199C312.066 52.5567 319.149 52.7219 320.764 50.8409C321.728 50.8592 322.223 50.9602 322.801 51.1804C322.737 51.8319 322.599 52.4833 322.407 53.1073C322.278 53.511 322.251 53.9606 322.205 54.3827C322.14 54.9241 322.241 55.5572 322.095 56.071C322.003 56.3738 321.709 56.5849 321.654 56.8969C321.627 57.0345 321.627 57.5942 321.443 57.6309C319.892 57.9796 318.993 59.1908 317.369 59.3376C317.369 59.2183 316.69 59.1082 316.69 58.9981C316.121 58.888 315.552 58.7687 314.993 58.6586C315.176 60.1175 315.773 60.0716 316.351 61.0351C317.259 61.2278 318.158 61.4664 319.076 61.5856C319.608 61.659 320.14 61.6957 320.672 61.7141C320.929 61.7141 321.214 61.7783 321.461 61.6682C321.673 61.5765 321.801 61.3746 322.021 61.292C322.205 61.2186 322.407 61.2461 322.59 61.1544C322.92 60.9892 323.113 60.6589 323.361 60.402C323.627 60.1267 324.003 59.934 324.187 59.5853C324.37 59.2458 324.407 58.8421 324.563 58.4843C324.737 58.0713 324.967 57.6951 325.104 57.2639C325.178 57.0345 325.168 56.7959 325.178 56.5574C325.187 56.3463 325.214 56.2913 325.269 56.1077C325.38 55.7132 325.435 55.2911 325.48 54.8782C325.499 54.6855 325.471 54.4469 325.526 54.2634C325.563 54.1441 325.682 54.0157 325.728 53.878C326.068 52.9054 325.756 51.8869 325.921 50.8868C326.059 50.0701 326.27 49.2443 326.545 48.4644C327.224 48.3543 327.912 48.235 328.582 48.1249C328.582 48.0148 329.71 47.7854 330.279 47.7854C330.399 47.556 330.509 47.3358 330.619 47.1064C330.848 47.1064 331.298 46.8862 331.298 46.7669C331.408 46.7669 331.408 46.4274 331.298 46.4274H331.289Z" fill="white"/>
<path d="M7.57882 35.9119C7.64305 35.9486 7.71646 35.9395 7.76234 35.9027C10.4692 34.4713 14.2771 35.7009 14.2771 35.7009L18.1584 36.6001H18.1768C18.4153 36.6552 18.6723 36.5542 18.8007 36.3248L20.2597 33.8015L21.7186 31.2782C21.847 31.058 21.8103 30.7827 21.6452 30.5992V30.5808L18.92 27.663C18.92 27.663 15.9471 24.9745 15.837 21.919C15.837 21.8547 15.8094 21.7905 15.7544 21.7538C15.6443 21.6896 15.5433 21.7905 15.5433 21.7905C13.5063 23.5522 11.8088 25.5434 10.4325 27.874L10.3315 28.0483L10.2306 28.2227C8.90013 30.5808 8.01926 33.0491 7.51459 35.6917C7.51459 35.6917 7.48707 35.8293 7.59718 35.8936L7.57882 35.9119Z" fill="white"/>
<path d="M39.0698 62.1735C36.4731 60.5494 35.6381 56.6314 35.6381 56.6314L34.4728 52.8235V52.8051C34.3902 52.5757 34.1792 52.4014 33.9131 52.4014H31.0044H28.0957C27.8388 52.4014 27.6186 52.5665 27.5452 52.8051V52.8235L26.3707 56.6314C26.3707 56.6314 25.5357 60.5494 22.9389 62.1735C22.8747 62.201 22.838 62.2653 22.838 62.3295C22.838 62.4579 22.9756 62.4946 22.9756 62.4946C25.5173 63.3847 28.0957 63.8435 30.8025 63.8802H31.0044H31.2063C33.9131 63.8527 36.4915 63.3847 39.0331 62.4946C39.0331 62.4946 39.1708 62.4488 39.1708 62.3295C39.1708 62.2561 39.1249 62.201 39.0698 62.1735Z" fill="white"/>
<path d="M21.7186 48.7214L20.2597 46.1981L18.8008 43.6748C18.6723 43.4546 18.4154 43.3537 18.1768 43.3995H18.1585L14.2771 44.2988C14.2771 44.2988 10.4692 45.5283 7.76238 44.0969C7.70733 44.0602 7.63392 44.051 7.57887 44.0877C7.46876 44.1519 7.49628 44.2896 7.49628 44.2896C8.00095 46.9322 8.88182 49.4004 10.2123 51.7586L10.3132 51.9329L10.4142 52.1073C11.7905 54.4379 13.488 56.4382 15.525 58.1908C15.525 58.1908 15.626 58.2825 15.7361 58.2275C15.8003 58.1908 15.8278 58.1265 15.8187 58.0623C15.9288 55.0068 18.9017 52.3183 18.9017 52.3183L21.6177 49.4004V49.3821C21.792 49.1986 21.8287 48.9325 21.7003 48.7031L21.7186 48.7214Z" fill="white"/>
<path d="M46.4655 21.8004C46.4655 21.8004 46.3646 21.7086 46.2545 21.7637C46.1902 21.8004 46.1627 21.8646 46.1719 21.9288C46.0618 24.9844 43.0889 27.6728 43.0889 27.6728L40.3728 30.5907V30.6091C40.1985 30.7926 40.1618 31.0587 40.2903 31.2881L41.7492 33.8114L43.2081 36.3347C43.3366 36.5549 43.5935 36.6559 43.8321 36.61H43.8504L47.7318 35.7108C47.7318 35.7108 51.5397 34.4812 54.2465 35.9126C54.3016 35.9493 54.375 35.9585 54.43 35.9218C54.5401 35.8576 54.5126 35.7199 54.5126 35.7199C54.0079 33.0773 53.1271 30.6091 51.7966 28.2509L51.6957 28.0766L51.5947 27.9022C50.2184 25.5716 48.5209 23.5713 46.4839 21.8187L46.4655 21.8004Z" fill="white"/>
<path d="M22.9389 17.8356C25.5264 19.4597 26.3706 23.3777 26.3706 23.3777L27.5359 27.1856V27.204C27.6185 27.4334 27.8295 27.6077 28.0864 27.6077H30.9951H33.9038C34.1608 27.6077 34.381 27.4426 34.4544 27.204V27.1856L35.6289 23.3777C35.6289 23.3777 36.4639 19.4597 39.0606 17.8356C39.1248 17.8081 39.1615 17.7438 39.1615 17.6796C39.1615 17.5511 39.0239 17.5144 39.0239 17.5144C36.4822 16.6244 33.9038 16.1656 31.197 16.1289H30.9951H30.7841C28.0773 16.1564 25.4989 16.6244 22.9572 17.5144C22.9572 17.5144 22.8196 17.5603 22.8196 17.6796C22.8196 17.753 22.8655 17.8081 22.9205 17.8356H22.9389Z" fill="white"/>
<path d="M54.2372 44.0968C51.5396 45.5283 47.7225 44.2987 47.7225 44.2987L43.8411 43.3995H43.8228C43.5842 43.3444 43.3273 43.4454 43.1988 43.6748L41.7491 46.1981L40.2901 48.7214C40.1617 48.9416 40.1984 49.2169 40.3635 49.4004L40.3819 49.4188L43.0979 52.3366C43.0979 52.3366 46.0708 55.0251 46.1809 58.0806C46.1809 58.1449 46.2085 58.2091 46.2635 58.2458C46.3736 58.31 46.4746 58.2183 46.4746 58.2183C48.5116 56.4565 50.2091 54.4654 51.5854 52.1348L51.6864 51.9604L51.7873 51.7861C53.1178 49.4279 53.9986 46.9597 54.5033 44.3171C54.5033 44.3171 54.5308 44.1794 54.4299 44.1152C54.3657 44.0785 54.2923 44.0877 54.2464 44.1244L54.2372 44.0968Z" fill="white"/>
<path d="M30.8945 11.0002C14.8829 11.0552 1.94512 24.0939 2.00018 40.1055C2.05523 56.1263 15.0939 69.0549 31.1055 68.9998C47.1263 68.9448 60.0549 55.9061 59.9998 39.8945C59.9448 23.8737 46.9153 10.9451 30.8945 11.0002ZM21.4986 16.3037C21.5536 16.267 21.6087 16.2303 21.6729 16.212H21.6912C21.7371 16.1936 21.7922 16.1661 21.8472 16.1569C24.132 15.2852 26.4626 14.753 28.7657 14.5604C29.1052 13.8171 29.9769 13.2849 30.9954 13.2849C32.0139 13.2849 32.8856 13.8171 33.2251 14.5604C35.5374 14.7622 37.8588 15.2852 40.1528 16.1569C40.2078 16.1753 40.2537 16.1936 40.3088 16.212C40.3088 16.212 40.3179 16.212 40.3271 16.212C40.3913 16.2395 40.4464 16.267 40.5014 16.3037C40.9144 16.5607 41.1805 17.0103 41.1805 17.5333C41.1805 18.0563 40.9235 18.4784 40.5381 18.7353L40.3179 18.9188C38.5745 20.3319 37.9873 21.0292 37.2257 23.8095L35.8494 28.0028C35.8402 28.067 35.8218 28.122 35.7943 28.1771C35.7943 28.1863 35.7943 28.2046 35.7851 28.2138C35.5833 28.7368 35.0786 29.113 34.4914 29.1406C34.473 29.1406 34.4547 29.1406 34.4455 29.1406H31.0046H27.5637C27.5545 29.1406 27.527 29.1406 27.5178 29.1406C26.9306 29.113 26.4259 28.7368 26.224 28.2138C26.224 28.2046 26.2149 28.1863 26.2149 28.1771C26.1965 28.122 26.1782 28.067 26.1598 28.0028L24.7835 23.8095C24.0219 21.0384 23.4255 20.3319 21.6912 18.9188L21.471 18.7353C21.0856 18.4784 20.8287 18.0288 20.8287 17.5333C20.8287 17.0194 21.104 16.5607 21.5077 16.3037H21.4986ZM34.0142 34.9671C34.106 34.9671 34.1794 35.0405 34.1794 35.1323V38.7842H33.5004V35.5268H32.7939V39.5366H32.0414V35.5268H31.3624V38.7842H30.6559V35.1323C30.6559 35.0405 30.7293 34.9671 30.8211 34.9671H32.0323V34.3982H30.4357V33.8293H34.317V34.3982H32.803V34.9671H34.0234H34.0142ZM30.6834 41.28V40.1239H31.5001V41.28H34.1243V42.115H31.5184C31.6285 42.7757 32.1149 44.2346 34.2803 44.8952V45.7394C32.4176 45.2439 31.5184 44.2254 31.078 43.3354C30.6376 44.2254 29.7292 45.2623 27.839 45.7486V44.9044C30.0228 44.2621 30.5183 42.7757 30.6376 42.115H27.9124V41.28H30.6743H30.6834ZM29.876 37.2794C29.9677 37.2794 30.0411 37.3528 30.0411 37.4446V39.2614C30.0411 39.3531 29.9677 39.4265 29.876 39.4265H27.9766C27.8848 39.4265 27.8114 39.3531 27.8114 39.2614V34.857C27.8114 34.7653 27.8848 34.6919 27.9766 34.6919H28.2152C28.4446 34.3891 28.4996 33.8477 28.4996 33.8477H29.2245C29.2245 33.8477 29.1327 34.3891 28.8024 34.6827H29.876C29.9677 34.6827 30.0411 34.7561 30.0411 34.8387V36.5178C30.0411 36.6096 29.9677 36.683 29.8852 36.683H28.4996V37.2702H29.8852L29.876 37.2794ZM29.8852 32.3612C27.0315 32.7741 24.6275 34.7744 23.7283 37.5914L23.6548 37.8208H26.0405V39.0503H22.4804C22.2418 39.0503 22.0491 38.8576 22.0491 38.6191C22.0491 38.6191 22.0491 38.6007 22.0491 38.5915C22.3519 36.5729 23.3245 34.7194 24.8293 33.3063C26.2332 31.9942 27.995 31.1867 29.876 30.9482V32.3612H29.8852ZM22.4895 40.7937H26.0497V42.0232H23.664L23.7374 42.2526C24.7559 45.4366 27.6738 47.5654 31.0046 47.5654C34.3354 47.5654 37.2624 45.4274 38.2717 42.2526L38.3452 42.0232H35.9595V40.7937H39.5105C39.749 40.7937 39.9417 40.9864 39.9417 41.225C39.9417 41.2341 39.9417 41.2525 39.9417 41.2617C39.6389 43.2803 38.6663 45.1246 37.1615 46.5285C35.4823 48.0976 33.2985 48.9509 31.0046 48.9509C28.7107 48.9509 26.5177 48.0884 24.8385 46.5285C23.3337 45.1246 22.3611 43.262 22.0583 41.2433C22.0583 41.2341 22.0583 41.225 22.0583 41.2158C22.0583 40.9772 22.251 40.7845 22.4895 40.7845V40.7937ZM39.5105 39.0503H35.9595V37.8208H38.3452L38.2717 37.5914C37.3725 34.7744 34.9685 32.7741 32.1057 32.3612V30.9482C33.9959 31.1776 35.7576 31.9942 37.1615 33.3063C38.6663 34.7102 39.6389 36.5637 39.9417 38.5732C39.9417 38.5915 39.9417 38.6007 39.9417 38.6099C39.9417 38.8484 39.749 39.0411 39.5105 39.0411V39.0503ZM5.73469 36.1875V36.1691C5.73469 36.1141 5.75304 36.059 5.76222 36.004C6.1476 33.5816 6.85412 31.306 7.83593 29.214C7.35879 28.5441 7.33126 27.5256 7.83593 26.6448C8.34977 25.7547 9.23981 25.2684 10.0564 25.351C11.3869 23.4516 13.0018 21.6991 14.9012 20.1484C14.9379 20.1117 14.9838 20.075 15.0297 20.0382C15.0297 20.0382 15.0389 20.0382 15.048 20.0199C15.1031 19.9832 15.1581 19.9465 15.2132 19.919C15.6353 19.6896 16.1675 19.6804 16.6171 19.9465C17.0483 20.1942 17.3053 20.6438 17.342 21.1026L17.3878 21.3779C17.7457 23.5892 18.0577 24.4518 20.0763 26.4979L23.0217 29.792C23.0676 29.8287 23.1135 29.8746 23.1502 29.9205C23.1594 29.9205 23.1685 29.9388 23.1777 29.948C23.5264 30.3884 23.609 31.0032 23.3337 31.5262C23.3337 31.5446 23.3245 31.5629 23.3153 31.5721L21.5903 34.5542L19.8745 37.5363C19.8745 37.5363 19.8561 37.5638 19.8469 37.573C19.535 38.0685 18.9569 38.3163 18.3972 38.2337C18.388 38.2337 18.3696 38.2337 18.3605 38.2337C18.2962 38.2245 18.2412 38.2061 18.1861 38.1878L13.8644 37.2886C11.0841 36.5637 10.1757 36.7197 8.08367 37.5271L7.81757 37.6281C7.39549 37.8391 6.89083 37.8299 6.45039 37.5822C6.00078 37.3253 5.74386 36.8573 5.72551 36.3802C5.72551 36.316 5.72551 36.2517 5.72551 36.1875H5.73469ZM17.4062 58.6129L17.3603 58.8882C17.3328 59.3562 17.0759 59.7966 16.6354 60.0443C16.1858 60.3013 15.6628 60.2921 15.2315 60.0719C15.1765 60.0443 15.1123 60.0076 15.0664 59.9709C15.0664 59.9709 15.0572 59.9709 15.048 59.9618C15.0022 59.9251 14.9563 59.8975 14.9196 59.8516C13.0202 58.3101 11.4053 56.5576 10.0748 54.6582C9.25816 54.7408 8.35894 54.2545 7.85428 53.3644C7.34044 52.4744 7.36796 51.4559 7.8451 50.7952C6.8633 48.694 6.15677 46.4184 5.77139 43.996C5.76222 43.941 5.75304 43.8859 5.74386 43.8309V43.8125C5.73469 43.7483 5.73469 43.684 5.74386 43.6198C5.76222 43.1427 6.01914 42.6747 6.46874 42.4178C6.9 42.1701 7.41384 42.1701 7.83593 42.3719L8.10202 42.4729C10.1941 43.2711 11.1025 43.4363 13.8827 42.7114L18.2045 41.803C18.2595 41.7847 18.3238 41.7755 18.3788 41.7571C18.388 41.7571 18.4063 41.7571 18.4155 41.7571C18.9752 41.6746 19.5441 41.9131 19.8653 42.4178C19.8745 42.427 19.8928 42.4453 19.8928 42.4545L21.6087 45.4366L23.3337 48.4187C23.3337 48.4187 23.3429 48.4462 23.352 48.4646C23.6273 48.9876 23.5539 49.6116 23.1961 50.0428C23.1961 50.052 23.1777 50.0612 23.1685 50.0703C23.1318 50.1162 23.086 50.1621 23.0401 50.1988L20.0947 53.4929C18.076 55.5391 17.764 56.4016 17.4062 58.6221V58.6129ZM40.5014 63.6963C40.4464 63.733 40.3913 63.7697 40.3271 63.788H40.3088C40.2629 63.8064 40.2078 63.8339 40.1528 63.8431C37.868 64.7148 35.5374 65.2378 33.2343 65.4397C32.8948 66.1829 32.0231 66.7151 31.0046 66.7151C29.9861 66.7151 29.1144 66.1829 28.7749 65.4397C26.4626 65.2378 24.1412 64.7148 21.8472 63.8431C21.7922 63.8247 21.7463 63.8064 21.6912 63.788H21.6729C21.6087 63.7605 21.5536 63.733 21.4986 63.6963C21.0856 63.4393 20.8196 62.9897 20.8196 62.4667C20.8196 61.9621 21.0765 61.5216 21.4619 61.2647L21.6821 61.0812C23.4255 59.6681 24.0127 58.9616 24.7743 56.1905L26.1506 51.9972C26.1598 51.933 26.1782 51.878 26.2057 51.8229C26.2057 51.8137 26.2057 51.7954 26.2149 51.7862C26.4167 51.2632 26.9214 50.887 27.5086 50.8595C27.527 50.8595 27.5453 50.8595 27.5545 50.8595H30.9954H34.4363C34.4455 50.8595 34.473 50.8595 34.4822 50.8595C35.0694 50.887 35.5741 51.2632 35.776 51.7862C35.776 51.7954 35.7851 51.8137 35.7851 51.8229C35.8035 51.878 35.8218 51.933 35.8402 51.9972L37.2165 56.1905C37.9781 58.9616 38.5745 59.6681 40.3088 61.0812L40.529 61.2647C40.9144 61.5216 41.1713 61.9712 41.1713 62.4667C41.1713 62.9622 40.896 63.4393 40.4923 63.6963H40.5014ZM56.2745 43.8125V43.8309C56.2745 43.8859 56.2561 43.941 56.247 43.996C55.8616 46.4184 55.1551 48.694 54.1733 50.786C54.6504 51.4559 54.6779 52.4744 54.1733 53.3552C53.6594 54.2453 52.7694 54.7316 51.9527 54.649C50.6223 56.5484 49.0073 58.301 47.108 59.8516C47.0713 59.8884 47.0254 59.9251 46.9795 59.9526C46.9795 59.9526 46.9703 59.9618 46.9611 59.9709C46.9061 60.0076 46.851 60.0443 46.796 60.0719C46.3647 60.3013 45.8417 60.3104 45.3921 60.0443C44.9608 59.7966 44.7039 59.347 44.6672 58.8882L44.6213 58.6129C44.2635 56.4016 43.9515 55.5391 41.9329 53.4837L38.9875 50.1896C38.9875 50.1896 38.9049 50.107 38.859 50.0612C38.859 50.0612 38.8406 50.0428 38.8315 50.0336C38.4828 49.5932 38.4002 48.9784 38.6755 48.4554C38.6755 48.4371 38.6847 48.4187 38.6938 48.4095L40.4189 45.4274L42.1347 42.4453C42.1347 42.4453 42.1531 42.4178 42.1623 42.4086C42.4742 41.9131 43.0523 41.6654 43.612 41.748C43.6212 41.748 43.6395 41.748 43.6487 41.748C43.7038 41.7571 43.768 41.7755 43.8231 41.7939L48.1448 42.6931C50.9251 43.418 51.8334 43.262 53.9255 42.4545L54.1916 42.3536C54.6137 42.1517 55.1183 42.1517 55.5588 42.3994C56.0084 42.6564 56.2653 43.1243 56.2837 43.6015C56.2837 43.6657 56.2837 43.7299 56.2837 43.7942L56.2745 43.8125ZM54.1549 26.6264C54.6687 27.5165 54.6412 28.535 54.1549 29.1956C55.1367 31.2968 55.8432 33.5724 56.2286 35.9948C56.2378 36.0499 56.247 36.1049 56.2561 36.16C56.2561 36.16 56.2561 36.1691 56.2561 36.1783C56.2653 36.2425 56.2653 36.3068 56.2561 36.371C56.2378 36.8573 55.9809 37.3161 55.5313 37.573C55.1 37.8208 54.5862 37.8208 54.1641 37.6189L53.898 37.518C51.8059 36.7197 50.8975 36.5545 48.1173 37.2794L43.7955 38.1878C43.7405 38.2061 43.6762 38.2245 43.6212 38.2337C43.612 38.2337 43.5937 38.2337 43.5845 38.2337C43.0248 38.3163 42.4559 38.0777 42.1347 37.573C42.1255 37.5638 42.1072 37.5455 42.1072 37.5363L40.3822 34.5542L38.6571 31.5721C38.6571 31.5721 38.648 31.5446 38.6388 31.5262C38.3635 31.0032 38.4369 30.3793 38.7948 29.948C38.7948 29.9388 38.8131 29.9297 38.8223 29.9205C38.859 29.8746 38.9049 29.8287 38.9508 29.792L41.8962 26.4979C43.9148 24.4518 44.2268 23.5892 44.5846 21.3779L44.6305 21.1026C44.658 20.6347 44.915 20.1942 45.3554 19.9465C45.805 19.6896 46.3372 19.6987 46.7593 19.919C46.8235 19.9465 46.8786 19.9832 46.9244 20.0199C46.9244 20.0199 46.9336 20.0199 46.9428 20.0291C46.9887 20.0658 47.0254 20.0933 47.0713 20.13C48.9706 21.6715 50.5856 23.4241 51.916 25.3235C52.7327 25.2409 53.6319 25.7272 54.1365 26.6172L54.1549 26.6264Z" fill="white"/>
</svg>
